<svg id="3a43c1a0-73b1-4068-91b4-9ed132567145" data-name="Layer 1" xmlns="http://www.w3.org/2000/svg" viewBox="0 0 340 235">
	<title>article-placeholder</title>
	<rect x="-44.5" y="-32.5" width="448" height="310" fill="#eddfdf"/>
	<g>
		<path d="M166,44h.35" fill="none" stroke="#000" stroke-linecap="round" stroke-linejoin="round" stroke-width="14"/>
		<path d="M180.46,43.82c19.8-.2,39.65-.4,60.06-.4,11.05,0,20,6.1,23.3,16.05a25.18,25.18,0,0,1,1.25,8q.15,49.58.05,99.11c0,13.7-10.4,24-24.25,24-22.6.05-42.15,1.05-64.76,1.05H99.3c-11.9,0-21.25-7.3-23.9-18.6-.15-.7-.4-1.45-.55-2.15v-5.45" fill="none" stroke="#000" stroke-linecap="round" stroke-linejoin="round" stroke-width="14"/>
		<path d="M74.85,150.48V65.17a50.63,50.63,0,0,1,2.1-6.6C81,50,87.8,45.32,97.25,44.52c.75-.05,1.5-.05,2.25-.05,17.5,0,34.65-.15,51.65-.3" fill="none" stroke="#000" stroke-linecap="round" stroke-linejoin="round" stroke-width="14"/>
		<path d="M107.35,168.88a197.67,197.67,0,0,0,17.05-18.45" fill="none" stroke="#000" stroke-linecap="round" stroke-linejoin="round" stroke-width="14"/>
		<path d="M131.51,141.93a217.87,217.87,0,0,1,17-18.45c.7-.65,1.45-1.35,2.2-2,4.15,3.7,12.4,10.25,16.4,13.85,3.25,3,7.2,4,9.1,0,2.5-5.15,9.5-27,12.55-37.3.6.55,1.1,1,1.6,1.5,14,18,34,51.85,44.9,68.71" fill="none" stroke="#000" stroke-linecap="round" stroke-linejoin="round" stroke-width="14"/>
		<circle cx="227.46" cy="80.47" r="10"/>
	</g>
</svg>
