<svg id="Слой_1" data-name="Слой 1" xmlns="http://www.w3.org/2000/svg" viewBox="0 0 738.48 281">
  <title>catalogImg--black</title>
  <path d="M738.48,301.09h-4.23l-2.92-.08q3.59-.1,7.15-.26V378.2H0V300.75q3.68.16,7.39.25c-1.06,0-2.13.07-3.19.09h6.44c-1.07,0-2.13-.06-3.19-.09,3.47-.09,6.92-.24,10.36-.42,3.6.19,7.23.32,10.87.42-1.06,0-2.13.07-3.19.09h6.44c-1.07,0-2.13-.06-3.19-.09,3.47-.09,6.92-.24,10.36-.42,3.6.19,7.23.32,10.87.42-1.06,0-2.13.07-3.19.09H53.2c-1.07,0-2.13-.06-3.19-.09,3.47-.09,6.92-.24,10.35-.42,3.61.19,7.23.32,10.87.42-1.06,0-2.13.07-3.19.09h6.44c-1.07,0-2.13-.06-3.19-.09,3.47-.09,6.92-.24,10.36-.42,3.61.19,7.23.32,10.87.42-1.06,0-2.12.07-3.19.09h6.44c-1.07,0-2.13-.06-3.19-.09,3.47-.09,6.92-.24,10.36-.42,3.6.19,7.23.32,10.87.42-1.06,0-2.12.07-3.19.09H117c-1.07,0-2.13-.06-3.19-.09,3.47-.09,6.92-.24,10.36-.42,3.61.19,7.23.32,10.87.42-1.07,0-2.12.07-3.19.09h6.44c-1.07,0-2.13-.06-3.19-.09,3.47-.09,6.92-.24,10.36-.42,3.6.19,7.23.32,10.87.42-1.06,0-2.13.07-3.19.09h6.44c-1.07,0-2.13-.06-3.19-.09,3.47-.09,6.92-.24,10.35-.42,3.61.19,7.23.32,10.87.42-1.06,0-2.13.07-3.19.09h6.44c-1.07,0-2.13-.06-3.19-.09,3.47-.09,6.92-.24,10.36-.42,3.6.19,7.23.32,10.87.42-1.07,0-2.13.07-3.19.09h6.44c-1.07,0-2.13-.06-3.19-.09,3.47-.09,6.92-.24,10.36-.42,3.6.19,7.23.32,10.87.42-1.06,0-2.13.07-3.19.09h6.44c-1.07,0-2.13-.06-3.19-.09,3.47-.09,6.92-.24,10.36-.42,3.61.19,7.23.32,10.87.42-1.07,0-2.13.07-3.19.09h6.44c-1.07,0-2.13-.06-3.19-.09,3.47-.09,6.92-.24,10.36-.42,3.6.19,7.23.32,10.87.42-1.06,0-2.13.07-3.19.09H266c-1.07,0-2.13-.06-3.19-.09,3.47-.09,6.92-.24,10.36-.42,3.6.19,7.23.32,10.87.42-1.06,0-2.12.07-3.19.09h6.44c-1.07,0-2.13-.06-3.19-.09,3.47-.09,6.92-.24,10.35-.42,3.61.19,7.23.32,10.87.42-1.06,0-2.12.07-3.19.09h6.44c-1.07,0-2.13-.06-3.19-.09,3.47-.09,6.92-.24,10.36-.42,3.6.19,7.23.32,10.87.42-1.06,0-2.12.07-3.19.09h6.44c-1.07,0-2.13-.06-3.19-.09,3.47-.09,6.92-.24,10.36-.42,3.6.19,7.23.32,10.87.42-1.07,0-2.12.07-3.19.09h6.44c-1.07,0-2.13-.06-3.19-.09,3.47-.09,6.92-.24,10.36-.42,3.61.19,7.23.32,10.87.42-1.06,0-2.12.07-3.19.09h6.44c-1.07,0-2.13-.06-3.19-.09,3.47-.09,6.92-.24,10.36-.42,3.6.19,7.23.32,10.87.42-1.06,0-2.13.07-3.19.09h6.44c-1.07,0-2.13-.06-3.19-.09,3.47-.09,6.92-.24,10.35-.42,3.61.19,7.23.32,10.87.42-1.06,0-2.13.07-3.19.09H415c-1.07,0-2.13-.06-3.19-.09,3.47-.09,6.92-.24,10.36-.42,3.6.19,7.23.32,10.87.42-1.07,0-2.13.07-3.19.09h6.44c-1.07,0-2.13-.06-3.19-.09,3.47-.09,6.92-.24,10.36-.42,3.62.19,7.26.33,10.92.42l-3.24.09h6.44l-3.11-.09c3.47-.09,6.93-.24,10.37-.42q5.41.28,10.88.42l-3.3.09h6.44l-3.07-.08q5.23-.14,10.41-.41,5.39.28,10.84.41l-3.34.08h6.44l-3-.08q5.25-.14,10.45-.41,5.37.28,10.79.41l-3.37.08h6.44l-3-.08q5.23-.14,10.4-.41,5.39.28,10.84.41l-3.4.08h6.44l-3-.08q5.21-.14,10.37-.41,5.4.28,10.86.41l-3.42.08H564L561,301q5.2-.14,10.36-.41,5.41.28,10.88.41l-3.45.08h6.44l-2.93-.08q5.2-.14,10.36-.41,5.41.28,10.88.41l-3.47.08h6.44l-2.9-.08q5.21-.14,10.36-.41,5.41.28,10.87.41l-3.49.08h6.44l-2.88-.08q5.22-.14,10.38-.41,5.38.28,10.82.41l-3.48.08h6.44l-2.9-.08q5.21-.14,10.37-.41,5.39.28,10.84.41l-3.47.08h6.44l-2.91-.08q5.21-.14,10.37-.41,5.4.28,10.85.41l-3.46.08h6.44l-2.92-.08q5.22-.14,10.38-.41,5.39.28,10.83.41l-3.46.08H713L710,301q5.22-.14,10.4-.41,5.38.28,10.82.41l-3.46.08h6.44L731.3,301l-3.5.08H713L710,301l-3.5.08H691.68l-2.94-.08-3.5.08H670.4l-2.94-.08-3.51.08H649.11l-2.92-.08-3.52.08H627.83l-2.91-.08-3.53.08H606.55l-2.93-.08-3.52.08H585.27l-3-.08-3.49.08H564l-3-.08-3.47.08H542.7l-3-.08-3.44.08H521.42l-3-.08-3.41.08H500.14l-3.06-.08-3.38.08H478.85l-3.1-.08-3.35.08H457.57l-3.14-.09-3.3.09H436.29l-3.22-.09-3.22.09H415l-3.22-.09-3.22.09H393.72L390.5,301l-3.22.09H372.44l-3.22-.09-3.22.09H351.16l-3.22-.09-3.22.09H329.87l-3.22-.09-3.22.09H308.59l-3.22-.09-3.22.09H287.31l-3.22-.09-3.22.09H266l-3.22-.09-3.22.09H244.74l-3.22-.09-3.22.09H223.46l-3.22-.09-3.22.09H202.18L199,301l-3.22.09H180.9l-3.22-.09-3.22.09H159.61l-3.22-.09-3.22.09H138.33l-3.22-.09-3.22.09H117l-3.22-.09-3.22.09H95.77L92.54,301l-3.22.09H74.48L71.26,301l-3.22.09H53.2L50,301l-3.22.09H31.92L28.7,301l-3.22.09H10.64L7.41,301l-3.22.09H738.48ZM0,300.74q3.69.16,7.41.26c3.44-.09,6.85-.24,10.26-.42-3.51-.19-7-.43-10.47-.7q-3.59.28-7.2.51v.36Zm0-.38v-1.13q3.49.34,7,.62-3.49.28-7,.51Zm0-1.17q3.59.36,7.22.65c3.46-.28,6.89-.62,10.3-1q-5.21-.56-10.35-1.25-3.57.48-7.17.9v.69Zm0-.76v-1.86q3.4.52,6.83,1-3.4.46-6.83.87Zm0-2q3.58.56,7.2,1.05c3.42-.47,6.81-1,10.18-1.54q-5.13-.84-10.2-1.81-3.58.68-7.18,1.3v1Zm0-1.16v-2.59q3.33.7,6.7,1.35-3.33.65-6.7,1.24Zm0-2.83q3.59.78,7.21,1.49,5.06-1,10-2.12-5.06-1.13-10-2.39-3.59.9-7.22,1.74v1.28Zm0-1.56v-3.35q3.27.89,6.58,1.72-3.27.84-6.58,1.63Zm0-3.76q3.6,1,7.24,2,5-1.29,9.9-2.72-5-1.43-9.88-3Q3.66,284.55,0,285.63v1.53Zm0-2V281q3.2,1.09,6.45,2.13-3.21,1-6.45,2Zm0-4.77q3.6,1.28,7.26,2.48,4.93-1.61,9.76-3.36-4.92-1.75-9.75-3.62-3.6,1.4-7.26,2.73v1.76ZM0,278v-5q3.12,1.3,6.28,2.55Q3.16,276.76,0,278Zm0-5.88q3.61,1.56,7.29,3,4.84-1.95,9.55-4Q12,269,7.29,266.74q-3.61,1.7-7.29,3.33v2Zm0-3v-5.89q3,1.53,6.12,3-3,1.47-6.12,2.89Zm0-7.16q3.61,1.89,7.3,3.7,4.76-2.33,9.38-4.8-4.76-2.5-9.37-5.12-3.61,2.05-7.3,4v2.2Zm0-3.6v-6.92q2.94,1.79,6,3.52-2.94,1.73-6,3.4Zm0-8.71q3.6,2.3,7.31,4.51,4.67-2.78,9.18-5.69-4.67-3-9.17-6.07Q3.72,244.83,0,247.22v2.37Zm0-4.36V237.1q2.84,2.1,5.75,4.14-2.84,2-5.75,4Zm0-10.67q3.6,2.81,7.34,5.53,4.57-3.32,8.94-6.78-4.58-3.55-8.93-7.25-3.6,3.05-7.35,6v2.5Zm0-5.32v-9.66q2.71,2.49,5.51,4.92Q2.8,226.9,0,229.24Zm0-13.36q3.58,3.54,7.35,7,4.48-4.05,8.68-8.27-4.47-4.37-8.66-8.91Q3.79,209.55,0,213.3v2.58Zm0-6.74V197.25q2.55,3.07,5.23,6.07Q2.68,206.27,0,209.14ZM0,191.5q3.53,4.73,7.38,9.31,4.36-5.18,8.32-10.56-4.39-5.76-8.31-11.73Q3.89,183.85,0,189v2.49Zm0-9.25v-16q2.31,4.17,4.85,8.24-2.32,3.9-4.85,7.72Zm0-27.07q3.33,7.58,7.4,14.9,4.31-7.74,7.79-15.77a172.8,172.8,0,0,1-7.79-20A172.47,172.47,0,0,1,0,153.51v1.68ZM0,138V95.16a161.32,161.32,0,0,0,4.07,27.15A160.49,160.49,0,0,1,0,138ZM15.15-288.91H21c0,19.78-.2,391.92,4.39,411.21a161.88,161.88,0,0,1-7.3,25,161.81,161.81,0,0,1-7.29-25c7.2-30.3,4.4-391.44,4.4-411.23Zm21.28,0h5.8c0,12.74,1.5,399.08,4.39,411.21a161.9,161.9,0,0,1-7.3,25,162.15,162.15,0,0,1-7.29-25c2.89-12.13,4.4-398.48,4.4-411.22Zm21.28,0h5.81c0,12.74,1.5,399.08,4.39,411.21a161.87,161.87,0,0,1-7.3,25,162.07,162.07,0,0,1-7.29-25c2.89-12.13,4.4-398.48,4.4-411.22Zm21.28,0h5.81c0,12.74,1.5,399.09,4.39,411.21a161.83,161.83,0,0,1-7.3,25,162,162,0,0,1-7.29-25C77.49,110.18,79-276.17,79-288.91Zm21.28,0h5.81c0,12.74,1.5,399.08,4.39,411.21a161.88,161.88,0,0,1-7.3,25,162,162,0,0,1-7.29-25c2.89-12.13,4.4-398.48,4.4-411.22Zm21.28,0h5.8c0,12.74,1.5,399.08,4.39,411.21a161.8,161.8,0,0,1-7.3,25,162.06,162.06,0,0,1-7.29-25c2.89-12.13,4.4-398.48,4.4-411.21Zm21.28,0h5.8c0,12.74,1.5,399.09,4.39,411.21a162,162,0,0,1-7.3,25,162,162,0,0,1-7.29-25c2.89-12.13,4.4-398.48,4.4-411.22Zm21.28,0h5.81c0,12.74,1.5,399.08,4.39,411.21a161.9,161.9,0,0,1-7.3,25,162,162,0,0,1-7.29-25c2.89-12.13,4.4-398.48,4.4-411.22Zm21.28,0h5.81c0,12.74,1.5,399.08,4.39,411.21a161.87,161.87,0,0,1-7.3,25,162,162,0,0,1-7.29-25c2.89-12.13,4.4-398.48,4.4-411.22Zm21.28,0h5.81c0,12.74,1.5,399.08,4.39,411.21a161.79,161.79,0,0,1-7.3,25,162.07,162.07,0,0,1-7.29-25c2.89-12.13,4.4-398.48,4.4-411.22Zm21.28,0h5.8c0,12.74,1.5,399.08,4.39,411.21a161.9,161.9,0,0,1-7.3,25,162,162,0,0,1-7.29-25c2.89-12.13,4.4-398.48,4.4-411.21Zm21.28,0h5.8c0,12.74,1.5,399.08,4.39,411.21a162,162,0,0,1-7.3,25,161.94,161.94,0,0,1-7.29-25c2.89-12.13,4.4-398.48,4.4-411.22Zm21.28,0h5.8c0,12.74,1.5,399.08,4.39,411.21a162,162,0,0,1-7.3,25,162,162,0,0,1-7.29-25c2.89-12.13,4.4-398.48,4.4-411.21Zm21.28,0h5.8c0,12.74,1.5,399.08,4.39,411.21a161.74,161.74,0,0,1-7.3,25,162,162,0,0,1-7.29-25c2.89-12.13,4.4-398.48,4.4-411.22Zm21.28,0h5.81c0,12.74,1.5,399.08,4.39,411.21a162,162,0,0,1-7.3,25,162,162,0,0,1-7.29-25c2.89-12.13,4.4-398.48,4.4-411.22Zm21.28,0h5.8c0,12.74,1.5,399.09,4.39,411.21a161.94,161.94,0,0,1-7.3,25,162,162,0,0,1-7.29-25c2.89-12.13,4.4-398.48,4.4-411.22Zm21.28,0h5.8c0,12.74,1.5,399.08,4.39,411.21a162.12,162.12,0,0,1-7.3,25,162,162,0,0,1-7.29-25c2.89-12.13,4.4-398.48,4.4-411.22Zm21.28,0h5.81c0,12.74,1.5,399.08,4.39,411.21a161.94,161.94,0,0,1-7.3,25,161.91,161.91,0,0,1-7.29-25c2.89-12.13,4.4-398.48,4.4-411.21Zm21.28,0H404c0,12.74,1.5,399.08,4.39,411.21a161.89,161.89,0,0,1-7.3,25,162,162,0,0,1-7.29-25c2.89-12.13,4.4-398.48,4.4-411.22Zm21.28,0h5.81c0,12.74,1.5,399.08,4.39,411.21a161.91,161.91,0,0,1-7.3,25,162,162,0,0,1-7.29-25c2.89-12.13,4.4-398.48,4.4-411.21Zm21.28,0h5.81c0,12.74,1.5,399.08,4.39,411.21a161.79,161.79,0,0,1-7.3,25,162,162,0,0,1-7.29-25c2.89-12.13,4.4-398.48,4.4-411.22Zm21.28,0h5.8c0,12.74,1.5,399.08,4.39,411.21a162.07,162.07,0,0,1-7.3,25,162,162,0,0,1-7.29-25c2.89-12.13,4.4-398.48,4.4-411.22Zm21.28,0h5.81c0,12.74,1.5,399.09,4.39,411.21a161.87,161.87,0,0,1-7.3,25,161.93,161.93,0,0,1-7.29-25c2.89-12.13,4.4-398.48,4.4-411.22Zm21.28,0h5.81c0,12.74,1.5,399.08,4.39,411.21a161.81,161.81,0,0,1-7.3,25,161.9,161.9,0,0,1-7.29-25c2.89-12.13,4.4-398.48,4.4-411.22Zm21.28,0h5.8c0,12.74,1.5,399.09,4.39,411.21a161.87,161.87,0,0,1-7.3,25,162,162,0,0,1-7.29-25c2.89-12.13,4.4-398.48,4.4-411.21Zm21.28,0H553c0,12.74,1.5,399.08,4.39,411.21a162,162,0,0,1-7.3,25,162,162,0,0,1-7.29-25c2.89-12.13,4.4-398.48,4.4-411.22Zm21.28,0h5.8c0,12.74,1.5,399.08,4.39,411.21a162,162,0,0,1-7.3,25,162,162,0,0,1-7.29-25c2.89-12.13,4.4-398.48,4.4-411.21Zm21.28,0h5.8c0,12.74,1.5,399.08,4.39,411.21a161.9,161.9,0,0,1-7.3,25,162,162,0,0,1-7.29-25c2.89-12.13,4.4-398.48,4.4-411.22Zm21.28,0h5.81c0,12.74,1.5,399.08,4.39,411.21a161.89,161.89,0,0,1-7.3,25,162.07,162.07,0,0,1-7.29-25c2.89-12.13,4.4-398.48,4.4-411.22Zm21.28,0h5.8c0,12.74,1.5,399.09,4.39,411.21a161.9,161.9,0,0,1-7.3,25,162,162,0,0,1-7.29-25c2.89-12.13,4.4-398.48,4.4-411.22Zm21.28,0h5.81c0,12.74,1.5,399.08,4.39,411.21a161.93,161.93,0,0,1-7.3,25,162.07,162.07,0,0,1-7.29-25c2.89-12.13,4.4-398.48,4.4-411.22Zm21.28,0h5.81c0,12.74,1.5,399.08,4.39,411.21a161.91,161.91,0,0,1-7.3,25,162,162,0,0,1-7.29-25c2.89-12.13,4.4-398.48,4.4-411.21Zm21.28,0H702c0,12.74,1.5,399.08,4.39,411.21a161.9,161.9,0,0,1-7.3,25,162.22,162.22,0,0,1-7.29-25c2.89-12.13,4.4-398.48,4.4-411.22Zm21.28,0h5.81c0,12.74,1.5,399.09,4.39,411.23a161.78,161.78,0,0,1-7.3,25,162.18,162.18,0,0,1-7.3-25c2.89-12.13,4.4-398.48,4.4-411.21Zm21,383.43v43.6a158.76,158.76,0,0,1-4.11-15.8,161.2,161.2,0,0,0,4.11-27.8Zm0,59A172.33,172.33,0,0,1,731,134.31a172.48,172.48,0,0,1-7.79,20q3.48,8,7.79,15.79,4.11-7.38,7.46-15v-1.52Zm0,12.65v16.16q-2.56-3.87-4.9-7.82,2.57-4.12,4.9-8.34Zm0,22.94q-3.92-5.22-7.46-10.61-3.92,6-8.32,11.73,4,5.38,8.32,10.57,3.89-4.63,7.46-9.42v-2.27Zm0,8v12.07q-2.73-2.92-5.32-5.91,2.73-3,5.32-6.16Zm0,16.25q-3.84-3.8-7.46-7.73-4.18,4.54-8.67,8.92,4.19,4.22,8.66,8.27,3.83-3.47,7.47-7.07v-2.39Zm0,6.07v9.86q-2.86-2.39-5.62-4.84,2.86-2.48,5.62-5Zm0,12.7q-3.81-3-7.46-6.11-4.36,3.7-8.94,7.25,4.37,3.47,8.94,6.79,3.8-2.76,7.46-5.62v-2.31Zm0,4.85v8.32q-3-2-5.89-4.09,3-2.09,5.89-4.23Zm0,10.3q-3.79-2.44-7.47-5-4.5,3.1-9.17,6.06,4.5,2.92,9.17,5.7,3.79-2.25,7.47-4.6v-2.19Zm0,4v7.09q-3.08-1.71-6.09-3.48,3.08-1.77,6.09-3.6Zm0,8.49q-3.77-2-7.46-4.11-4.62,2.63-9.38,5.12,4.62,2.46,9.37,4.79,3.78-1.85,7.47-3.79v-2Zm0,3.3v6.06q-3.18-1.45-6.31-3,3.18-1.52,6.31-3.09Zm0,7.06q-3.77-1.67-7.46-3.42-4.72,2.23-9.57,4.33,4.73,2.08,9.57,4,3.77-1.52,7.46-3.12v-1.83Zm0,2.72v5.13q-3.26-1.23-6.47-2.51,3.26-1.28,6.47-2.62Zm0,5.82q-3.77-1.37-7.48-2.8-4.81,1.87-9.72,3.62,4.82,1.74,9.73,3.36,3.76-1.23,7.47-2.54v-1.63Zm0,2.24v4.27q-3.35-1-6.65-2.08,3.35-1.07,6.65-2.2Zm0,4.74q-3.75-1.1-7.45-2.28-4.91,1.56-9.9,3,4.91,1.42,9.9,2.72,3.75-1,7.46-2v-1.4Zm0,1.8V291q-3.41-.81-6.79-1.68,3.42-.86,6.79-1.79Zm0,3.76q-3.75-.86-7.45-1.8-5,1.26-10.08,2.39,5,1.13,10.09,2.11,3.74-.73,7.44-1.54V291.3Zm0,1.4v2.69q-3.48-.62-6.93-1.29,3.48-.67,6.93-1.4Zm0,2.84q-3.74-.64-7.45-1.35-5.08,1-10.23,1.81,5.09.84,10.26,1.54,3.73-.51,7.43-1.09v-.91Zm0,1v1.92q-3.55-.42-7.07-.9,3.55-.48,7.07-1Zm0,2q-3.74-.43-7.44-.92-5.16.69-10.37,1.25,5.18.56,10.43,1,3.71-.3,7.38-.67v-.63Zm0,.68v1.16q-3.6-.23-7.18-.52,3.6-.29,7.18-.64Zm0,1.17q-3.71-.23-7.39-.52-5.25.41-10.54.7,5.35.28,10.75.42,3.61-.1,7.19-.26v-.33Zm-10-125.87q-3.77,6.35-8.09,12.48-4.31-6.13-8.09-12.48,4.38-7,8.09-14.34,3.7,7.3,8.08,14.34Zm-10.93-20.21a172.9,172.9,0,0,1-7.79-20,172.66,172.66,0,0,1-7.8,20q3.48,8,7.79,15.81a175.92,175.92,0,0,0,7.79-15.77Zm11.34,49q-4.08,4.71-8.5,9.25-4.41-4.54-8.5-9.25,4.44-5,8.51-10.09,4.07,5.14,8.49,10.09ZM718,190.27q-4.39-5.76-8.31-11.73-3.92,6-8.32,11.73,4,5.38,8.32,10.57,4.36-5.18,8.31-10.56Zm-10.86-15.72q-3.77,6.35-8.09,12.48-4.32-6.14-8.1-12.5,4.39-7,8.1-14.34,3.7,7.31,8.09,14.36Zm-10.94-20.23a173.27,173.27,0,0,1-7.79-20,172.59,172.59,0,0,1-7.79,20q3.47,8,7.79,15.79,4.31-7.74,7.79-15.77Zm32.93,70.23q-4.28,3.8-8.79,7.45-4.52-3.65-8.81-7.46,4.52-3.91,8.8-8,4.27,4.08,8.81,8Zm-10.78-9.93q-4.48-4.37-8.66-8.91-4.18,4.54-8.67,8.92,4.19,4.22,8.66,8.26,4.47-4.05,8.67-8.27Zm-10.81-11.27q-4.09,4.71-8.5,9.25-4.41-4.54-8.5-9.25,4.44-5,8.51-10.09,4.07,5.13,8.49,10.09Zm-10.83-13.08q-4.4-5.77-8.32-11.75-3.92,6-8.32,11.72,4,5.39,8.33,10.59,4.36-5.18,8.31-10.56Zm-10.86-15.74q-3.77,6.35-8.09,12.48-4.31-6.13-8.09-12.49,4.39-7,8.1-14.34,3.7,7.3,8.08,14.35ZM675,154.31a173.21,173.21,0,0,1-7.78-20,172.4,172.4,0,0,1-7.8,20q3.48,8,7.79,15.79,4.31-7.74,7.79-15.77Zm54.47,87q-4.44,3.17-9.06,6.21-4.62-3-9.07-6.2,4.63-3.24,9.07-6.62,4.43,3.38,9.06,6.62Zm-10.77-7.93q-4.58-3.55-8.94-7.26-4.36,3.7-8.94,7.25,4.36,3.47,8.94,6.79,4.57-3.32,8.94-6.78Zm-10.79-8.83q-4.28,3.8-8.8,7.45-4.52-3.65-8.8-7.46,4.52-3.91,8.8-8,4.27,4.08,8.8,8Zm-10.78-9.93q-4.48-4.37-8.66-8.91-4.18,4.54-8.67,8.91,4.19,4.22,8.66,8.27,4.47-4.05,8.67-8.27Zm-10.81-11.27q-4.09,4.71-8.5,9.25-4.42-4.55-8.52-9.28,4.44-5,8.51-10.09,4.07,5.15,8.51,10.11Zm-10.83-13.09q-4.39-5.76-8.31-11.73-3.92,6-8.32,11.72,4,5.38,8.32,10.57,4.36-5.18,8.32-10.56Zm-10.85-15.72q-3.77,6.35-8.09,12.48-4.31-6.13-8.09-12.49,4.39-7,8.1-14.34,3.7,7.3,8.08,14.35Zm-10.93-20.22a173.08,173.08,0,0,1-7.78-20,172.6,172.6,0,0,1-7.8,20q3.48,8,7.79,15.79,4.31-7.74,7.79-15.77Zm76,100.65q-4.57,2.68-9.28,5.23-4.71-2.55-9.28-5.23,4.71-2.72,9.27-5.57,4.56,2.86,9.28,5.57Zm-10.75-6.5q-4.67-3-9.18-6.06-4.5,3.1-9.17,6.06,4.5,2.92,9.17,5.7,4.67-2.78,9.18-5.69Zm-10.76-7.17q-4.44,3.17-9.06,6.21-4.62-3-9.07-6.2,4.63-3.24,9.07-6.62,4.43,3.38,9.06,6.62Zm-10.77-7.94q-4.58-3.55-8.93-7.25-4.36,3.7-8.94,7.25,4.36,3.47,8.94,6.79,4.57-3.32,8.94-6.78Zm-10.78-8.82q-4.28,3.8-8.8,7.45-4.52-3.65-8.81-7.46,4.52-3.91,8.8-8,4.27,4.08,8.81,8Zm-10.78-9.93q-4.49-4.38-8.68-8.93-4.19,4.54-8.68,8.91,4.2,4.22,8.68,8.29,4.47-4.05,8.68-8.27ZM665,203.32q-4.09,4.71-8.5,9.25-4.41-4.54-8.5-9.26,4.44-5,8.51-10.09,4.07,5.14,8.49,10.1Zm-10.82-13.08q-4.39-5.76-8.31-11.73-3.92,6-8.32,11.72,4,5.38,8.32,10.57,4.36-5.18,8.32-10.56Zm-10.85-15.72q-3.77,6.35-8.09,12.48-4.31-6.13-8.09-12.49,4.39-7,8.1-14.34,3.7,7.3,8.08,14.35Zm-10.93-20.22a173,173,0,0,1-7.78-20,172.62,172.62,0,0,1-7.8,20q3.48,8,7.79,15.79,4.31-7.74,7.79-15.77Zm97.44,111.93q-4.67,2.27-9.47,4.4-4.8-2.14-9.48-4.39,4.81-2.29,9.48-4.72,4.66,2.42,9.46,4.71Zm-10.73-5.37q-4.76-2.5-9.39-5.12-4.62,2.63-9.38,5.12,4.62,2.47,9.38,4.8,4.76-2.33,9.38-4.8ZM708.36,255q-4.57,2.68-9.28,5.23-4.71-2.55-9.27-5.23,4.72-2.72,9.27-5.57,4.56,2.85,9.28,5.57Zm-10.75-6.5q-4.67-3-9.18-6.06-4.5,3.1-9.17,6.06,4.5,2.92,9.17,5.69,4.67-2.78,9.18-5.69Zm-10.76-7.17q-4.44,3.17-9.06,6.21-4.62-3-9.06-6.2,4.63-3.24,9.07-6.62,4.43,3.38,9.05,6.62Zm-10.77-7.93q-4.58-3.55-8.94-7.26-4.36,3.7-8.94,7.25,4.36,3.47,8.94,6.79,4.57-3.32,8.94-6.78Zm-10.79-8.83q-4.28,3.8-8.8,7.45-4.53-3.66-8.83-7.48,4.53-3.91,8.8-8,4.29,4.09,8.82,8Zm-10.79-9.94q-4.47-4.38-8.66-8.91-4.19,4.54-8.67,8.91,4.19,4.21,8.65,8.27,4.48-4.05,8.68-8.27Zm-10.8-11.26q-4.09,4.71-8.5,9.25-4.41-4.54-8.5-9.26,4.44-5,8.51-10.09,4.06,5.14,8.49,10.1Zm-10.82-13.08q-4.39-5.76-8.31-11.73-3.92,6-8.32,11.72,4,5.38,8.32,10.57,4.36-5.18,8.32-10.56ZM622,174.53q-3.77,6.35-8.09,12.48-4.31-6.13-8.09-12.49,4.39-7,8.1-14.34,3.7,7.3,8.08,14.35Zm-10.93-20.22a172.79,172.79,0,0,1-7.78-20,172.54,172.54,0,0,1-7.8,20q3.48,8,7.79,15.79,4.31-7.74,7.79-15.77ZM730,275.57q-4.77,1.91-9.64,3.68-4.88-1.78-9.65-3.69,4.88-1.92,9.65-4,4.77,2,9.64,4Zm-10.73-4.44q-4.83-2.1-9.54-4.33-4.72,2.23-9.57,4.33,4.72,2.08,9.56,4,4.83-1.95,9.55-4Zm-10.72-4.89q-4.67,2.27-9.47,4.4-4.81-2.14-9.49-4.4,4.81-2.29,9.48-4.72,4.67,2.42,9.48,4.72Zm-10.74-5.38q-4.76-2.5-9.38-5.12-4.62,2.63-9.38,5.12,4.62,2.47,9.38,4.8,4.76-2.33,9.38-4.8ZM687.07,255q-4.57,2.68-9.28,5.23-4.71-2.55-9.27-5.23,4.72-2.72,9.27-5.57,4.56,2.85,9.28,5.57Zm-10.76-6.51q-4.67-3-9.17-6.06-4.5,3.1-9.17,6.06,4.5,2.92,9.16,5.69,4.67-2.78,9.18-5.69Zm-10.76-7.17q-4.44,3.17-9.06,6.21-4.62-3-9.06-6.2,4.63-3.24,9.07-6.62,4.43,3.38,9.06,6.62Zm-10.77-7.94q-4.59-3.56-9-7.28-4.36,3.7-8.94,7.25,4.38,3.48,9,6.81,4.57-3.32,8.94-6.78ZM644,224.5q-4.28,3.8-8.8,7.45-4.52-3.65-8.8-7.46,4.53-3.91,8.8-8,4.27,4.08,8.8,8Zm-10.76-9.91q-4.47-4.37-8.66-8.91-4.19,4.54-8.67,8.91,4.19,4.21,8.65,8.27,4.48-4.05,8.68-8.27Zm-10.8-11.26q-4.09,4.71-8.5,9.25-4.41-4.54-8.5-9.26,4.44-5,8.51-10.09,4.07,5.14,8.49,10.1Zm-10.82-13.07q-4.39-5.76-8.31-11.73-3.92,6-8.32,11.72,3.95,5.38,8.32,10.57,4.36-5.18,8.32-10.56Zm-10.85-15.72Q597,180.88,592.67,187q-4.31-6.13-8.09-12.49,4.39-7,8.1-14.34,3.7,7.3,8.08,14.35Zm-10.93-20.22a173.2,173.2,0,0,1-7.78-20,172.65,172.65,0,0,1-7.79,20q3.47,8,7.78,15.79,4.31-7.74,7.79-15.77ZM730.2,283.2q-4.86,1.58-9.81,3-5-1.45-9.85-3,5-1.59,9.83-3.3,4.87,1.72,9.83,3.3Zm-10.73-3.62q-4.93-1.75-9.76-3.62-4.81,1.87-9.72,3.62,4.81,1.74,9.72,3.36,4.92-1.61,9.75-3.35Zm-10.75-4q-4.77,1.9-9.64,3.68-4.87-1.78-9.64-3.69,4.88-1.92,9.65-4,4.76,2,9.63,4ZM698,271.13q-4.84-2.1-9.56-4.34-4.72,2.23-9.57,4.33,4.73,2.09,9.58,4,4.83-1.95,9.55-4Zm-10.73-4.89q-4.67,2.27-9.47,4.4-4.8-2.14-9.49-4.4,4.81-2.29,9.48-4.72,4.67,2.42,9.47,4.71Zm-10.74-5.38q-4.76-2.5-9.38-5.12-4.62,2.63-9.38,5.12,4.62,2.47,9.38,4.8,4.76-2.33,9.38-4.8Zm-10.75-5.91q-4.57,2.68-9.28,5.23-4.71-2.55-9.27-5.23,4.72-2.72,9.27-5.57,4.56,2.85,9.28,5.57ZM655,248.44q-4.67-3-9.18-6.07-4.5,3.1-9.17,6.07,4.5,2.92,9.17,5.7,4.67-2.78,9.18-5.7Zm-10.76-7.17q-4.44,3.17-9.07,6.21-4.63-3-9.09-6.22,4.63-3.24,9.07-6.63,4.44,3.39,9.09,6.64Zm-10.79-7.95q-4.57-3.55-8.93-7.25-4.36,3.7-8.94,7.25,4.36,3.47,8.93,6.79,4.57-3.32,8.94-6.78ZM622.7,224.5q-4.28,3.8-8.8,7.45-4.52-3.65-8.8-7.46,4.53-3.91,8.8-8,4.27,4.08,8.8,8Zm-10.76-9.91q-4.47-4.38-8.66-8.91-4.19,4.54-8.67,8.91,4.19,4.21,8.66,8.27,4.48-4.05,8.68-8.27Zm-10.8-11.26q-4.09,4.71-8.5,9.25-4.41-4.54-8.5-9.26,4.44-5,8.51-10.09,4.07,5.14,8.49,10.1Zm-10.82-13.08q-4.39-5.76-8.31-11.73-3.92,6-8.32,11.72,3.95,5.38,8.32,10.57,4.36-5.18,8.32-10.56Zm-10.85-15.72q-3.77,6.35-8.09,12.48-4.31-6.13-8.09-12.49,4.39-7,8.1-14.34,3.7,7.3,8.08,14.35Zm-10.93-20.22a173.12,173.12,0,0,1-7.78-20,172.55,172.55,0,0,1-7.8,20q3.48,8,7.79,15.79,4.31-7.74,7.79-15.77Zm161.82,135q-5,1.27-10,2.42-5-1.14-10-2.42,5-1.27,9.95-2.67c3.31.94,6.65,1.82,10,2.67Zm-10.74-2.88q-5-1.43-9.89-3-4.9,1.56-9.9,3,4.91,1.43,9.91,2.72,5-1.29,9.88-2.71Zm-10.72-3.25q-4.86,1.58-9.81,3-5-1.45-9.84-3,5-1.59,9.83-3.3,4.86,1.71,9.82,3.3Zm-10.73-3.62q-4.92-1.75-9.75-3.62-4.81,1.87-9.72,3.62,4.81,1.74,9.72,3.36,4.92-1.61,9.75-3.36Zm-10.74-4q-4.77,1.9-9.64,3.68-4.88-1.78-9.65-3.69,4.88-1.92,9.65-4,4.77,2,9.65,4Zm-10.74-4.44q-4.84-2.1-9.55-4.34-4.72,2.23-9.57,4.33,4.73,2.09,9.57,4,4.83-1.95,9.55-4ZM666,266.23q-4.67,2.27-9.47,4.4-4.8-2.14-9.49-4.4,4.81-2.29,9.48-4.72,4.67,2.42,9.47,4.71Zm-10.74-5.38q-4.76-2.5-9.38-5.12-4.62,2.63-9.38,5.12,4.62,2.47,9.38,4.8,4.76-2.33,9.38-4.8Zm-10.75-5.91q-4.57,2.68-9.28,5.23-4.71-2.55-9.28-5.23,4.72-2.72,9.28-5.57,4.56,2.86,9.28,5.57Zm-10.76-6.51q-4.69-3-9.2-6.08-4.5,3.1-9.18,6.06,4.52,2.93,9.2,5.72,4.67-2.78,9.18-5.7Zm-10.78-7.19q-4.44,3.17-9.07,6.21-4.62-3-9.06-6.2,4.64-3.24,9.07-6.62,4.43,3.38,9.05,6.62Zm-10.75-7.93q-4.57-3.55-8.93-7.25-4.36,3.7-8.94,7.25,4.36,3.47,8.94,6.79,4.57-3.32,8.94-6.78Zm-10.77-8.82q-4.28,3.8-8.8,7.45-4.52-3.65-8.8-7.46,4.53-3.91,8.8-8,4.27,4.08,8.8,8Zm-10.76-9.91q-4.47-4.37-8.66-8.91-4.19,4.54-8.67,8.91,4.19,4.21,8.65,8.27,4.48-4.05,8.68-8.27Zm-10.8-11.26q-4.09,4.71-8.5,9.25-4.41-4.54-8.5-9.26,4.44-5,8.51-10.09,4.07,5.14,8.49,10.1ZM569,190.25q-4.39-5.76-8.31-11.73-3.92,6-8.32,11.72,4,5.38,8.32,10.57,4.36-5.18,8.32-10.56Zm-10.85-15.72q-3.77,6.35-8.09,12.48-4.31-6.13-8.09-12.49,4.39-7,8.1-14.34,3.7,7.3,8.08,14.35Zm-10.93-20.21a173,173,0,0,1-7.78-20,172.54,172.54,0,0,1-7.8,20q3.48,8,7.79,15.79,4.31-7.74,7.79-15.77ZM730.52,294.1q-5,1-10.17,1.84c-3.39-.56-6.75-1.19-10.1-1.84q5.1-1,10.12-2.09,5,1.11,10.15,2.09Zm-10.74-2.22q-5.06-1.12-10-2.38-5,1.26-10.08,2.39,5,1.13,10.09,2.11,5.05-1,10-2.11Zm-10.69-2.55q-5,1.27-10,2.42-5-1.14-10-2.42,5-1.27,10-2.67c3.31.94,6.65,1.82,10,2.67Zm-10.75-2.89q-5-1.43-9.89-3-4.91,1.56-9.9,3,4.91,1.42,9.9,2.72,5-1.29,9.88-2.71Zm-10.72-3.25q-4.86,1.58-9.81,3-5-1.45-9.84-3,5-1.59,9.83-3.3,4.86,1.71,9.82,3.3Zm-10.72-3.62q-4.93-1.75-9.76-3.62-4.81,1.87-9.72,3.62,4.82,1.74,9.73,3.36,4.93-1.61,9.75-3.36Zm-10.75-4q-4.77,1.91-9.64,3.68-4.88-1.78-9.65-3.69,4.88-1.92,9.65-4,4.77,2,9.64,4Zm-10.73-4.44q-4.84-2.1-9.55-4.34-4.72,2.23-9.57,4.33,4.73,2.08,9.57,4,4.83-1.95,9.55-4Zm-10.73-4.89q-4.67,2.27-9.47,4.4-4.8-2.14-9.48-4.4,4.81-2.29,9.49-4.72,4.67,2.42,9.47,4.71Zm-10.74-5.38q-4.76-2.5-9.39-5.13-4.62,2.63-9.38,5.13,4.62,2.47,9.39,4.8,4.76-2.33,9.38-4.8Zm-10.76-5.92q-4.57,2.68-9.28,5.23-4.73-2.56-9.3-5.25,4.72-2.71,9.28-5.57,4.57,2.86,9.31,5.59Zm-10.77-6.52q-4.67-3-9.17-6.07-4.5,3.1-9.18,6.06,4.5,2.92,9.17,5.7,4.67-2.78,9.18-5.69Zm-10.75-7.17q-4.44,3.17-9.07,6.21-4.62-3-9.06-6.2,4.63-3.24,9.07-6.63,4.43,3.38,9.05,6.62Zm-10.75-7.92q-4.58-3.55-8.93-7.25-4.36,3.7-8.94,7.25,4.36,3.47,8.94,6.79,4.57-3.32,8.94-6.78Zm-10.77-8.82q-4.28,3.8-8.8,7.45-4.52-3.65-8.8-7.46,4.53-3.91,8.8-8,4.27,4.08,8.8,8Zm-10.76-9.91q-4.47-4.38-8.66-8.91-4.19,4.54-8.67,8.91,4.19,4.21,8.66,8.27,4.48-4.05,8.68-8.27Zm-10.8-11.26q-4.09,4.71-8.5,9.25-4.41-4.54-8.5-9.26,4.44-5,8.51-10.09,4.06,5.14,8.49,10.1Zm-10.82-13.08q-4.39-5.76-8.31-11.73-3.92,6-8.32,11.72,4,5.38,8.32,10.57,4.36-5.18,8.32-10.56Zm-10.85-15.72q-3.77,6.35-8.09,12.48-4.31-6.13-8.09-12.49,4.39-7,8.1-14.34,3.7,7.3,8.08,14.35ZM526,154.31a173.21,173.21,0,0,1-7.78-20,172.77,172.77,0,0,1-7.79,20q3.47,8,7.79,15.79,4.31-7.74,7.79-15.77ZM730.69,297.59q-5.13.7-10.31,1.26c-3.44-.37-6.85-.8-10.25-1.27q5.16-.69,10.27-1.52,5.12.83,10.3,1.52ZM719.94,296q-5.14-.84-10.21-1.81-5.08,1-10.23,1.81,5.09.84,10.25,1.54,5.12-.7,10.18-1.54Zm-10.71-1.9q-5,1-10.17,1.84c-3.39-.56-6.75-1.19-10.09-1.84q5.09-1,10.11-2.09,5,1.11,10.15,2.09Zm-10.74-2.21q-5.06-1.13-10-2.39-5,1.26-10.08,2.39,5,1.13,10.1,2.12,5.05-1,10-2.11Zm-10.71-2.56q-5,1.27-10,2.42-5-1.14-10-2.42,5-1.27,10-2.67c3.31.94,6.65,1.82,10,2.67ZM677,286.44q-5-1.43-9.88-3-4.91,1.56-9.9,3,4.91,1.42,9.9,2.72,5-1.29,9.88-2.71Zm-10.71-3.25q-4.86,1.58-9.81,3-5-1.45-9.85-3,5-1.59,9.83-3.3,4.86,1.71,9.83,3.3Zm-10.73-3.62q-4.93-1.75-9.76-3.62-4.81,1.87-9.72,3.62,4.81,1.74,9.72,3.36,4.93-1.61,9.75-3.35Zm-10.75-4q-4.77,1.9-9.64,3.68-4.88-1.78-9.64-3.69,4.88-1.92,9.65-4,4.77,2,9.64,4Zm-10.74-4.44q-4.84-2.1-9.55-4.34-4.72,2.23-9.57,4.33,4.72,2.08,9.57,4,4.83-1.95,9.55-4Zm-10.73-4.9q-4.67,2.27-9.47,4.41-4.8-2.14-9.49-4.4,4.81-2.29,9.48-4.72,4.67,2.42,9.47,4.72Zm-10.75-5.38q-4.78-2.51-9.42-5.15-4.62,2.63-9.38,5.13,4.64,2.48,9.42,4.82,4.76-2.33,9.38-4.8Zm-10.77-5.93q-4.57,2.68-9.29,5.23-4.71-2.55-9.27-5.23,4.72-2.71,9.28-5.57,4.55,2.85,9.27,5.57Zm-10.74-6.5q-4.67-3-9.17-6.07-4.5,3.1-9.18,6.06,4.5,2.92,9.17,5.69,4.67-2.78,9.18-5.69Zm-10.75-7.17q-4.44,3.17-9.07,6.21-4.62-3-9.06-6.2,4.64-3.24,9.07-6.63,4.43,3.38,9.05,6.62Zm-10.75-7.92q-4.58-3.55-8.93-7.25-4.36,3.7-8.95,7.25,4.36,3.47,8.94,6.79,4.57-3.32,8.94-6.78Zm-10.77-8.82q-4.28,3.8-8.8,7.44-4.52-3.65-8.8-7.46,4.53-3.91,8.8-8,4.27,4.08,8.8,8Zm-10.76-9.92q-4.47-4.37-8.66-8.91-4.19,4.54-8.67,8.91,4.19,4.21,8.65,8.27,4.48-4.05,8.68-8.27Zm-10.8-11.26q-4.09,4.71-8.5,9.25-4.41-4.54-8.5-9.26,4.44-5,8.51-10.09,4.07,5.14,8.49,10.1Zm-10.82-13.08q-4.39-5.76-8.31-11.73-3.92,6-8.32,11.72,4,5.38,8.32,10.57,4.36-5.18,8.32-10.56Zm-10.85-15.72q-3.77,6.35-8.09,12.48-4.31-6.13-8.09-12.49,4.39-7,8.1-14.34,3.7,7.3,8.08,14.35ZM504.7,154.31a173.18,173.18,0,0,1-7.78-20,172.49,172.49,0,0,1-7.8,20q3.48,8,7.79,15.79,4.31-7.74,7.79-15.77ZM730.88,299.88q-5.27-.42-10.48-1-5.17.55-10.39,1c3.45.28,6.91.52,10.4.71q5.27-.28,10.48-.71Zm-10.77-1q-5.21-.56-10.36-1.25-5.16.69-10.37,1.25,5.18.56,10.43,1,5.18-.42,10.31-1Zm-10.71-1.29q-5.12.7-10.31,1.27c-3.44-.37-6.85-.8-10.25-1.27q5.17-.69,10.27-1.52,5.12.83,10.3,1.52ZM698.66,296q-5.14-.84-10.2-1.8-5.08,1-10.23,1.81,5.09.84,10.25,1.54,5.12-.7,10.18-1.54ZM688,294.1q-5,1-10.17,1.84c-3.39-.57-6.76-1.19-10.1-1.84q5.09-1,10.12-2.09,5,1.11,10.16,2.09Zm-10.75-2.22q-5.06-1.12-10-2.39-5,1.26-10.08,2.39,5,1.13,10.1,2.12,5.05-1,10-2.11Zm-10.71-2.56q-5,1.27-10,2.42-5-1.14-10-2.42,5-1.27,10-2.67,5,1.4,10,2.67Zm-10.75-2.89q-5-1.43-9.89-3-4.91,1.56-9.9,3,4.91,1.42,9.91,2.72,5-1.29,9.89-2.71ZM645,283.19q-4.86,1.58-9.81,3-5-1.45-9.85-3,5-1.59,9.83-3.3,4.86,1.71,9.83,3.3Zm-10.73-3.62q-4.92-1.75-9.75-3.62-4.81,1.87-9.72,3.62,4.81,1.74,9.72,3.36,4.92-1.61,9.75-3.36Zm-10.75-4q-4.77,1.9-9.64,3.68-4.88-1.78-9.64-3.69,4.88-1.92,9.64-4,4.77,2,9.64,4Zm-10.73-4.44q-4.84-2.1-9.55-4.34-4.73,2.23-9.57,4.33,4.73,2.09,9.58,4,4.83-1.95,9.55-4Zm-10.74-4.9q-4.67,2.27-9.47,4.4-4.82-2.15-9.53-4.42,4.81-2.29,9.49-4.72,4.69,2.43,9.51,4.74Zm-10.77-5.4q-4.75-2.5-9.37-5.12-4.62,2.63-9.38,5.13,4.62,2.47,9.37,4.8,4.76-2.33,9.38-4.8Zm-10.73-5.91q-4.57,2.68-9.29,5.23-4.71-2.55-9.27-5.23,4.72-2.71,9.28-5.57,4.56,2.85,9.27,5.57Zm-10.74-6.5q-4.67-3-9.17-6.07-4.5,3.1-9.18,6.06,4.5,2.92,9.17,5.7,4.67-2.78,9.18-5.69Zm-10.75-7.17q-4.44,3.17-9.07,6.21-4.62-3-9.06-6.2,4.64-3.24,9.07-6.63,4.43,3.38,9.05,6.62Zm-10.75-7.92q-4.58-3.55-8.93-7.26-4.36,3.7-8.94,7.25,4.36,3.47,8.94,6.79,4.57-3.32,8.94-6.78Zm-10.77-8.82q-4.28,3.8-8.8,7.45-4.52-3.65-8.8-7.46,4.53-3.91,8.8-8,4.27,4.08,8.8,8Zm-10.76-9.92q-4.47-4.37-8.66-8.91-4.19,4.54-8.67,8.91,4.19,4.21,8.65,8.27,4.48-4.05,8.68-8.27ZM516,203.32q-4.09,4.71-8.5,9.25-4.41-4.54-8.5-9.26,4.44-5,8.51-10.09,4.07,5.14,8.49,10.1ZM505.2,190.25q-4.39-5.76-8.31-11.73-3.92,6-8.32,11.72,3.95,5.38,8.32,10.57,4.36-5.18,8.32-10.56Zm-10.85-15.72q-3.77,6.35-8.09,12.48-4.31-6.13-8.09-12.49,4.39-7,8.1-14.34,3.7,7.3,8.08,14.35Zm-10.93-20.22a173.25,173.25,0,0,1-7.79-20,172.62,172.62,0,0,1-7.8,20q3.48,8,7.79,15.79,4.31-7.74,7.8-15.77ZM720.3,300.59q-5.28-.28-10.5-.7-5.25.42-10.55.7,5.35.28,10.75.42,5.17-.14,10.3-.42Zm-10.7-.71q-5.27-.42-10.48-1-5.17.55-10.4,1c3.45.28,6.91.52,10.39.71q5.27-.28,10.49-.7Zm-10.77-1q-5.21-.56-10.36-1.25-5.16.69-10.38,1.25,5.18.56,10.43,1,5.19-.42,10.32-1Zm-10.72-1.29q-5.13.7-10.32,1.26c-3.44-.37-6.85-.8-10.25-1.27q5.17-.69,10.27-1.52,5.11.83,10.29,1.52ZM677.38,296q-5.14-.84-10.22-1.81-5.08,1-10.23,1.81,5.1.84,10.26,1.54,5.13-.7,10.18-1.54Zm-10.72-1.91q-5,1-10.17,1.84c-3.39-.56-6.76-1.19-10.1-1.84q5.09-1,10.11-2.09,5,1.11,10.16,2.09Zm-10.75-2.22q-5.06-1.12-10-2.39-5,1.26-10.08,2.39c3.34.75,6.71,1.45,10.09,2.12q5.05-1,10-2.12Zm-10.71-2.56q-5,1.27-10,2.42-5-1.14-10-2.42,5-1.27,10-2.67c3.31.94,6.65,1.82,10,2.67Zm-10.75-2.89q-5-1.43-9.89-3-4.91,1.55-9.9,3,4.91,1.42,9.9,2.72,5-1.29,9.89-2.71Zm-10.72-3.25q-4.86,1.58-9.81,3-5-1.45-9.84-3,5-1.59,9.83-3.3,4.86,1.71,9.82,3.3ZM613,279.56q-4.92-1.75-9.75-3.62-4.81,1.87-9.72,3.62,4.81,1.74,9.72,3.36,4.92-1.61,9.75-3.35Zm-10.74-4q-4.77,1.91-9.65,3.68-4.88-1.78-9.65-3.69,4.88-1.92,9.65-4,4.77,2.05,9.65,4Zm-10.76-4.45q-4.86-2.11-9.59-4.36-4.73,2.23-9.57,4.33,4.74,2.09,9.61,4.05,4.83-1.95,9.55-4Zm-10.76-4.91q-4.67,2.27-9.47,4.41-4.8-2.14-9.48-4.4,4.81-2.29,9.48-4.72,4.67,2.42,9.46,4.72ZM570,260.81q-4.76-2.5-9.37-5.12-4.62,2.63-9.38,5.13,4.62,2.47,9.37,4.8,4.76-2.33,9.38-4.8Zm-10.73-5.9q-4.57,2.68-9.29,5.23-4.71-2.55-9.27-5.23,4.72-2.71,9.28-5.57,4.56,2.85,9.27,5.57Zm-10.74-6.5q-4.67-3-9.17-6.07-4.5,3.1-9.18,6.06,4.5,2.92,9.17,5.69,4.67-2.78,9.18-5.69Zm-10.75-7.17q-4.44,3.17-9.06,6.21-4.62-3-9.06-6.2,4.63-3.24,9.07-6.63,4.43,3.38,9.05,6.62Zm-10.75-7.92q-4.58-3.55-8.93-7.25-4.36,3.7-8.94,7.25,4.36,3.47,8.94,6.79,4.57-3.32,8.94-6.78Zm-10.77-8.82q-4.28,3.8-8.8,7.45-4.52-3.65-8.8-7.46,4.53-3.91,8.8-8,4.27,4.08,8.8,8Zm-10.76-9.91q-4.47-4.38-8.66-8.91-4.19,4.54-8.67,8.91,4.19,4.21,8.66,8.27,4.48-4.05,8.68-8.27Zm-10.8-11.26q-4.09,4.71-8.5,9.25-4.41-4.54-8.5-9.26,4.44-5,8.51-10.09,4.07,5.14,8.49,10.1Zm-10.82-13.08q-4.39-5.76-8.31-11.73-3.92,6-8.32,11.72,4,5.38,8.32,10.57,4.36-5.18,8.31-10.56Zm-10.85-15.72Q469.29,180.88,465,187q-4.31-6.13-8.09-12.49,4.39-7,8.09-14.34,3.7,7.3,8.08,14.35Zm-10.93-20.22a173.36,173.36,0,0,1-7.78-20,172.3,172.3,0,0,1-7.79,20q3.47,8,7.79,15.79,4.31-7.74,7.79-15.77ZM699,300.59q-5.28-.28-10.5-.7-5.25.41-10.55.7,5.35.29,10.77.42,5.17-.14,10.28-.42Zm-10.7-.71q-5.27-.42-10.48-1-5.17.55-10.39,1c3.44.28,6.9.52,10.38.71q5.27-.28,10.48-.71Zm-10.76-1q-5.21-.56-10.36-1.24-5.15.69-10.37,1.25,5.18.56,10.42,1,5.18-.42,10.31-1Zm-10.7-1.29q-5.12.7-10.31,1.27c-3.44-.38-6.86-.81-10.26-1.27q5.16-.69,10.26-1.52,5.12.83,10.31,1.52ZM656.09,296q-5.14-.84-10.21-1.81-5.08,1-10.23,1.81,5.09.84,10.26,1.54,5.12-.7,10.18-1.54Zm-10.72-1.91q-5,1-10.17,1.84c-3.39-.56-6.75-1.19-10.1-1.84q5.09-1,10.11-2.09,5,1.11,10.15,2.09Zm-10.75-2.22q-5.06-1.13-10-2.39-5,1.26-10.08,2.39,5,1.13,10.1,2.12,5.05-1,10-2.11Zm-10.71-2.56q-5,1.27-10,2.42-5-1.14-10-2.42,5-1.27,10-2.67c3.31.94,6.65,1.82,10,2.67Zm-10.75-2.89q-5-1.43-9.88-3-4.91,1.55-9.9,3,4.9,1.42,9.9,2.72,5-1.29,9.89-2.71Zm-10.71-3.25q-4.86,1.58-9.82,3-5-1.45-9.84-3,5-1.59,9.83-3.3,4.86,1.71,9.82,3.3Zm-10.73-3.63q-4.93-1.75-9.77-3.63-4.81,1.87-9.71,3.62,4.82,1.74,9.73,3.36,4.93-1.61,9.75-3.36Zm-10.77-4q-4.77,1.9-9.64,3.68-4.9-1.79-9.68-3.71,4.88-1.92,9.65-4,4.78,2.06,9.68,4Zm-10.76-4.45q-4.84-2.1-9.55-4.34-4.73,2.23-9.57,4.33,4.72,2.09,9.57,4,4.84-1.95,9.55-4Zm-10.72-4.89q-4.67,2.27-9.47,4.41-4.8-2.14-9.48-4.4,4.81-2.29,9.48-4.72,4.67,2.42,9.46,4.71Zm-10.72-5.37q-4.76-2.5-9.37-5.12-4.62,2.63-9.38,5.13,4.62,2.47,9.37,4.8,4.76-2.33,9.38-4.8ZM538,254.91q-4.57,2.68-9.29,5.23-4.71-2.55-9.27-5.23,4.72-2.71,9.28-5.57,4.56,2.85,9.27,5.57Zm-10.74-6.5q-4.67-3-9.17-6.07-4.5,3.1-9.18,6.06,4.5,2.92,9.16,5.69,4.68-2.78,9.18-5.69Zm-10.75-7.17q-4.44,3.17-9.07,6.21-4.62-3-9.06-6.2,4.64-3.24,9.07-6.62,4.43,3.38,9.05,6.62Zm-10.75-7.92q-4.58-3.55-8.93-7.25-4.36,3.7-8.94,7.25,4.36,3.47,8.94,6.79,4.57-3.32,8.94-6.78ZM495,224.5q-4.28,3.8-8.8,7.45-4.52-3.65-8.8-7.46,4.53-3.91,8.8-8,4.27,4.08,8.8,8Zm-10.76-9.91q-4.47-4.37-8.66-8.91-4.19,4.54-8.67,8.91,4.19,4.21,8.65,8.27,4.48-4.05,8.68-8.27Zm-10.8-11.26q-4.09,4.71-8.5,9.25-4.41-4.54-8.5-9.26,4.44-5,8.51-10.09,4.07,5.14,8.49,10.1Zm-10.82-13.07q-4.39-5.76-8.31-11.73-3.92,6-8.32,11.72,4,5.38,8.32,10.57,4.36-5.18,8.32-10.56Zm-10.85-15.72Q448,180.88,443.69,187q-4.31-6.13-8.08-12.49,4.39-7,8.1-14.34,3.7,7.3,8.08,14.35Zm-10.93-20.22a173.4,173.4,0,0,1-7.78-20,172.5,172.5,0,0,1-7.79,20q3.48,8,7.79,15.79,4.31-7.74,7.79-15.77ZM677.71,300.59q-5.27-.28-10.49-.7-5.24.41-10.54.7,5.35.29,10.76.42,5.16-.14,10.27-.42ZM667,299.88q-5.26-.42-10.47-1-5.16.55-10.39,1c3.44.28,6.9.52,10.38.7q5.26-.28,10.47-.71Zm-10.75-1q-5.22-.56-10.37-1.25-5.16.69-10.37,1.25,5.19.56,10.44,1,5.18-.42,10.3-1Zm-10.72-1.29q-5.12.7-10.31,1.27c-3.44-.38-6.86-.81-10.26-1.27q5.16-.69,10.26-1.52,5.12.83,10.31,1.52ZM634.8,296q-5.14-.84-10.21-1.81-5.08,1-10.23,1.81,5.1.84,10.26,1.54,5.12-.7,10.18-1.54Zm-10.72-1.91q-5.05,1-10.17,1.84c-3.39-.56-6.76-1.19-10.11-1.84q5.1-1,10.12-2.09,5,1.11,10.16,2.09Zm-10.75-2.22q-5.06-1.13-10-2.39-5,1.26-10.09,2.38,5,1.13,10.1,2.12,5.05-1,10-2.11Zm-10.7-2.56q-5,1.28-10,2.42-5-1.14-10-2.42,5-1.27,10-2.67c3.31.94,6.65,1.82,10,2.67Zm-10.75-2.89q-5-1.43-9.89-3-4.91,1.56-9.9,3,4.91,1.43,9.9,2.72,5-1.29,9.89-2.72Zm-10.72-3.25q-4.86,1.58-9.81,3-5-1.45-9.85-3,5-1.59,9.83-3.3,4.87,1.72,9.83,3.3Zm-10.75-3.63q-4.94-1.76-9.79-3.64-4.81,1.87-9.72,3.62,4.83,1.75,9.77,3.37,4.92-1.61,9.75-3.36Zm-10.77-4q-4.77,1.9-9.65,3.68-4.88-1.78-9.64-3.69,4.88-1.92,9.65-4,4.77,2.05,9.64,4Zm-10.73-4.44q-4.84-2.1-9.55-4.34-4.73,2.23-9.57,4.33,4.72,2.09,9.57,4,4.83-1.95,9.55-4Zm-10.72-4.89q-4.67,2.27-9.47,4.41-4.8-2.14-9.48-4.4,4.81-2.29,9.49-4.72,4.67,2.42,9.46,4.72Zm-10.72-5.37q-4.75-2.5-9.37-5.12-4.62,2.63-9.38,5.13,4.62,2.47,9.37,4.8,4.76-2.33,9.38-4.8Zm-10.72-5.9q-4.57,2.68-9.29,5.23-4.71-2.55-9.27-5.23,4.72-2.71,9.28-5.57,4.56,2.85,9.27,5.57ZM506,248.41q-4.67-3-9.17-6.07-4.5,3.1-9.18,6.06,4.5,2.92,9.16,5.7,4.67-2.78,9.18-5.69Zm-10.75-7.17q-4.44,3.17-9.07,6.21-4.62-3-9.06-6.2,4.64-3.24,9.07-6.63,4.43,3.38,9.05,6.62Zm-10.75-7.92q-4.57-3.55-8.93-7.26-4.36,3.7-8.94,7.25,4.36,3.47,8.94,6.79,4.57-3.32,8.94-6.78Zm-10.77-8.82q-4.28,3.8-8.8,7.45-4.51-3.65-8.8-7.46,4.53-3.91,8.8-8,4.27,4.08,8.8,8ZM463,214.58q-4.48-4.38-8.66-8.91-4.19,4.54-8.67,8.91,4.19,4.21,8.65,8.27,4.48-4.05,8.68-8.27Zm-10.8-11.26q-4.09,4.71-8.5,9.25-4.41-4.54-8.5-9.26,4.44-5,8.51-10.09,4.07,5.14,8.49,10.1Zm-10.82-13.08Q437,184.49,433,178.51q-3.92,6-8.32,11.72,3.95,5.38,8.32,10.57,4.36-5.18,8.32-10.56ZM430.5,174.53q-3.77,6.35-8.09,12.48-4.31-6.13-8.09-12.49,4.39-7,8.1-14.34,3.7,7.3,8.08,14.35Zm-10.93-20.22a173,173,0,0,1-7.78-20,172.62,172.62,0,0,1-7.8,20q3.48,8,7.79,15.79,4.31-7.74,7.79-15.77ZM656.45,300.59q-5.27-.28-10.49-.69-5.24.41-10.53.7,5.34.28,10.74.42,5.16-.14,10.27-.42Zm-10.68-.71q-5.27-.42-10.49-1-5.17.55-10.39,1c3.45.28,6.92.52,10.41.71q5.26-.28,10.47-.71Zm-10.78-1q-5.22-.56-10.37-1.25-5.16.69-10.38,1.25,5.19.56,10.44,1,5.18-.42,10.31-1Zm-10.73-1.3q-5.13.7-10.32,1.26c-3.44-.38-6.86-.81-10.27-1.27q5.17-.69,10.27-1.52,5.12.83,10.31,1.52ZM613.51,296q-5.15-.84-10.22-1.81-5.08,1-10.24,1.81,5.1.84,10.27,1.54,5.13-.7,10.19-1.54Zm-10.73-1.91q-5.05,1-10.18,1.84c-3.39-.57-6.76-1.19-10.1-1.84q5.1-1,10.12-2.09,5,1.11,10.16,2.09ZM592,291.87q-5.06-1.12-10-2.39-5,1.26-10.08,2.39,5,1.13,10.08,2.11,5.05-1,10-2.11Zm-10.7-2.56q-5,1.27-10,2.42-5-1.14-10-2.42,5-1.27,9.95-2.67c3.31.94,6.65,1.82,10,2.67Zm-10.75-2.89q-5-1.43-9.89-3-4.91,1.55-9.9,3,4.91,1.43,9.91,2.72,5-1.29,9.88-2.72Zm-10.74-3.26q-4.86,1.58-9.81,3-5-1.46-9.89-3,5-1.59,9.85-3.3,4.88,1.72,9.86,3.32Zm-10.76-3.64q-4.92-1.75-9.75-3.62-4.81,1.87-9.72,3.62,4.81,1.74,9.72,3.36,4.93-1.61,9.76-3.35Zm-10.74-4q-4.77,1.9-9.65,3.68-4.88-1.78-9.64-3.69,4.88-1.92,9.65-4,4.77,2.05,9.64,4Zm-10.73-4.44q-4.84-2.1-9.55-4.34-4.73,2.23-9.57,4.33,4.72,2.09,9.57,4,4.83-1.95,9.55-4Zm-10.72-4.89q-4.67,2.27-9.47,4.41-4.8-2.14-9.48-4.4,4.81-2.29,9.49-4.72,4.67,2.42,9.46,4.71Zm-10.72-5.37q-4.75-2.5-9.37-5.12-4.62,2.63-9.38,5.13,4.62,2.47,9.37,4.8,4.76-2.33,9.38-4.8Zm-10.72-5.91q-4.57,2.68-9.29,5.23-4.71-2.55-9.27-5.23,4.72-2.71,9.28-5.57,4.55,2.85,9.27,5.57Zm-10.74-6.5q-4.67-3-9.17-6.07-4.5,3.1-9.18,6.06,4.5,2.92,9.16,5.69,4.67-2.78,9.18-5.69ZM474,241.24q-4.44,3.17-9.07,6.21-4.62-3-9.06-6.2,4.64-3.24,9.07-6.63,4.43,3.38,9.05,6.62Zm-10.75-7.93q-4.57-3.55-8.93-7.25-4.36,3.7-8.95,7.25,4.36,3.47,8.94,6.79,4.57-3.32,8.94-6.78Zm-10.77-8.82q-4.28,3.8-8.8,7.45-4.52-3.65-8.8-7.46,4.53-3.91,8.8-8,4.27,4.08,8.8,8Zm-10.76-9.91q-4.47-4.37-8.66-8.91-4.19,4.54-8.68,8.91,4.19,4.21,8.66,8.27,4.48-4.05,8.68-8.27Zm-10.8-11.26q-4.09,4.71-8.5,9.25-4.41-4.54-8.5-9.26,4.44-5,8.51-10.09,4.07,5.14,8.49,10.1Zm-10.82-13.08q-4.39-5.76-8.31-11.73-3.92,6-8.32,11.72,4,5.38,8.32,10.57,4.36-5.18,8.31-10.56Zm-10.85-15.72q-3.77,6.35-8.09,12.48-4.31-6.13-8.09-12.49,4.39-7,8.1-14.34,3.7,7.3,8.08,14.35Zm-10.93-20.22a173,173,0,0,1-7.78-20,172.71,172.71,0,0,1-7.8,20q3.48,8,7.79,15.79,4.31-7.74,7.79-15.77ZM635.19,300.59q-5.29-.28-10.52-.7-5.25.41-10.56.69,5.36.29,10.79.42,5.17-.14,10.29-.42Zm-10.72-.71q-5.28-.42-10.5-1-5.17.55-10.4,1c3.45.28,6.92.52,10.41.71q5.27-.28,10.49-.7Zm-10.79-1q-5.22-.56-10.37-1.25-5.16.69-10.38,1.25,5.19.56,10.44,1,5.19-.42,10.32-1Zm-10.73-1.3q-5.13.7-10.32,1.27c-3.44-.38-6.86-.81-10.26-1.27q5.17-.69,10.27-1.52,5.12.83,10.31,1.52ZM592.19,296q-5.14-.84-10.21-1.81-5.08,1-10.23,1.81,5.1.84,10.26,1.54,5.12-.7,10.18-1.54Zm-10.71-1.91q-5.05,1-10.17,1.84c-3.39-.56-6.74-1.19-10.08-1.84q5.09-1,10.11-2.09,5,1.11,10.14,2.09Zm-10.74-2.22q-5.06-1.12-10-2.39-5,1.26-10.08,2.39,5,1.13,10.09,2.11,5.05-1,10-2.12ZM560,289.31q-5,1.27-10,2.42-5-1.14-10-2.42,5-1.27,10-2.67c3.31.94,6.66,1.82,10,2.67Zm-10.77-2.89q-5-1.44-9.94-3-4.91,1.55-9.91,3,4.94,1.43,10,2.74,5-1.29,9.89-2.72Zm-10.75-3.26q-4.86,1.58-9.82,3-5-1.45-9.84-3,5-1.59,9.85-3.3,4.86,1.72,9.82,3.3Zm-10.72-3.62q-4.92-1.75-9.76-3.62-4.81,1.87-9.72,3.62,4.81,1.74,9.72,3.36,4.93-1.61,9.76-3.35Zm-10.74-4q-4.77,1.91-9.65,3.68-4.88-1.78-9.64-3.69,4.88-1.92,9.65-4,4.77,2.05,9.64,4Zm-10.73-4.44q-4.84-2.1-9.55-4.34-4.73,2.23-9.57,4.33,4.72,2.09,9.57,4,4.84-1.95,9.55-4Zm-10.72-4.89q-4.67,2.27-9.47,4.41-4.8-2.14-9.48-4.4,4.81-2.29,9.49-4.72,4.67,2.42,9.47,4.72Zm-10.72-5.37q-4.76-2.5-9.37-5.12-4.62,2.63-9.38,5.13,4.62,2.47,9.37,4.8,4.76-2.33,9.38-4.8Zm-10.73-5.91q-4.57,2.68-9.29,5.23-4.71-2.55-9.27-5.23,4.72-2.71,9.28-5.57,4.56,2.85,9.27,5.57Zm-10.74-6.5q-4.67-3-9.17-6.07-4.5,3.1-9.18,6.06,4.5,2.92,9.17,5.7,4.67-2.78,9.18-5.69Zm-10.75-7.17q-4.44,3.17-9.07,6.21-4.62-3-9.06-6.2,4.64-3.24,9.07-6.63,4.43,3.38,9.05,6.62Zm-10.75-7.92q-4.58-3.55-8.93-7.25-4.36,3.7-8.94,7.25,4.36,3.47,8.94,6.79,4.57-3.32,8.94-6.78Zm-10.77-8.82q-4.28,3.8-8.8,7.45-4.52-3.65-8.8-7.46,4.53-3.91,8.8-8,4.27,4.08,8.8,8Zm-10.76-9.91q-4.47-4.37-8.66-8.91-4.19,4.54-8.67,8.91,4.19,4.21,8.65,8.27,4.48-4.05,8.68-8.27Zm-10.8-11.26q-4.09,4.71-8.5,9.25-4.41-4.54-8.5-9.26,4.44-5,8.51-10.09,4.06,5.14,8.49,10.1Zm-10.82-13.08q-4.39-5.76-8.31-11.73-3.92,6-8.32,11.72,4,5.38,8.32,10.57,4.36-5.18,8.32-10.56Zm-10.85-15.72q-3.77,6.35-8.09,12.48-4.31-6.13-8.09-12.49,4.39-7,8.1-14.34,3.7,7.3,8.08,14.35ZM377,154.31a173.21,173.21,0,0,1-7.78-20,172.44,172.44,0,0,1-7.8,20q3.48,8,7.79,15.79,4.31-7.74,7.79-15.77ZM613.87,300.59q-5.29-.28-10.52-.7-5.25.41-10.55.7,5.37.29,10.8.42,5.16-.14,10.27-.42Zm-10.72-.71q-5.27-.42-10.49-1-5.17.55-10.4,1c3.45.28,6.91.52,10.4.71q5.27-.28,10.49-.71Zm-10.79-1q-5.22-.56-10.37-1.25-5.16.69-10.38,1.25,5.19.56,10.44,1,5.18-.42,10.31-1Zm-10.72-1.3q-5.13.7-10.32,1.27c-3.44-.38-6.85-.81-10.25-1.27q5.16-.69,10.26-1.52,5.12.83,10.31,1.52ZM570.9,296q-5.13-.84-10.19-1.81-5.08,1-10.23,1.81,5.09.84,10.24,1.54,5.12-.7,10.18-1.54Zm-10.7-1.9q-5,1-10.17,1.84c-3.39-.56-6.75-1.19-10.09-1.84q5.09-1,10.11-2.09,5,1.11,10.15,2.09Zm-10.74-2.22q-5.07-1.13-10-2.39-5,1.26-10.08,2.39,5,1.13,10.11,2.12,5.05-1,10-2.12Zm-10.73-2.56q-5,1.27-10,2.42-5.07-1.15-10.05-2.44,5-1.27,10-2.67c3.33.95,6.7,1.84,10.09,2.7Zm-10.8-2.9q-5-1.43-9.88-3-4.91,1.56-9.91,3,4.9,1.43,9.89,2.72,5-1.29,9.9-2.72Zm-10.69-3.25q-4.86,1.58-9.83,3-5-1.45-9.84-3,5-1.59,9.85-3.3,4.86,1.72,9.82,3.3Zm-10.72-3.62q-4.92-1.75-9.75-3.62-4.81,1.87-9.72,3.62,4.81,1.74,9.72,3.36,4.93-1.61,9.76-3.35Zm-10.74-4q-4.77,1.9-9.65,3.68-4.88-1.78-9.64-3.69,4.88-1.92,9.65-4,4.77,2.05,9.64,4Zm-10.73-4.44q-4.84-2.1-9.55-4.34-4.73,2.23-9.57,4.33,4.72,2.09,9.57,4,4.83-1.95,9.55-4Zm-10.72-4.89q-4.67,2.27-9.47,4.41-4.8-2.14-9.48-4.4,4.81-2.29,9.49-4.72,4.67,2.42,9.47,4.72Zm-10.72-5.37q-4.75-2.5-9.37-5.12-4.62,2.63-9.38,5.13,4.62,2.47,9.37,4.8,4.76-2.33,9.38-4.8Zm-10.73-5.91q-4.57,2.68-9.29,5.23-4.71-2.55-9.27-5.23,4.72-2.71,9.28-5.57,4.56,2.85,9.27,5.57Zm-10.74-6.5q-4.67-3-9.17-6.07-4.5,3.1-9.18,6.06,4.5,2.92,9.16,5.69,4.67-2.78,9.18-5.69Zm-10.75-7.17q-4.44,3.17-9.06,6.21-4.62-3-9.06-6.2,4.63-3.24,9.07-6.63,4.43,3.38,9.05,6.62Zm-10.75-7.92q-4.58-3.55-8.93-7.25-4.36,3.7-8.94,7.25,4.36,3.47,8.94,6.79,4.57-3.32,8.94-6.78Zm-10.77-8.82q-4.28,3.8-8.8,7.44-4.52-3.65-8.8-7.46,4.53-3.91,8.8-8,4.27,4.08,8.8,8Zm-10.76-9.92q-4.47-4.37-8.66-8.91-4.19,4.54-8.67,8.91,4.19,4.21,8.65,8.27,4.48-4.05,8.68-8.27Zm-10.8-11.26q-4.09,4.71-8.5,9.25-4.41-4.54-8.5-9.26,4.44-5,8.51-10.09,4.07,5.14,8.49,10.1ZM377.5,190.25q-4.39-5.76-8.31-11.73-3.92,6-8.32,11.72,4,5.38,8.32,10.57,4.36-5.18,8.32-10.56Zm-10.85-15.72q-3.77,6.35-8.09,12.48-4.31-6.13-8.09-12.49,4.39-7,8.1-14.34,3.7,7.3,8.08,14.35Zm-10.93-20.22a173.19,173.19,0,0,1-7.79-20,172.3,172.3,0,0,1-7.8,20q3.48,8,7.79,15.79,4.31-7.74,7.79-15.77ZM592.56,300.59q-5.28-.28-10.51-.7-5.25.41-10.55.7c3.58.19,7.18.32,10.8.42q5.15-.14,10.26-.42Zm-10.72-.71q-5.22.42-10.49.71c-3.48-.19-6.95-.43-10.39-.71q5.23-.42,10.39-1,5.21.55,10.49,1Zm-10.78-1q-5.21-.56-10.36-1.25-5.16.69-10.37,1.25,5.18.56,10.43,1,5.18-.42,10.31-1Zm-10.71-1.3q-5.13.7-10.31,1.27c-3.43-.37-6.84-.8-10.23-1.27q5.16-.69,10.26-1.52,5.11.83,10.29,1.52ZM549.63,296q-5.13-.84-10.2-1.81-5.08,1-10.23,1.81,5.09.84,10.25,1.54,5.12-.7,10.18-1.54Zm-10.7-1.91q-5,1-10.17,1.84c-3.4-.57-6.77-1.19-10.12-1.84q5.1-1,10.12-2.09,5,1.11,10.17,2.09Zm-10.79-2.22Q523,290.72,518,289.45q-5,1.25-10.09,2.39Q513,293,518.09,294q5.06-1,10-2.11Zm-10.78-2.58q-5,1.27-10,2.42-5-1.14-10-2.42,5-1.27,10-2.67c3.3.94,6.65,1.82,10,2.67Zm-10.72-2.88q-5-1.43-9.88-3-4.91,1.55-9.91,3,4.9,1.43,9.89,2.72,5-1.29,9.9-2.72Zm-10.69-3.25q-4.87,1.58-9.83,3-5-1.45-9.84-3,5-1.59,9.85-3.3,4.86,1.71,9.82,3.3Zm-10.72-3.62q-4.92-1.75-9.75-3.62-4.81,1.87-9.72,3.62,4.81,1.74,9.72,3.36,4.93-1.61,9.76-3.35Zm-10.74-4q-4.77,1.9-9.65,3.68-4.88-1.78-9.64-3.69,4.88-1.92,9.65-4,4.77,2.05,9.64,4Zm-10.73-4.44q-4.84-2.1-9.55-4.34-4.73,2.23-9.57,4.33,4.72,2.09,9.57,4,4.83-1.95,9.55-4Zm-10.72-4.89q-4.67,2.27-9.47,4.41-4.8-2.14-9.48-4.4,4.81-2.29,9.49-4.72,4.67,2.42,9.46,4.71Zm-10.72-5.37q-4.76-2.5-9.37-5.12-4.62,2.63-9.38,5.13,4.62,2.47,9.37,4.8,4.76-2.33,9.38-4.8Zm-10.72-5.91q-4.57,2.68-9.29,5.23-4.71-2.55-9.27-5.23,4.72-2.71,9.28-5.57,4.56,2.85,9.28,5.57Zm-10.74-6.5q-4.67-3-9.17-6.07-4.5,3.1-9.18,6.06,4.5,2.92,9.17,5.7,4.67-2.78,9.18-5.69Zm-10.75-7.17q-4.44,3.17-9.07,6.21-4.62-3-9.06-6.2,4.64-3.24,9.07-6.63,4.43,3.38,9.05,6.62Zm-10.75-7.92q-4.58-3.55-8.93-7.26-4.36,3.7-8.94,7.25,4.36,3.47,8.94,6.79,4.57-3.32,8.94-6.78ZM388.6,224.5q-4.28,3.8-8.8,7.45-4.52-3.65-8.8-7.46,4.53-3.91,8.8-8,4.27,4.08,8.8,8Zm-10.76-9.92q-4.47-4.37-8.66-8.91-4.19,4.54-8.67,8.91,4.19,4.21,8.65,8.27,4.48-4.05,8.68-8.27ZM367,203.32q-4.09,4.71-8.5,9.25-4.41-4.54-8.5-9.26,4.44-5,8.51-10.09,4.07,5.14,8.49,10.1Zm-10.82-13.08q-4.39-5.76-8.31-11.73-3.92,6-8.32,11.72,4,5.38,8.32,10.57,4.36-5.18,8.32-10.56Zm-10.85-15.72q-3.77,6.35-8.09,12.48-4.31-6.13-8.09-12.49,4.39-7,8.1-14.34,3.7,7.3,8.08,14.35Zm-10.93-20.22a173.21,173.21,0,0,1-7.78-20,172.56,172.56,0,0,1-7.8,20q3.47,8,7.79,15.79,4.31-7.74,7.79-15.77ZM571.25,300.59q-5.28-.28-10.5-.7-5.25.41-10.55.7,5.37.29,10.79.42,5.15-.14,10.26-.42Zm-10.7-.71q-5.22.42-10.49.71c-3.48-.19-6.94-.43-10.38-.71q5.22-.42,10.39-1,5.21.55,10.48,1Zm-10.76-1q-5.2-.56-10.34-1.25-5.15.69-10.37,1.25,5.17.56,10.41,1,5.18-.42,10.31-1Zm-10.69-1.29q-5.13.7-10.31,1.27c-3.44-.38-6.85-.81-10.25-1.27q5.17-.69,10.27-1.52,5.12.83,10.3,1.52ZM528.35,296q-5.15-.84-10.23-1.81-5.09,1-10.25,1.81,5.11.84,10.29,1.55,5.13-.7,10.18-1.54Zm-10.78-1.92q-5.06,1-10.19,1.84c-3.42-.57-6.81-1.2-10.18-1.86q5.1-1,10.12-2.09,5.09,1.12,10.25,2.11Zm-10.83-2.24q-5.06-1.13-10-2.39-5,1.25-10.09,2.39,5,1.13,10.08,2.12,5.06-1,10-2.12Zm-10.67-2.55q-5,1.27-10,2.42-5-1.14-10-2.42,5-1.27,10-2.67c3.3.94,6.65,1.82,10,2.67Zm-10.72-2.88q-5-1.43-9.88-3-4.91,1.56-9.91,3,4.9,1.43,9.89,2.72,5-1.29,9.9-2.72Zm-10.69-3.25q-4.87,1.58-9.83,3-5-1.45-9.84-3,5-1.59,9.85-3.3,4.86,1.71,9.82,3.3ZM464,279.53q-4.92-1.75-9.76-3.62-4.81,1.87-9.72,3.62,4.81,1.74,9.72,3.36,4.93-1.61,9.76-3.35Zm-10.74-4q-4.77,1.9-9.65,3.68-4.88-1.78-9.64-3.69,4.88-1.92,9.65-4,4.77,2,9.64,4Zm-10.73-4.44q-4.84-2.1-9.55-4.34-4.73,2.23-9.57,4.33,4.72,2.09,9.57,4,4.83-1.95,9.55-4Zm-10.72-4.89q-4.67,2.27-9.47,4.41-4.8-2.14-9.48-4.4,4.81-2.29,9.49-4.72,4.67,2.42,9.47,4.72ZM421,260.81q-4.76-2.5-9.37-5.12-4.62,2.63-9.38,5.13,4.62,2.47,9.37,4.8,4.76-2.33,9.38-4.8Zm-10.72-5.9q-4.57,2.68-9.29,5.23-4.71-2.55-9.27-5.23,4.72-2.71,9.28-5.57,4.56,2.85,9.27,5.57Zm-10.74-6.5q-4.67-3-9.17-6.07-4.5,3.1-9.18,6.06,4.5,2.92,9.16,5.69,4.67-2.78,9.18-5.69Zm-10.75-7.17q-4.44,3.17-9.06,6.21-4.62-3-9.06-6.2,4.63-3.24,9.07-6.63,4.43,3.38,9.05,6.62Zm-10.75-7.92q-4.58-3.55-8.93-7.25-4.36,3.7-8.94,7.25,4.36,3.47,8.94,6.79,4.57-3.32,8.94-6.78Zm-10.77-8.82q-4.28,3.8-8.8,7.45-4.52-3.65-8.8-7.46,4.53-3.91,8.8-8,4.27,4.08,8.8,8Zm-10.76-9.92q-4.47-4.37-8.66-8.91-4.19,4.54-8.68,8.91,4.19,4.21,8.66,8.27,4.48-4.05,8.68-8.27Zm-10.79-11.26q-4.09,4.71-8.5,9.25-4.41-4.54-8.5-9.26,4.44-5,8.51-10.09,4.07,5.14,8.49,10.1Zm-10.82-13.07q-4.39-5.76-8.31-11.73-3.92,6-8.32,11.72,4,5.38,8.32,10.57,4.36-5.18,8.32-10.56Zm-10.85-15.72Q320.31,180.88,316,187q-4.31-6.13-8.09-12.49,4.39-7,8.1-14.34,3.7,7.3,8.08,14.35Zm-10.93-20.22a173,173,0,0,1-7.78-20,172.69,172.69,0,0,1-7.8,20q3.47,8,7.79,15.79,4.31-7.74,7.79-15.77ZM550,300.59q-5.27-.28-10.49-.7-5.25.41-10.55.7,5.35.29,10.76.42,5.16-.14,10.28-.42Zm-10.69-.71q-5.22.42-10.49.71c-3.47-.19-6.92-.43-10.36-.71q5.23-.42,10.39-1,5.2.55,10.46,1Zm-10.74-1q-5.21-.56-10.36-1.25-5.16.69-10.38,1.25,5.18.56,10.43,1,5.18-.42,10.31-1Zm-10.72-1.3q-5.13.7-10.33,1.27c-3.46-.38-6.89-.81-10.3-1.28q5.17-.69,10.28-1.52,5.15.83,10.36,1.53ZM507,296q-5.18-.85-10.29-1.83c-3.39.65-6.81,1.26-10.25,1.81q5.14.85,10.35,1.56,5.13-.7,10.19-1.54Zm-10.78-1.92q-5.06,1-10.18,1.84c-3.39-.57-6.75-1.19-10.09-1.84q5.1-1,10.12-2.09,5,1.11,10.15,2.09Zm-10.73-2.22q-5.06-1.13-10-2.39-5,1.25-10.09,2.39,5,1.13,10.08,2.12,5.06-1,10-2.12Zm-10.67-2.55q-5,1.27-10,2.42-5-1.14-10-2.42,5-1.27,10-2.67c3.3.94,6.65,1.82,10,2.67Zm-10.72-2.88q-5-1.43-9.88-3-4.91,1.55-9.91,3,4.9,1.43,9.89,2.72,5-1.29,9.9-2.72Zm-10.69-3.25q-4.87,1.58-9.82,3-5-1.45-9.84-3,5-1.59,9.85-3.3,4.86,1.71,9.82,3.3Zm-10.72-3.62q-4.92-1.75-9.75-3.62-4.81,1.87-9.72,3.62,4.81,1.74,9.72,3.36,4.93-1.61,9.76-3.35Zm-10.74-4q-4.77,1.9-9.65,3.68-4.88-1.78-9.64-3.69,4.88-1.92,9.65-4,4.77,2.05,9.64,4Zm-10.73-4.44q-4.84-2.1-9.55-4.34-4.73,2.23-9.57,4.33,4.72,2.09,9.57,4,4.83-1.95,9.55-4Zm-10.72-4.89q-4.67,2.27-9.47,4.41-4.8-2.14-9.48-4.4,4.81-2.29,9.49-4.72,4.67,2.42,9.46,4.71Zm-10.72-5.37q-4.76-2.5-9.37-5.12-4.62,2.63-9.38,5.13,4.62,2.47,9.37,4.8,4.76-2.33,9.38-4.8ZM389,254.91q-4.57,2.68-9.29,5.23-4.71-2.55-9.27-5.23,4.72-2.71,9.28-5.57,4.56,2.85,9.27,5.57Zm-10.74-6.5q-4.67-3-9.17-6.07-4.5,3.1-9.18,6.06,4.5,2.92,9.16,5.69,4.67-2.78,9.18-5.69Zm-10.75-7.17q-4.44,3.17-9.07,6.21-4.62-3-9.06-6.2,4.63-3.24,9.07-6.62,4.43,3.38,9.05,6.62Zm-10.75-7.92q-4.58-3.55-8.93-7.25-4.36,3.7-8.95,7.25,4.36,3.47,8.94,6.79,4.57-3.32,8.94-6.78ZM346,224.5q-4.28,3.8-8.8,7.45-4.51-3.65-8.8-7.46,4.53-3.91,8.8-8,4.27,4.08,8.8,8Zm-10.76-9.91q-4.47-4.37-8.66-8.91-4.19,4.54-8.67,8.91,4.19,4.21,8.65,8.27,4.48-4.05,8.68-8.27Zm-10.8-11.26q-4.09,4.71-8.5,9.25-4.41-4.54-8.5-9.26,4.44-5,8.51-10.09,4.07,5.14,8.49,10.1Zm-10.82-13.08q-4.39-5.76-8.31-11.73-3.92,6-8.32,11.72,3.95,5.38,8.32,10.57,4.36-5.18,8.32-10.56ZM302.8,174.53Q299,180.88,294.71,187q-4.31-6.13-8.09-12.49,4.39-7,8.1-14.34,3.7,7.3,8.08,14.35Zm-10.93-20.22a173,173,0,0,1-7.78-20,172.73,172.73,0,0,1-7.8,20q3.48,8,7.78,15.79,4.31-7.74,7.8-15.77ZM528.68,300.59q-5.26-.28-10.47-.69-5.25.41-10.56.7c3.55.19,7.13.32,10.72.42q5.18-.14,10.31-.42ZM518,299.87q-5.22.42-10.5.71c-3.49-.19-6.95-.43-10.4-.71q5.24-.42,10.41-1,5.21.55,10.49,1Zm-10.8-1q-5.24-.56-10.41-1.25-5.17.69-10.39,1.25,5.21.56,10.48,1,5.19-.42,10.33-1Zm-10.8-1.31q-5.14.7-10.34,1.27c-3.46-.38-6.9-.81-10.32-1.28,3.45-.46,6.86-1,10.27-1.53q5.16.84,10.39,1.54ZM485.6,296q-5.14-.84-10.2-1.81c-3.39.65-6.81,1.26-10.25,1.81q5.09.84,10.26,1.54c3.42-.47,6.81-1,10.18-1.54Zm-10.69-1.91c-3.37.65-6.76,1.27-10.18,1.84-3.39-.57-6.75-1.19-10.09-1.84q5.1-1,10.12-2.09,5,1.11,10.15,2.09Zm-10.73-2.22q-5.06-1.13-10-2.39-5,1.25-10.09,2.39,5,1.13,10.08,2.12,5.06-1,10-2.12Zm-10.67-2.55q-5,1.27-10,2.42-5-1.14-10-2.42,5-1.27,10-2.67c3.3.94,6.65,1.82,10,2.67Zm-10.72-2.88q-5-1.43-9.88-3-4.91,1.56-9.91,3,4.9,1.43,9.89,2.72,5-1.29,9.9-2.72Zm-10.69-3.25q-4.87,1.58-9.83,3-5-1.45-9.84-3,5-1.59,9.85-3.3,4.86,1.72,9.82,3.3Zm-10.72-3.62q-4.92-1.75-9.75-3.62-4.81,1.87-9.72,3.62,4.81,1.74,9.72,3.36,4.93-1.61,9.76-3.35Zm-10.74-4q-4.77,1.9-9.65,3.68-4.88-1.78-9.64-3.69,4.88-1.92,9.65-4,4.77,2.05,9.64,4Zm-10.73-4.44q-4.84-2.1-9.55-4.34-4.73,2.23-9.57,4.33,4.72,2.09,9.57,4,4.83-1.95,9.55-4Zm-10.72-4.89q-4.67,2.27-9.47,4.41-4.8-2.14-9.48-4.4,4.81-2.29,9.49-4.72,4.67,2.42,9.47,4.72Zm-10.73-5.37q-4.75-2.5-9.37-5.12-4.62,2.63-9.38,5.13,4.62,2.47,9.37,4.8,4.76-2.33,9.38-4.8Zm-10.72-5.9q-4.57,2.68-9.29,5.23-4.71-2.55-9.27-5.23,4.72-2.71,9.28-5.57,4.55,2.85,9.27,5.57ZM357,248.41q-4.67-3-9.17-6.07-4.5,3.1-9.18,6.06,4.5,2.92,9.16,5.7,4.67-2.78,9.18-5.69Zm-10.75-7.17q-4.44,3.17-9.07,6.21-4.62-3-9.06-6.2,4.64-3.24,9.07-6.63,4.43,3.38,9.05,6.62Zm-10.75-7.92q-4.57-3.55-8.93-7.25-4.36,3.7-8.94,7.25,4.36,3.47,8.94,6.79,4.57-3.32,8.94-6.78Zm-10.77-8.82q-4.28,3.8-8.8,7.45-4.52-3.65-8.8-7.46,4.53-3.91,8.8-8,4.27,4.08,8.8,8ZM314,214.58q-4.47-4.38-8.66-8.91-4.19,4.54-8.67,8.91,4.19,4.21,8.66,8.27,4.48-4.05,8.68-8.27Zm-10.8-11.26q-4.09,4.71-8.5,9.25-4.41-4.54-8.5-9.26,4.44-5,8.51-10.09,4.07,5.14,8.49,10.1Zm-10.82-13.08q-4.39-5.76-8.31-11.73-3.92,6-8.32,11.72,4,5.38,8.32,10.57,4.36-5.18,8.32-10.56Zm-10.85-15.72q-3.77,6.35-8.09,12.48-4.31-6.13-8.09-12.49,4.39-7,8.1-14.34,3.7,7.3,8.08,14.35Zm-10.93-20.22a173.1,173.1,0,0,1-7.78-20,172.55,172.55,0,0,1-7.8,20q3.48,8,7.79,15.79,4.31-7.74,7.79-15.77ZM507.4,300.59q-5.28-.28-10.51-.7-5.27.41-10.59.7c3.57.19,7.15.32,10.75.42q5.2-.14,10.34-.42Zm-10.73-.72q-5.24.42-10.52.71c-3.49-.19-7-.43-10.41-.71q5.23-.41,10.4-1,5.23.56,10.53,1Zm-10.86-1q-5.25-.56-10.43-1.26c-3.45.46-6.91.89-10.39,1.25,3.48.38,7,.7,10.51,1,3.46-.28,6.89-.61,10.31-1ZM475,297.56c-3.43.46-6.87.9-10.33,1.27-3.44-.38-6.85-.81-10.24-1.27,3.44-.46,6.86-1,10.27-1.53q5.12.83,10.31,1.53ZM464.32,296q-5.13-.84-10.2-1.81c-3.39.65-6.8,1.26-10.24,1.81q5.09.84,10.26,1.54c3.42-.47,6.81-1,10.18-1.54Zm-10.69-1.91q-5.06,1-10.18,1.84c-3.39-.57-6.75-1.19-10.09-1.84q5.1-1,10.12-2.09,5,1.11,10.15,2.09Zm-10.73-2.22q-5.06-1.13-10-2.39-5,1.25-10.09,2.39,5,1.13,10.08,2.12,5.06-1,10-2.12Zm-10.67-2.55q-5,1.27-10,2.42-5-1.14-10-2.42,5-1.27,10-2.67c3.3.94,6.65,1.82,10,2.67Zm-10.72-2.88q-5-1.43-9.88-3-4.91,1.55-9.91,3,4.9,1.43,9.89,2.72,5-1.29,9.9-2.72Zm-10.69-3.25q-4.87,1.58-9.83,3-5-1.45-9.84-3,5-1.59,9.85-3.3,4.86,1.72,9.82,3.3Zm-10.72-3.62q-4.93-1.75-9.76-3.62-4.81,1.87-9.72,3.62,4.81,1.74,9.72,3.36,4.93-1.61,9.76-3.35Zm-10.74-4q-4.77,1.9-9.65,3.68-4.88-1.78-9.64-3.69,4.88-1.92,9.65-4,4.77,2.05,9.64,4Zm-10.73-4.44q-4.84-2.1-9.55-4.34-4.73,2.23-9.57,4.33,4.72,2.09,9.57,4,4.84-1.95,9.55-4Zm-10.72-4.89q-4.67,2.27-9.47,4.41-4.8-2.14-9.48-4.4,4.81-2.29,9.48-4.72,4.67,2.42,9.46,4.71Zm-10.72-5.37q-4.75-2.5-9.37-5.12-4.62,2.63-9.38,5.13,4.62,2.47,9.37,4.8,4.76-2.33,9.38-4.8Zm-10.72-5.91q-4.57,2.68-9.29,5.23-4.71-2.55-9.27-5.23,4.72-2.71,9.28-5.57,4.56,2.85,9.28,5.57Zm-10.74-6.5q-4.67-3-9.17-6.07-4.5,3.1-9.18,6.06,4.5,2.92,9.17,5.69,4.67-2.78,9.18-5.69ZM325,241.24q-4.44,3.17-9.07,6.21-4.62-3-9.06-6.2,4.63-3.24,9.07-6.63,4.43,3.38,9.05,6.62Zm-10.75-7.92q-4.58-3.55-8.93-7.25-4.36,3.7-8.94,7.25,4.36,3.47,8.94,6.79,4.57-3.32,8.94-6.78Zm-10.77-8.82q-4.28,3.8-8.8,7.44-4.52-3.65-8.8-7.46,4.53-3.91,8.8-8,4.27,4.08,8.8,8Zm-10.76-9.92q-4.47-4.37-8.66-8.91-4.19,4.54-8.67,8.91,4.19,4.21,8.65,8.27,4.48-4.05,8.68-8.27Zm-10.8-11.26q-4.09,4.71-8.5,9.25-4.41-4.54-8.5-9.26,4.44-5,8.51-10.09,4.07,5.14,8.49,10.1Zm-10.82-13.07q-4.39-5.76-8.31-11.73-3.92,6-8.32,11.72,3.95,5.38,8.32,10.57,4.36-5.18,8.32-10.56Zm-10.85-15.72q-3.77,6.35-8.09,12.48-4.31-6.13-8.09-12.49,4.39-7,8.1-14.34,3.7,7.3,8.08,14.35Zm-10.93-20.22a172.94,172.94,0,0,1-7.78-20,172.52,172.52,0,0,1-7.8,20q3.48,8,7.79,15.79,4.31-7.74,7.8-15.77ZM486,300.58c-3.52-.19-7-.43-10.51-.7-3.51.28-7,.51-10.58.7,3.58.19,7.18.32,10.8.42q5.18-.14,10.3-.42Zm-10.75-.72c-3.49.28-7,.52-10.51.71-3.5-.19-7-.44-10.43-.72,3.48-.27,6.94-.61,10.39-1q5.25.56,10.55,1Zm-10.83-1q-5.21-.56-10.35-1.25c-3.45.46-6.91.89-10.39,1.25,3.46.38,6.94.7,10.44,1,3.46-.28,6.89-.62,10.3-1Zm-10.69-1.3c-3.42.46-6.86.9-10.33,1.27-3.44-.38-6.85-.81-10.24-1.27,3.44-.46,6.86-1,10.27-1.53q5.12.83,10.31,1.53ZM443,296q-5.13-.84-10.2-1.81c-3.39.65-6.8,1.26-10.25,1.81q5.09.84,10.26,1.54c3.42-.47,6.81-1,10.18-1.54Zm-10.69-1.91c-3.37.65-6.76,1.27-10.18,1.84-3.39-.57-6.75-1.19-10.09-1.84q5.1-1,10.12-2.09,5,1.11,10.15,2.09Zm-10.73-2.22q-5.06-1.13-10-2.39-5,1.25-10.09,2.39,5,1.13,10.08,2.12,5.06-1,10-2.12Zm-10.67-2.55q-5,1.27-10,2.42-5-1.14-10-2.42,5-1.27,10-2.67c3.3.94,6.65,1.82,10,2.67Zm-10.72-2.88q-5-1.43-9.88-3-4.91,1.56-9.91,3,4.9,1.43,9.89,2.72,5-1.29,9.9-2.72Zm-10.69-3.25q-4.86,1.58-9.83,3-5-1.45-9.84-3,5-1.59,9.85-3.3,4.86,1.72,9.82,3.3Zm-10.72-3.62q-4.92-1.75-9.76-3.62-4.81,1.87-9.72,3.62,4.81,1.74,9.72,3.36,4.93-1.61,9.76-3.35Zm-10.74-4q-4.77,1.91-9.65,3.68-4.88-1.78-9.64-3.69,4.88-1.92,9.65-4,4.77,2.05,9.64,4Zm-10.73-4.44q-4.84-2.1-9.55-4.34-4.73,2.23-9.57,4.33,4.72,2.09,9.57,4,4.83-1.95,9.55-4Zm-10.72-4.89q-4.67,2.27-9.47,4.41-4.8-2.14-9.48-4.4,4.81-2.29,9.49-4.72,4.67,2.42,9.46,4.72Zm-10.72-5.37q-4.75-2.5-9.37-5.12-4.62,2.63-9.38,5.13,4.62,2.47,9.37,4.8,4.76-2.33,9.38-4.8Zm-10.73-5.91q-4.57,2.68-9.29,5.23-4.71-2.55-9.27-5.23,4.72-2.71,9.28-5.57,4.56,2.85,9.27,5.57Zm-10.74-6.5q-4.67-3-9.17-6.07-4.5,3.1-9.18,6.06,4.5,2.92,9.17,5.7,4.67-2.78,9.18-5.69Zm-10.75-7.17q-4.44,3.17-9.06,6.21-4.62-3-9.06-6.2,4.63-3.24,9.07-6.63,4.43,3.38,9.05,6.62ZM293,233.32q-4.57-3.55-8.93-7.25-4.36,3.7-8.94,7.25,4.36,3.47,8.94,6.79,4.57-3.32,8.94-6.78Zm-10.77-8.82q-4.28,3.8-8.8,7.45-4.52-3.65-8.8-7.46,4.53-3.91,8.8-8,4.27,4.08,8.8,8Zm-10.76-9.91q-4.47-4.37-8.66-8.91-4.19,4.54-8.67,8.91,4.19,4.21,8.65,8.27,4.48-4.05,8.68-8.27Zm-10.8-11.26q-4.09,4.71-8.5,9.25-4.41-4.54-8.5-9.26,4.44-5,8.51-10.09,4.07,5.14,8.49,10.1Zm-10.82-13.08q-4.39-5.76-8.31-11.73-3.92,6-8.32,11.72,3.95,5.38,8.32,10.57,4.36-5.18,8.31-10.56ZM239,174.53q-3.77,6.35-8.09,12.48-4.31-6.13-8.09-12.49,4.39-7,8.1-14.34,3.7,7.3,8.08,14.35ZM228,154.31a173.22,173.22,0,0,1-7.79-20,172.39,172.39,0,0,1-7.79,20q3.48,8,7.79,15.79,4.31-7.74,7.8-15.77ZM464.66,300.58c-3.53-.19-7-.43-10.53-.71-3.51.27-7,.52-10.58.7,3.6.19,7.21.33,10.84.42,3.44-.09,6.86-.24,10.26-.42Zm-10.72-.72c-3.49.28-7,.53-10.51.71-3.47-.19-6.93-.44-10.37-.72,3.48-.27,6.94-.61,10.39-1q5.21.56,10.49,1Zm-10.77-1q-5.21-.56-10.35-1.25c-3.45.46-6.91.89-10.39,1.25,3.46.38,6.94.7,10.44,1,3.46-.28,6.89-.62,10.31-1Zm-10.69-1.3c-3.43.46-6.87.9-10.33,1.27-3.44-.38-6.85-.81-10.24-1.27,3.45-.46,6.86-1,10.27-1.53q5.12.83,10.31,1.53ZM421.75,296q-5.13-.84-10.2-1.81c-3.39.65-6.8,1.26-10.25,1.81,3.4.56,6.82,1.07,10.26,1.54,3.42-.47,6.81-1,10.18-1.54Zm-10.69-1.91q-5.06,1-10.18,1.84c-3.39-.57-6.75-1.19-10.09-1.84q5.1-1,10.12-2.09,5,1.11,10.15,2.09Zm-10.73-2.22q-5.06-1.13-10-2.39-5,1.25-10.09,2.39,5,1.13,10.08,2.12,5.06-1,10-2.12Zm-10.67-2.55q-5,1.27-10,2.42-5-1.14-10-2.42,5-1.27,10-2.67c3.3.94,6.65,1.82,10,2.67Zm-10.72-2.88q-5-1.43-9.88-3-4.91,1.55-9.91,3,4.9,1.43,9.89,2.72,5-1.29,9.9-2.72Zm-10.69-3.25q-4.87,1.58-9.83,3-5-1.45-9.84-3,5-1.59,9.85-3.3,4.86,1.72,9.82,3.3Zm-10.72-3.62q-4.92-1.75-9.76-3.62-4.81,1.87-9.72,3.62,4.81,1.74,9.72,3.36,4.93-1.61,9.76-3.35Zm-10.74-4q-4.77,1.9-9.65,3.68-4.88-1.78-9.64-3.69,4.88-1.92,9.65-4,4.77,2.05,9.64,4Zm-10.73-4.44q-4.84-2.1-9.55-4.34Q321.8,269,317,271.07q4.72,2.09,9.57,4,4.84-1.95,9.55-4Zm-10.72-4.89q-4.67,2.27-9.47,4.41-4.8-2.14-9.48-4.4,4.81-2.29,9.49-4.72,4.66,2.42,9.46,4.72Zm-10.72-5.37q-4.76-2.5-9.37-5.12-4.62,2.63-9.38,5.13,4.62,2.47,9.37,4.8,4.76-2.33,9.38-4.8Zm-10.73-5.91q-4.57,2.68-9.29,5.23-4.71-2.55-9.27-5.23,4.72-2.71,9.28-5.57,4.56,2.85,9.27,5.57Zm-10.74-6.5q-4.67-3-9.17-6.07-4.5,3.1-9.18,6.06,4.5,2.92,9.16,5.69,4.67-2.78,9.18-5.69Zm-10.75-7.17q-4.44,3.17-9.06,6.21-4.62-3-9.06-6.2,4.63-3.24,9.07-6.63,4.43,3.38,9.05,6.62Zm-10.75-7.92q-4.58-3.55-8.93-7.25-4.36,3.7-8.94,7.25,4.36,3.47,8.94,6.79,4.57-3.32,8.94-6.78ZM260.9,224.5q-4.28,3.8-8.8,7.45-4.52-3.65-8.8-7.46,4.53-3.91,8.8-8,4.27,4.08,8.8,8Zm-10.76-9.91q-4.47-4.37-8.66-8.91-4.19,4.54-8.67,8.91,4.19,4.21,8.65,8.27,4.48-4.05,8.68-8.27Zm-10.8-11.26q-4.09,4.71-8.5,9.25-4.41-4.54-8.5-9.26,4.44-5,8.51-10.09,4.07,5.14,8.49,10.1Zm-10.82-13.08q-4.39-5.76-8.31-11.73-3.92,6-8.32,11.72,4,5.38,8.32,10.57,4.36-5.18,8.32-10.56Zm-10.85-15.72q-3.77,6.35-8.09,12.48-4.31-6.13-8.09-12.49,4.39-7,8.1-14.34,3.7,7.3,8.08,14.35Zm-10.93-20.22a173.26,173.26,0,0,1-7.78-20,172.71,172.71,0,0,1-7.79,20q3.47,8,7.79,15.79,4.31-7.74,7.79-15.77ZM443.32,300.58q-5.26-.28-10.47-.7c-3.51.27-7,.52-10.58.7,3.58.19,7.18.33,10.79.42,3.44-.09,6.85-.24,10.26-.42Zm-10.66-.72c-3.49.28-7,.53-10.51.71-3.47-.19-6.93-.44-10.37-.72,3.48-.27,6.94-.61,10.39-1q5.21.56,10.49,1Zm-10.77-1q-5.21-.56-10.35-1.25c-3.45.46-6.91.89-10.39,1.25,3.46.38,6.94.7,10.44,1,3.46-.28,6.89-.62,10.31-1Zm-10.69-1.3c-3.43.46-6.87.9-10.33,1.27-3.43-.38-6.85-.81-10.24-1.27,3.45-.46,6.86-1,10.27-1.53q5.12.83,10.31,1.53ZM400.47,296q-5.13-.84-10.2-1.81c-3.39.65-6.81,1.26-10.25,1.81,3.4.56,6.82,1.07,10.26,1.54,3.42-.47,6.81-1,10.18-1.54Zm-10.69-1.91q-5.06,1-10.18,1.84c-3.39-.57-6.75-1.19-10.09-1.84q5.1-1,10.12-2.09,5,1.11,10.15,2.09Zm-10.73-2.22q-5.05-1.13-10-2.39-5,1.25-10.09,2.39,5,1.13,10.08,2.12,5.06-1,10-2.12Zm-10.67-2.55q-5,1.27-10,2.42-5-1.14-10-2.42,5-1.27,10-2.67c3.3.94,6.65,1.82,10,2.67Zm-10.72-2.88q-5-1.43-9.88-3-4.91,1.55-9.91,3,4.9,1.43,9.89,2.72,5-1.29,9.9-2.72ZM347,283.15q-4.87,1.58-9.83,3-5-1.45-9.84-3,5-1.59,9.85-3.3,4.86,1.72,9.82,3.3Zm-10.72-3.62q-4.92-1.75-9.76-3.62-4.81,1.87-9.72,3.62,4.81,1.74,9.72,3.36,4.93-1.61,9.76-3.35Zm-10.74-4q-4.77,1.9-9.65,3.68-4.88-1.78-9.64-3.69,4.88-1.92,9.65-4,4.77,2.05,9.64,4Zm-10.73-4.44q-4.84-2.1-9.55-4.34-4.73,2.23-9.57,4.33,4.72,2.09,9.57,4,4.83-1.95,9.55-4Zm-10.72-4.89q-4.67,2.27-9.47,4.41c-3.2-1.43-6.37-2.89-9.48-4.4q4.81-2.29,9.49-4.72,4.66,2.42,9.46,4.72Zm-10.72-5.37q-4.76-2.5-9.37-5.12-4.62,2.63-9.38,5.13,4.62,2.47,9.37,4.8,4.76-2.33,9.38-4.8Zm-10.73-5.91q-4.57,2.68-9.29,5.23-4.71-2.55-9.27-5.23,4.72-2.71,9.28-5.57,4.56,2.85,9.27,5.57Zm-10.74-6.5q-4.67-3-9.17-6.07-4.5,3.1-9.18,6.06,4.5,2.92,9.16,5.7,4.67-2.78,9.18-5.69Zm-10.75-7.17q-4.44,3.17-9.07,6.21-4.62-3-9.06-6.2,4.64-3.24,9.07-6.63,4.43,3.38,9.05,6.62Zm-10.75-7.93q-4.57-3.55-8.93-7.25-4.36,3.7-8.95,7.25,4.36,3.47,8.93,6.79,4.57-3.32,8.94-6.78Zm-10.77-8.82q-4.28,3.8-8.8,7.45-4.52-3.65-8.8-7.46,4.53-3.91,8.8-8,4.27,4.08,8.8,8Zm-10.76-9.92q-4.47-4.38-8.66-8.91-4.19,4.54-8.67,8.91,4.19,4.21,8.65,8.27,4.48-4.05,8.68-8.27Zm-10.8-11.26q-4.09,4.71-8.5,9.25-4.41-4.54-8.5-9.26,4.44-5,8.51-10.09,4.06,5.14,8.49,10.1Zm-10.82-13.08q-4.39-5.76-8.31-11.73-3.92,6-8.32,11.72,4,5.38,8.32,10.57,4.36-5.18,8.32-10.56Zm-10.85-15.72q-3.77,6.35-8.09,12.48-4.31-6.13-8.09-12.49,4.39-7,8.1-14.34,3.7,7.3,8.08,14.35Zm-10.93-20.22a173.13,173.13,0,0,1-7.78-20,172.57,172.57,0,0,1-7.8,20q3.48,8,7.79,15.79,4.31-7.74,7.8-15.77ZM422,300.58c-3.51-.19-7-.43-10.47-.7-3.51.27-7,.52-10.58.7,3.58.19,7.18.33,10.79.42,3.44-.09,6.85-.24,10.26-.42Zm-10.66-.72c-3.49.28-7,.53-10.51.71-3.47-.19-6.93-.44-10.37-.72,3.48-.27,6.94-.61,10.39-1q5.21.56,10.49,1Zm-10.77-1q-5.21-.56-10.35-1.25c-3.45.46-6.91.89-10.39,1.25,3.46.38,6.94.7,10.44,1,3.46-.28,6.89-.62,10.3-1Zm-10.69-1.3c-3.42.46-6.86.9-10.33,1.27-3.43-.38-6.85-.81-10.24-1.27,3.45-.46,6.86-1,10.27-1.53q5.12.83,10.31,1.53ZM379.18,296q-5.13-.84-10.2-1.81c-3.39.64-6.81,1.26-10.25,1.81,3.4.56,6.82,1.07,10.26,1.54,3.42-.47,6.81-1,10.18-1.54Zm-10.69-1.91q-5.06,1-10.18,1.84c-3.39-.57-6.75-1.19-10.09-1.84q5.1-1,10.12-2.09,5,1.11,10.15,2.09Zm-10.73-2.22q-5.06-1.13-10-2.39-5,1.25-10.09,2.39,5,1.13,10.08,2.12,5.06-1,10-2.12Zm-10.67-2.55q-5,1.27-10,2.42-5-1.14-10-2.42,5-1.27,10-2.67c3.3.94,6.65,1.82,10,2.67Zm-10.72-2.88q-5-1.43-9.88-3-4.91,1.56-9.91,3,4.9,1.43,9.89,2.72,5-1.29,9.9-2.72Zm-10.69-3.25q-4.86,1.58-9.82,3-5-1.45-9.84-3,5-1.59,9.85-3.3,4.86,1.72,9.82,3.3ZM315,279.53q-4.92-1.75-9.75-3.62-4.81,1.87-9.72,3.62,4.81,1.74,9.72,3.36,4.93-1.61,9.76-3.35Zm-10.74-4q-4.77,1.9-9.65,3.68-4.87-1.78-9.64-3.69,4.88-1.92,9.65-4,4.77,2.05,9.64,4Zm-10.73-4.44q-4.84-2.1-9.55-4.34-4.73,2.23-9.57,4.33,4.72,2.09,9.57,4,4.83-1.95,9.55-4Zm-10.72-4.89q-4.67,2.26-9.47,4.41-4.8-2.14-9.48-4.4,4.81-2.29,9.49-4.72,4.67,2.42,9.47,4.72Zm-10.72-5.38q-4.75-2.5-9.37-5.12-4.62,2.63-9.38,5.13,4.62,2.47,9.37,4.8,4.76-2.33,9.38-4.8Zm-10.72-5.9q-4.57,2.68-9.29,5.23-4.71-2.55-9.27-5.23,4.72-2.71,9.28-5.57,4.56,2.85,9.28,5.57Zm-10.74-6.5q-4.67-3-9.17-6.07-4.5,3.1-9.18,6.06,4.5,2.92,9.16,5.7,4.67-2.78,9.18-5.69Zm-10.75-7.17q-4.44,3.17-9.07,6.21-4.62-3-9.06-6.2,4.63-3.24,9.07-6.62,4.43,3.38,9.05,6.62Zm-10.75-7.92q-4.58-3.55-8.93-7.25-4.36,3.7-8.94,7.25,4.36,3.47,8.94,6.79,4.57-3.32,8.94-6.78Zm-10.77-8.82q-4.28,3.8-8.8,7.45-4.52-3.65-8.8-7.46,4.53-3.91,8.8-8,4.27,4.08,8.8,8Zm-10.76-9.91q-4.47-4.37-8.66-8.91-4.19,4.54-8.68,8.91,4.19,4.21,8.66,8.27,4.48-4.05,8.68-8.27Zm-10.8-11.26q-4.09,4.71-8.5,9.25-4.41-4.54-8.5-9.26,4.44-5,8.51-10.09,4.07,5.14,8.49,10.1ZM186,190.25q-4.39-5.76-8.31-11.73-3.92,6-8.32,11.72,4,5.38,8.32,10.57,4.36-5.18,8.31-10.56Zm-10.85-15.72Q171.33,180.88,167,187q-4.31-6.13-8.09-12.49,4.39-7,8.1-14.34,3.7,7.3,8.08,14.35Zm-10.93-20.22a173.29,173.29,0,0,1-7.78-20,172.54,172.54,0,0,1-7.8,20q3.48,8,7.79,15.79,4.31-7.74,7.79-15.77ZM400.76,300.58c-3.51-.19-7-.43-10.47-.7-3.51.27-7,.52-10.58.7,3.58.19,7.18.33,10.79.42,3.44-.09,6.85-.24,10.26-.42Zm-10.67-.72c-3.49.28-7,.53-10.51.71-3.48-.19-6.93-.44-10.37-.72,3.48-.27,6.94-.61,10.39-1q5.21.56,10.49,1Zm-10.77-1q-5.21-.56-10.35-1.25c-3.45.46-6.91.89-10.39,1.25,3.46.38,6.94.7,10.44,1,3.46-.28,6.89-.62,10.3-1Zm-10.69-1.3c-3.42.46-6.86.9-10.33,1.27-3.44-.38-6.85-.81-10.24-1.27,3.44-.46,6.86-1,10.27-1.53q5.12.83,10.31,1.53ZM357.9,296q-5.13-.84-10.2-1.81c-3.39.65-6.8,1.26-10.24,1.81,3.4.56,6.82,1.07,10.26,1.54,3.42-.47,6.81-1,10.18-1.54Zm-10.69-1.91q-5.06,1-10.18,1.84c-3.39-.57-6.75-1.19-10.09-1.84q5.1-1,10.12-2.09,5,1.11,10.15,2.09Zm-10.73-2.22q-5.06-1.13-10-2.39-5,1.25-10.09,2.39,5,1.13,10.08,2.12,5.06-1,10-2.12Zm-10.67-2.55q-5,1.27-10,2.42-5-1.14-10-2.42,5-1.27,10-2.67c3.3.94,6.65,1.82,10,2.67ZM315.1,286.4q-5-1.43-9.88-3-4.91,1.55-9.91,3,4.9,1.43,9.89,2.72,5-1.29,9.9-2.72Zm-10.69-3.25q-4.87,1.58-9.83,3-5-1.45-9.84-3,5-1.59,9.85-3.3,4.86,1.72,9.82,3.3Zm-10.72-3.62q-4.92-1.75-9.75-3.62-4.81,1.87-9.72,3.62,4.81,1.74,9.72,3.36,4.93-1.61,9.76-3.35Zm-10.74-4q-4.77,1.9-9.65,3.68-4.87-1.78-9.64-3.69,4.88-1.92,9.65-4,4.77,2.05,9.64,4Zm-10.73-4.44q-4.84-2.1-9.55-4.34-4.73,2.23-9.57,4.33,4.72,2.09,9.57,4,4.83-1.95,9.55-4Zm-10.72-4.89q-4.67,2.27-9.47,4.41-4.8-2.14-9.48-4.4,4.81-2.29,9.48-4.72,4.67,2.42,9.47,4.71Zm-10.72-5.37q-4.75-2.5-9.37-5.12-4.62,2.63-9.38,5.13,4.62,2.47,9.37,4.8,4.76-2.33,9.38-4.8Zm-10.72-5.91q-4.57,2.68-9.29,5.23-4.71-2.55-9.27-5.23,4.72-2.71,9.28-5.57,4.56,2.85,9.27,5.57Zm-10.74-6.5q-4.67-3-9.17-6.07-4.5,3.1-9.18,6.06,4.5,2.92,9.16,5.69,4.67-2.78,9.18-5.69Zm-10.75-7.17q-4.44,3.17-9.07,6.21-4.62-3-9.06-6.2,4.64-3.24,9.07-6.62,4.43,3.38,9.05,6.62Zm-10.75-7.93q-4.58-3.55-8.93-7.25-4.36,3.7-8.94,7.25,4.36,3.47,8.94,6.79,4.57-3.32,8.94-6.78Zm-10.77-8.82q-4.28,3.8-8.8,7.45-4.52-3.65-8.8-7.46,4.53-3.91,8.8-8,4.27,4.08,8.8,8Zm-10.76-9.91q-4.47-4.37-8.66-8.91-4.19,4.54-8.67,8.91,4.19,4.21,8.65,8.27,4.48-4.05,8.68-8.27Zm-10.8-11.26q-4.09,4.71-8.5,9.25-4.41-4.54-8.5-9.26,4.44-5,8.51-10.09,4.07,5.14,8.49,10.1Zm-10.82-13.08q-4.39-5.76-8.31-11.73-3.92,6-8.32,11.72,4,5.38,8.32,10.57,4.36-5.18,8.31-10.56Zm-10.85-15.72q-3.77,6.35-8.09,12.48-4.31-6.13-8.09-12.49,4.39-7,8.1-14.34,3.7,7.3,8.08,14.35Zm-10.93-20.21a173.3,173.3,0,0,1-7.78-20,172.48,172.48,0,0,1-7.79,20q3.47,8,7.79,15.79,4.31-7.74,7.79-15.77ZM379.48,300.58c-3.51-.19-7-.43-10.47-.7-3.51.27-7,.52-10.58.7,3.58.19,7.18.33,10.79.42,3.44-.09,6.85-.24,10.26-.42Zm-10.67-.72c-3.49.28-7,.53-10.51.71-3.47-.19-6.93-.44-10.37-.72,3.48-.27,6.94-.61,10.39-1q5.21.56,10.49,1Zm-10.77-1q-5.21-.56-10.35-1.25c-3.45.46-6.91.89-10.39,1.25,3.46.38,6.94.7,10.44,1,3.46-.28,6.89-.62,10.3-1Zm-10.69-1.3c-3.43.46-6.87.9-10.33,1.27-3.43-.38-6.85-.81-10.24-1.27,3.45-.46,6.86-1,10.27-1.53q5.12.83,10.31,1.53ZM336.62,296q-5.13-.84-10.2-1.81c-3.39.65-6.81,1.26-10.25,1.81,3.4.56,6.82,1.07,10.26,1.54,3.42-.47,6.81-1,10.18-1.54Zm-10.69-1.91c-3.37.65-6.76,1.27-10.18,1.84-3.39-.57-6.75-1.19-10.09-1.84q5.1-1,10.12-2.09,5,1.11,10.15,2.09Zm-10.73-2.22q-5.06-1.13-10-2.39-5,1.25-10.09,2.39,5,1.13,10.08,2.12,5.06-1,10-2.12Zm-10.67-2.55q-5,1.27-10,2.42-5-1.14-10-2.42,5-1.27,10-2.67c3.3.94,6.65,1.82,10,2.67Zm-10.72-2.88q-5-1.43-9.88-3-4.91,1.55-9.91,3,4.9,1.43,9.89,2.72,5-1.29,9.9-2.72Zm-10.69-3.25q-4.86,1.58-9.83,3-5-1.45-9.84-3,5-1.59,9.85-3.3,4.86,1.72,9.82,3.3Zm-10.72-3.62q-4.93-1.75-9.76-3.62-4.81,1.87-9.72,3.62,4.81,1.74,9.72,3.36,4.93-1.61,9.76-3.35Zm-10.74-4q-4.77,1.91-9.65,3.68-4.88-1.78-9.64-3.69,4.88-1.92,9.65-4,4.77,2.05,9.64,4Zm-10.73-4.44q-4.84-2.1-9.55-4.34-4.73,2.23-9.57,4.33,4.72,2.09,9.57,4,4.84-1.95,9.55-4Zm-10.72-4.89q-4.67,2.27-9.47,4.41-4.8-2.14-9.48-4.4,4.81-2.29,9.49-4.72,4.67,2.42,9.47,4.72Zm-10.72-5.37q-4.76-2.5-9.37-5.12-4.62,2.63-9.38,5.13,4.62,2.47,9.37,4.8,4.76-2.33,9.38-4.8Zm-10.73-5.91q-4.57,2.68-9.29,5.23-4.71-2.55-9.27-5.23,4.72-2.71,9.28-5.57,4.55,2.85,9.27,5.57ZM208,248.41q-4.67-3-9.17-6.07-4.5,3.1-9.18,6.06,4.5,2.92,9.16,5.7,4.67-2.78,9.18-5.69Zm-10.75-7.17q-4.44,3.17-9.06,6.21-4.62-3-9.06-6.2,4.63-3.24,9.07-6.63,4.43,3.38,9.05,6.62Zm-10.75-7.92q-4.58-3.55-8.93-7.25-4.36,3.7-8.94,7.25,4.36,3.47,8.94,6.79,4.57-3.32,8.94-6.78Zm-10.77-8.82q-4.28,3.8-8.8,7.45-4.52-3.65-8.8-7.46,4.53-3.91,8.8-8,4.27,4.08,8.8,8ZM165,214.58q-4.47-4.37-8.66-8.91-4.19,4.54-8.67,8.91,4.19,4.21,8.66,8.27,4.48-4.05,8.68-8.27Zm-10.8-11.26q-4.09,4.71-8.5,9.25-4.41-4.54-8.5-9.26,4.44-5,8.51-10.09,4.06,5.14,8.49,10.1ZM143.4,190.25q-4.39-5.76-8.31-11.73-3.92,6-8.32,11.72,4,5.38,8.32,10.57,4.36-5.18,8.32-10.56Zm-10.85-15.72q-3.77,6.35-8.09,12.48-4.31-6.13-8.09-12.49,4.39-7,8.1-14.34,3.7,7.3,8.08,14.35Zm-10.93-20.22a173.1,173.1,0,0,1-7.79-20,172.32,172.32,0,0,1-7.8,20q3.48,8,7.79,15.79,4.31-7.74,7.79-15.77ZM358.19,300.58c-3.51-.19-7-.43-10.47-.7-3.51.27-7,.52-10.58.7,3.58.19,7.18.33,10.79.42,3.44-.09,6.85-.24,10.26-.42Zm-10.67-.72c-3.49.28-7,.53-10.51.71-3.47-.19-6.93-.44-10.37-.72,3.48-.27,6.94-.61,10.39-1q5.21.56,10.49,1Zm-10.77-1q-5.21-.56-10.35-1.25c-3.45.46-6.91.89-10.39,1.25,3.46.38,6.94.7,10.44,1,3.46-.28,6.89-.62,10.31-1Zm-10.69-1.3c-3.43.46-6.87.9-10.33,1.27-3.44-.38-6.85-.81-10.24-1.27,3.45-.46,6.86-1,10.27-1.53q5.12.83,10.31,1.53ZM315.34,296q-5.13-.84-10.2-1.81c-3.39.65-6.81,1.26-10.25,1.81,3.4.56,6.82,1.07,10.26,1.54,3.42-.47,6.81-1,10.18-1.54Zm-10.69-1.91q-5.06,1-10.18,1.84c-3.39-.57-6.75-1.19-10.09-1.84q5.1-1,10.12-2.09,5,1.11,10.15,2.09Zm-10.73-2.22q-5.06-1.13-10-2.39-5,1.25-10.09,2.39,5,1.13,10.08,2.12,5.06-1,10-2.12Zm-10.67-2.55q-5,1.27-10,2.42-5-1.14-10-2.42,5-1.27,10-2.67c3.3.94,6.65,1.82,10,2.67Zm-10.72-2.88q-5-1.43-9.88-3-4.91,1.56-9.91,3,4.9,1.43,9.89,2.72,5-1.29,9.9-2.72Zm-10.69-3.25q-4.87,1.58-9.82,3-5-1.45-9.84-3,5-1.59,9.85-3.3,4.86,1.72,9.82,3.3Zm-10.71-3.62q-4.92-1.75-9.76-3.62-4.81,1.87-9.72,3.62,4.81,1.74,9.72,3.36,4.93-1.61,9.76-3.35Zm-10.74-4q-4.77,1.9-9.65,3.68-4.88-1.78-9.64-3.69,4.88-1.92,9.65-4,4.77,2,9.64,4Zm-10.73-4.44q-4.84-2.1-9.55-4.34-4.73,2.23-9.57,4.33,4.72,2.09,9.57,4,4.83-1.95,9.55-4Zm-10.72-4.89q-4.67,2.27-9.47,4.41-4.8-2.14-9.48-4.4,4.81-2.29,9.49-4.72,4.67,2.42,9.46,4.72Zm-10.72-5.38q-4.75-2.5-9.37-5.12-4.62,2.63-9.38,5.13,4.62,2.47,9.37,4.8,4.76-2.33,9.38-4.8Zm-10.72-5.9q-4.57,2.68-9.29,5.23-4.71-2.55-9.27-5.23,4.72-2.71,9.28-5.57,4.56,2.85,9.27,5.57Zm-10.74-6.5q-4.67-3-9.17-6.07-4.5,3.1-9.18,6.06,4.5,2.92,9.17,5.69,4.67-2.78,9.18-5.69ZM176,241.24q-4.44,3.17-9.07,6.21-4.62-3-9.06-6.2,4.63-3.24,9.07-6.63,4.43,3.38,9.05,6.62Zm-10.75-7.92q-4.58-3.55-8.93-7.25-4.36,3.7-8.94,7.25,4.36,3.47,8.94,6.79,4.57-3.32,8.94-6.78Zm-10.77-8.82q-4.28,3.8-8.8,7.44-4.52-3.65-8.8-7.46,4.53-3.91,8.8-8,4.27,4.08,8.8,8Zm-10.76-9.92q-4.47-4.37-8.66-8.91-4.19,4.54-8.67,8.91,4.19,4.21,8.65,8.27,4.48-4.05,8.68-8.27Zm-10.8-11.26q-4.09,4.71-8.5,9.25-4.41-4.54-8.5-9.26,4.44-5,8.51-10.09,4.07,5.14,8.49,10.1Zm-10.82-13.07q-4.39-5.76-8.31-11.73-3.92,6-8.32,11.72,4,5.38,8.32,10.57,4.36-5.18,8.32-10.56Zm-10.85-15.72q-3.77,6.35-8.09,12.48-4.31-6.13-8.09-12.49,4.39-7,8.1-14.34,3.7,7.3,8.08,14.35Zm-10.93-20.22a173.11,173.11,0,0,1-7.78-20,172.6,172.6,0,0,1-7.8,20q3.47,8,7.79,15.79,4.31-7.74,7.79-15.77ZM336.91,300.58c-3.51-.19-7-.43-10.47-.7-3.51.27-7,.52-10.58.7,3.58.19,7.18.33,10.79.42,3.44-.09,6.85-.24,10.26-.42Zm-10.67-.72c-3.49.28-7,.53-10.51.71-3.47-.19-6.93-.44-10.37-.72,3.48-.27,6.94-.61,10.39-1q5.21.56,10.49,1Zm-10.77-1q-5.21-.56-10.35-1.25c-3.45.46-6.91.89-10.39,1.25,3.46.38,6.94.7,10.44,1,3.46-.28,6.89-.62,10.3-1Zm-10.69-1.3c-3.42.46-6.86.9-10.33,1.27-3.44-.38-6.85-.81-10.24-1.27,3.45-.46,6.86-1,10.27-1.53q5.12.83,10.31,1.53ZM294.05,296q-5.13-.84-10.2-1.81c-3.39.65-6.8,1.26-10.24,1.81,3.4.56,6.82,1.07,10.26,1.54,3.42-.47,6.81-1,10.18-1.54Zm-10.69-1.91q-5.06,1-10.18,1.84c-3.39-.57-6.75-1.19-10.09-1.84q5.1-1,10.12-2.09,5,1.11,10.15,2.09Zm-10.73-2.22q-5.06-1.13-10-2.39-5,1.25-10.09,2.39,5,1.13,10.08,2.12,5.06-1,10-2.12ZM262,289.28q-5,1.27-10,2.42-5-1.14-10-2.42,5-1.27,10-2.67c3.3.94,6.65,1.82,10,2.67Zm-10.72-2.88q-5-1.43-9.88-3-4.91,1.55-9.91,3,4.9,1.43,9.89,2.72,5-1.29,9.9-2.72Zm-10.69-3.25q-4.87,1.58-9.83,3-5-1.45-9.84-3,5-1.59,9.85-3.3,4.86,1.72,9.82,3.3Zm-10.72-3.62q-4.92-1.75-9.76-3.62-4.81,1.87-9.72,3.62,4.81,1.74,9.72,3.36,4.93-1.61,9.76-3.35Zm-10.74-4q-4.77,1.9-9.65,3.68-4.88-1.78-9.64-3.69,4.88-1.92,9.65-4,4.77,2.05,9.64,4Zm-10.73-4.44q-4.84-2.1-9.55-4.34-4.73,2.23-9.57,4.33,4.72,2.09,9.57,4,4.83-1.95,9.55-4Zm-10.72-4.89q-4.67,2.27-9.47,4.41-4.8-2.14-9.48-4.4,4.81-2.29,9.49-4.72,4.67,2.42,9.46,4.71Zm-10.72-5.37q-4.75-2.5-9.37-5.12-4.62,2.63-9.38,5.13,4.62,2.47,9.37,4.8,4.76-2.33,9.38-4.8Zm-10.73-5.91q-4.57,2.68-9.29,5.23-4.71-2.55-9.27-5.23,4.72-2.71,9.28-5.57,4.56,2.85,9.27,5.57Zm-10.74-6.5q-4.67-3-9.17-6.07-4.5,3.1-9.18,6.06,4.5,2.92,9.16,5.7,4.67-2.78,9.18-5.69Zm-10.75-7.17q-4.44,3.17-9.07,6.21-4.62-3-9.06-6.2,4.63-3.24,9.07-6.63,4.43,3.38,9.05,6.62ZM144,233.32q-4.58-3.55-8.93-7.26-4.36,3.7-8.94,7.25,4.36,3.47,8.94,6.79,4.57-3.32,8.94-6.78Zm-10.77-8.82q-4.28,3.8-8.8,7.45-4.52-3.65-8.8-7.46,4.53-3.91,8.8-8,4.27,4.08,8.8,8Zm-10.76-9.92q-4.47-4.37-8.66-8.91-4.19,4.54-8.68,8.91,4.19,4.21,8.65,8.27,4.48-4.05,8.68-8.27Zm-10.8-11.26q-4.09,4.71-8.5,9.25-4.41-4.54-8.5-9.26,4.44-5,8.51-10.09,4.07,5.14,8.49,10.1Zm-10.82-13.08q-4.39-5.76-8.31-11.73-3.92,6-8.32,11.72,4,5.38,8.32,10.57,4.36-5.18,8.32-10.56ZM90,174.53Q86.2,180.88,81.88,187q-4.31-6.13-8.09-12.49,4.39-7,8.1-14.34,3.7,7.3,8.08,14.35ZM79,154.31a173,173,0,0,1-7.78-20,172.73,172.73,0,0,1-7.8,20q3.48,8,7.79,15.79,4.31-7.74,7.8-15.77ZM315.63,300.58c-3.51-.19-7-.43-10.47-.7-3.51.27-7,.52-10.58.7,3.58.19,7.18.33,10.79.42,3.44-.09,6.85-.24,10.26-.42ZM305,299.86c-3.49.28-7,.53-10.51.71-3.47-.19-6.93-.44-10.37-.72,3.48-.27,6.94-.61,10.39-1q5.21.56,10.49,1Zm-10.77-1q-5.21-.56-10.35-1.25c-3.45.46-6.91.89-10.39,1.25,3.46.38,6.94.7,10.44,1,3.46-.28,6.89-.62,10.3-1Zm-10.69-1.3c-3.42.46-6.87.9-10.33,1.27-3.43-.38-6.85-.81-10.24-1.27,3.45-.46,6.86-1,10.27-1.53q5.12.83,10.31,1.53ZM272.77,296q-5.13-.84-10.2-1.81c-3.39.64-6.8,1.26-10.25,1.81,3.4.56,6.82,1.07,10.26,1.54,3.42-.47,6.81-1,10.18-1.54Zm-10.69-1.91q-5.06,1-10.18,1.84c-3.39-.57-6.75-1.19-10.09-1.84q5.1-1,10.12-2.09,5,1.11,10.15,2.09Zm-10.73-2.22q-5.06-1.13-10-2.39-5,1.25-10.09,2.39,5,1.13,10.08,2.12,5.06-1,10-2.12Zm-10.67-2.55q-5,1.27-10,2.42-5-1.14-10-2.42,5-1.27,10-2.67c3.3.94,6.65,1.82,10,2.67ZM230,286.4q-5-1.43-9.88-3-4.91,1.56-9.91,3,4.9,1.43,9.89,2.72,5-1.29,9.9-2.72Zm-10.69-3.25q-4.87,1.58-9.82,3-5-1.45-9.84-3,5-1.59,9.85-3.3,4.86,1.72,9.82,3.3Zm-10.72-3.62q-4.92-1.75-9.75-3.62-4.81,1.87-9.72,3.62,4.81,1.74,9.72,3.36,4.93-1.61,9.76-3.35Zm-10.74-4q-4.77,1.9-9.65,3.68-4.87-1.78-9.64-3.69,4.88-1.92,9.65-4,4.77,2,9.64,4Zm-10.73-4.44q-4.84-2.1-9.55-4.34-4.73,2.23-9.57,4.33,4.72,2.09,9.57,4,4.83-1.95,9.55-4Zm-10.72-4.89q-4.67,2.27-9.47,4.41-4.8-2.14-9.48-4.4,4.81-2.29,9.49-4.72,4.67,2.42,9.46,4.72Zm-10.72-5.38q-4.75-2.5-9.37-5.12-4.62,2.63-9.38,5.13,4.62,2.47,9.37,4.8,4.76-2.33,9.38-4.8Zm-10.72-5.9q-4.57,2.68-9.29,5.23-4.71-2.55-9.27-5.23,4.72-2.71,9.28-5.57,4.56,2.85,9.27,5.57Zm-10.74-6.5q-4.67-3-9.17-6.07-4.5,3.1-9.18,6.06,4.5,2.92,9.16,5.69,4.67-2.78,9.18-5.69Zm-10.75-7.17q-4.44,3.17-9.07,6.21-4.62-3-9.06-6.2,4.64-3.24,9.07-6.63,4.43,3.38,9.05,6.62Zm-10.75-7.92q-4.57-3.55-8.93-7.25-4.36,3.7-8.94,7.25,4.36,3.47,8.93,6.79,4.57-3.32,8.94-6.78Zm-10.77-8.82q-4.28,3.8-8.8,7.45-4.52-3.65-8.8-7.46,4.53-3.91,8.8-8,4.27,4.08,8.8,8Zm-10.76-9.91q-4.47-4.38-8.66-8.91-4.19,4.54-8.67,8.91,4.19,4.21,8.65,8.27,4.48-4.05,8.68-8.27Zm-10.8-11.26q-4.09,4.71-8.5,9.25-4.41-4.54-8.5-9.26,4.44-5,8.51-10.09,4.07,5.14,8.49,10.1ZM79.55,190.25q-4.39-5.76-8.31-11.73-3.92,6-8.32,11.72,4,5.38,8.32,10.57,4.36-5.18,8.32-10.56ZM68.7,174.53Q64.92,180.88,60.6,187q-4.31-6.13-8.09-12.49,4.39-7,8.1-14.34,3.7,7.3,8.08,14.35ZM57.76,154.31a173,173,0,0,1-7.78-20,172.54,172.54,0,0,1-7.8,20q3.48,8,7.79,15.79,4.31-7.74,7.79-15.77ZM294.34,300.58c-3.51-.19-7-.43-10.47-.7-3.51.27-7,.52-10.58.7,3.58.19,7.18.33,10.79.42,3.44-.09,6.85-.24,10.26-.42Zm-10.67-.72c-3.49.28-7,.53-10.51.71-3.48-.19-6.93-.44-10.37-.72,3.48-.27,6.94-.61,10.39-1q5.21.56,10.49,1Zm-10.77-1q-5.21-.56-10.35-1.25c-3.45.46-6.91.89-10.39,1.25,3.46.38,6.94.7,10.44,1,3.46-.28,6.89-.62,10.31-1Zm-10.69-1.3c-3.42.46-6.87.9-10.33,1.27-3.43-.38-6.85-.81-10.24-1.27,3.44-.46,6.86-1,10.26-1.53q5.12.83,10.31,1.53ZM251.49,296q-5.13-.84-10.2-1.81c-3.39.65-6.81,1.26-10.25,1.81,3.4.56,6.82,1.07,10.26,1.54,3.42-.47,6.81-1,10.18-1.54Zm-10.69-1.91q-5.06,1-10.18,1.84c-3.39-.57-6.75-1.19-10.09-1.84q5.1-1,10.12-2.09,5,1.11,10.15,2.09Zm-10.73-2.22q-5.06-1.13-10-2.39-5,1.25-10.09,2.39Q215,293,220,294q5.06-1,10-2.12Zm-10.67-2.55q-5,1.27-10,2.42-5-1.14-10-2.42,5-1.27,10-2.67c3.3.94,6.65,1.82,10,2.67Zm-10.72-2.88q-5-1.43-9.88-3-4.91,1.55-9.91,3,4.9,1.43,9.89,2.72,5-1.29,9.9-2.72ZM198,283.15q-4.86,1.58-9.83,3-5-1.45-9.84-3,5-1.59,9.85-3.3,4.86,1.72,9.82,3.3Zm-10.72-3.62q-4.93-1.75-9.76-3.62-4.81,1.87-9.72,3.62,4.81,1.74,9.72,3.36,4.93-1.61,9.76-3.35Zm-10.74-4q-4.77,1.9-9.65,3.68-4.88-1.78-9.64-3.69,4.88-1.92,9.65-4,4.77,2.05,9.64,4Zm-10.73-4.44q-4.84-2.1-9.55-4.34-4.73,2.23-9.57,4.33,4.72,2.09,9.57,4,4.84-1.95,9.55-4Zm-10.72-4.89q-4.67,2.27-9.47,4.41-4.8-2.14-9.48-4.4,4.81-2.29,9.48-4.72,4.67,2.42,9.46,4.71Zm-10.72-5.37q-4.75-2.5-9.37-5.12-4.62,2.63-9.38,5.13,4.62,2.47,9.37,4.8,4.76-2.33,9.38-4.8Zm-10.72-5.91q-4.57,2.68-9.29,5.23-4.71-2.55-9.27-5.23,4.72-2.71,9.28-5.57,4.55,2.85,9.27,5.57Zm-10.74-6.5q-4.67-3-9.17-6.07-4.5,3.1-9.18,6.06,4.5,2.92,9.16,5.69,4.67-2.78,9.18-5.69Zm-10.75-7.17q-4.44,3.17-9.07,6.21-4.62-3-9.06-6.2,4.64-3.24,9.07-6.62,4.43,3.38,9.05,6.62Zm-10.75-7.93q-4.57-3.55-8.93-7.25-4.36,3.7-8.94,7.25,4.36,3.47,8.94,6.79,4.57-3.32,8.94-6.78ZM90.64,224.5q-4.28,3.8-8.8,7.45-4.52-3.65-8.8-7.46,4.53-3.91,8.8-8,4.27,4.08,8.8,8Zm-10.76-9.91q-4.47-4.37-8.66-8.91-4.19,4.54-8.67,8.91,4.19,4.21,8.65,8.27,4.48-4.05,8.68-8.27Zm-10.8-11.26Q65,208,60.58,212.57q-4.41-4.54-8.5-9.26,4.44-5,8.51-10.09,4.07,5.14,8.49,10.1ZM58.27,190.25q-4.39-5.76-8.31-11.73-3.92,6-8.32,11.72,4,5.38,8.32,10.57,4.36-5.18,8.32-10.56ZM47.41,174.53q-3.77,6.35-8.09,12.48-4.31-6.13-8.09-12.49,4.39-7,8.1-14.34,3.7,7.3,8.08,14.35ZM36.48,154.31a173.28,173.28,0,0,1-7.78-20,172.43,172.43,0,0,1-7.8,20q3.48,8,7.79,15.79,4.31-7.74,7.79-15.77ZM273.06,300.58c-3.51-.19-7-.43-10.47-.7-3.51.27-7,.52-10.57.7,3.58.19,7.18.33,10.79.42,3.44-.09,6.85-.24,10.26-.42Zm-10.66-.72c-3.49.28-7,.53-10.51.71-3.47-.19-6.93-.44-10.37-.72,3.48-.27,6.94-.61,10.39-1q5.21.56,10.49,1Zm-10.77-1q-5.21-.56-10.35-1.25c-3.45.46-6.91.89-10.39,1.25,3.46.38,6.94.7,10.44,1,3.46-.28,6.89-.62,10.3-1Zm-10.69-1.3c-3.43.46-6.87.9-10.33,1.27-3.43-.38-6.85-.81-10.24-1.27,3.44-.46,6.86-1,10.27-1.53q5.12.83,10.31,1.53ZM230.21,296q-5.13-.84-10.2-1.81c-3.39.65-6.8,1.26-10.24,1.81,3.4.56,6.82,1.07,10.26,1.54,3.42-.47,6.81-1,10.18-1.54Zm-10.69-1.91c-3.37.65-6.76,1.27-10.18,1.84-3.39-.57-6.75-1.19-10.09-1.84q5.1-1,10.12-2.09,5,1.11,10.15,2.09Zm-10.73-2.22q-5.06-1.13-10-2.39-5,1.25-10.09,2.39,5,1.13,10.08,2.12,5.06-1,10-2.12Zm-10.67-2.55q-5,1.27-10,2.42-5-1.14-10-2.42,5-1.27,10-2.67c3.3.94,6.65,1.82,10,2.67ZM187.4,286.4q-5-1.43-9.88-3-4.91,1.56-9.91,3,4.9,1.43,9.89,2.72,5-1.29,9.9-2.72Zm-10.69-3.25q-4.87,1.58-9.83,3-5-1.45-9.84-3,5-1.59,9.85-3.3,4.86,1.72,9.82,3.3ZM166,279.53q-4.92-1.75-9.76-3.62-4.81,1.87-9.72,3.62,4.81,1.74,9.72,3.36,4.93-1.61,9.76-3.36Zm-10.74-4q-4.77,1.9-9.65,3.68-4.88-1.78-9.64-3.69,4.88-1.92,9.65-4,4.77,2.05,9.64,4Zm-10.73-4.44q-4.84-2.1-9.55-4.34-4.73,2.23-9.57,4.33,4.72,2.09,9.57,4,4.83-1.95,9.55-4Zm-10.72-4.89q-4.67,2.27-9.47,4.41-4.8-2.14-9.48-4.4,4.81-2.29,9.49-4.72,4.67,2.42,9.46,4.72Zm-10.72-5.37q-4.75-2.5-9.37-5.12-4.62,2.63-9.38,5.13,4.62,2.47,9.37,4.8,4.76-2.33,9.38-4.8Zm-10.73-5.9q-4.57,2.68-9.29,5.23-4.71-2.55-9.27-5.23,4.72-2.71,9.28-5.57,4.56,2.85,9.27,5.57Zm-10.74-6.5q-4.67-3-9.17-6.07-4.5,3.1-9.18,6.06,4.5,2.92,9.17,5.7,4.67-2.78,9.18-5.69Zm-10.75-7.17q-4.44,3.17-9.07,6.21-4.62-3-9.06-6.2,4.64-3.24,9.07-6.63,4.43,3.38,9.05,6.62Zm-10.75-7.92q-4.57-3.55-8.93-7.25-4.36,3.7-8.94,7.25,4.36,3.47,8.93,6.79,4.57-3.32,8.94-6.78ZM69.36,224.5q-4.28,3.8-8.8,7.45-4.52-3.65-8.8-7.46,4.53-3.91,8.8-8,4.27,4.08,8.8,8ZM58.6,214.58q-4.47-4.38-8.66-8.91-4.19,4.54-8.67,8.91,4.19,4.21,8.65,8.27,4.48-4.05,8.68-8.27ZM47.8,203.32q-4.09,4.71-8.5,9.25-4.41-4.54-8.5-9.26,4.44-5,8.51-10.09,4.07,5.14,8.49,10.1ZM37,190.25q-4.39-5.76-8.31-11.73-3.92,6-8.32,11.72,4,5.38,8.32,10.57Q33,195.62,37,190.25ZM26.13,174.53Q22.36,180.88,18,187q-4.31-6.13-8.09-12.49,4.39-7,8.1-14.34,3.7,7.3,8.08,14.35Zm225.65,126c-3.51-.19-7-.43-10.47-.7-3.51.27-7,.52-10.58.7,3.58.19,7.18.33,10.79.42,3.44-.09,6.85-.24,10.26-.42Zm-10.66-.72c-3.49.28-7,.53-10.51.71-3.47-.19-6.93-.44-10.37-.72,3.48-.27,6.94-.61,10.39-1q5.21.56,10.49,1Zm-10.77-1q-5.21-.56-10.35-1.25c-3.45.46-6.91.89-10.39,1.25,3.46.38,6.94.7,10.44,1,3.46-.28,6.89-.62,10.3-1Zm-10.69-1.3c-3.43.46-6.87.9-10.33,1.27-3.44-.38-6.85-.81-10.24-1.27,3.45-.46,6.86-1,10.27-1.53q5.12.83,10.31,1.53ZM208.92,296q-5.13-.84-10.2-1.81c-3.39.65-6.8,1.26-10.24,1.81,3.4.56,6.82,1.07,10.26,1.54,3.42-.47,6.81-1,10.18-1.54Zm-10.69-1.91q-5.06,1-10.18,1.84c-3.39-.57-6.75-1.19-10.09-1.84q5.1-1,10.12-2.09,5,1.11,10.15,2.09Zm-10.73-2.22q-5.06-1.13-10-2.39-5,1.25-10.09,2.39,5,1.13,10.08,2.12,5.06-1,10-2.12Zm-10.67-2.55q-5,1.27-10,2.42-5-1.14-10-2.42,5-1.27,10-2.67c3.3.94,6.65,1.82,10,2.67Zm-10.72-2.88q-5-1.43-9.88-3-4.91,1.55-9.91,3,4.9,1.43,9.89,2.72,5-1.29,9.9-2.72Zm-10.69-3.25q-4.86,1.58-9.82,3-5-1.45-9.84-3,5-1.59,9.85-3.3,4.86,1.72,9.82,3.3Zm-10.72-3.62q-4.92-1.75-9.75-3.62-4.81,1.87-9.72,3.62,4.81,1.74,9.72,3.36,4.93-1.61,9.76-3.35Zm-10.74-4q-4.77,1.9-9.65,3.68-4.88-1.78-9.64-3.69,4.88-1.92,9.65-4,4.77,2.05,9.64,4Zm-10.73-4.44q-4.84-2.1-9.55-4.34-4.73,2.23-9.57,4.33,4.72,2.09,9.57,4,4.83-1.95,9.55-4Zm-10.72-4.89q-4.67,2.27-9.47,4.41-4.8-2.14-9.48-4.4,4.81-2.29,9.49-4.72,4.67,2.42,9.46,4.71Zm-10.72-5.37q-4.76-2.5-9.37-5.12-4.62,2.63-9.38,5.13,4.62,2.47,9.37,4.8,4.76-2.33,9.38-4.8Zm-10.73-5.91q-4.57,2.68-9.29,5.23-4.71-2.55-9.27-5.23,4.72-2.71,9.28-5.57,4.56,2.85,9.27,5.57Zm-10.74-6.5q-4.67-3-9.17-6.07-4.5,3.1-9.18,6.06,4.5,2.92,9.16,5.69,4.67-2.78,9.18-5.69ZM69.6,241.24q-4.44,3.17-9.06,6.21-4.62-3-9.06-6.2,4.63-3.24,9.07-6.62Q65,238,69.6,241.24Zm-10.75-7.93q-4.57-3.55-8.93-7.25-4.36,3.7-8.94,7.25,4.36,3.47,8.93,6.79,4.57-3.32,8.94-6.78ZM48.08,224.5q-4.28,3.8-8.8,7.45-4.52-3.65-8.8-7.46,4.53-3.91,8.8-8,4.27,4.08,8.8,8Zm-10.76-9.91q-4.47-4.37-8.66-8.91-4.19,4.54-8.67,8.91,4.19,4.21,8.66,8.27,4.48-4.05,8.68-8.27Zm-10.8-11.26Q22.43,208,18,212.57q-4.41-4.54-8.5-9.26,4.44-5,8.51-10.09,4.07,5.14,8.49,10.1Zm204,97.25c-3.51-.19-7-.43-10.47-.7-3.51.27-7,.52-10.58.7,3.58.19,7.18.33,10.79.42,3.44-.09,6.85-.24,10.26-.42Zm-10.67-.72c-3.49.28-7,.53-10.51.71-3.47-.19-6.93-.44-10.37-.72,3.48-.27,6.94-.61,10.39-1q5.21.56,10.49,1Zm-10.77-1q-5.21-.56-10.35-1.25c-3.45.46-6.91.89-10.39,1.25,3.46.38,6.94.7,10.44,1,3.46-.28,6.89-.62,10.31-1Zm-10.69-1.3c-3.42.46-6.87.9-10.33,1.27-3.44-.38-6.85-.81-10.24-1.27,3.45-.46,6.86-1,10.27-1.53q5.12.83,10.31,1.53ZM187.64,296q-5.13-.84-10.2-1.81c-3.39.65-6.81,1.26-10.25,1.81,3.4.56,6.82,1.07,10.26,1.54,3.42-.47,6.81-1,10.18-1.54ZM177,294.05c-3.37.65-6.76,1.27-10.18,1.84-3.39-.57-6.75-1.19-10.09-1.84q5.1-1,10.12-2.09,5,1.11,10.15,2.09Zm-10.73-2.22q-5.06-1.13-10-2.39-5,1.25-10.09,2.39,5,1.13,10.08,2.12,5.06-1,10-2.12Zm-10.67-2.55q-5,1.27-10,2.42-5-1.14-10-2.42,5-1.27,10-2.67c3.3.94,6.65,1.82,10,2.67Zm-10.72-2.88q-5-1.43-9.88-3-4.91,1.55-9.91,3,4.9,1.43,9.89,2.72,5-1.29,9.9-2.72Zm-10.69-3.25q-4.86,1.58-9.83,3-5-1.45-9.84-3,5-1.59,9.85-3.3,4.86,1.72,9.82,3.3Zm-10.72-3.62q-4.92-1.75-9.76-3.62-4.81,1.87-9.72,3.62,4.81,1.74,9.72,3.36,4.93-1.61,9.76-3.35Zm-10.74-4q-4.77,1.91-9.65,3.68-4.88-1.78-9.64-3.69,4.88-1.92,9.65-4,4.77,2.05,9.64,4ZM102,271.08q-4.84-2.1-9.55-4.34-4.73,2.23-9.57,4.33,4.72,2.09,9.57,4,4.83-1.95,9.55-4Zm-10.72-4.89q-4.67,2.27-9.47,4.41c-3.2-1.43-6.37-2.89-9.48-4.4q4.81-2.29,9.49-4.72,4.67,2.42,9.46,4.72Zm-10.72-5.37q-4.75-2.5-9.37-5.12-4.62,2.63-9.38,5.13,4.62,2.47,9.37,4.8,4.76-2.33,9.38-4.8ZM69.8,254.91q-4.57,2.68-9.29,5.23-4.71-2.55-9.27-5.23,4.72-2.71,9.28-5.57,4.56,2.85,9.27,5.57Zm-10.74-6.5q-4.67-3-9.17-6.07-4.5,3.1-9.18,6.06,4.5,2.92,9.17,5.7,4.67-2.78,9.18-5.69Zm-10.75-7.17q-4.44,3.17-9.07,6.21-4.62-3-9.06-6.2,4.63-3.24,9.07-6.63,4.43,3.38,9.05,6.62Zm-10.75-7.92q-4.58-3.55-8.93-7.25-4.36,3.7-8.95,7.25,4.36,3.47,8.94,6.79,4.57-3.32,8.94-6.78ZM26.79,224.5q-4.28,3.8-8.8,7.45-4.52-3.65-8.8-7.46,4.53-3.91,8.8-8,4.27,4.08,8.8,8Zm182.42,76.08c-3.51-.19-7-.43-10.47-.7-3.51.27-7,.52-10.58.7,3.58.19,7.18.33,10.79.42,3.44-.09,6.85-.24,10.26-.42Zm-10.66-.72c-3.49.28-7,.53-10.51.71-3.47-.19-6.93-.44-10.37-.72,3.48-.27,6.94-.61,10.39-1q5.21.56,10.49,1Zm-10.77-1q-5.21-.56-10.35-1.25c-3.45.46-6.91.89-10.39,1.25,3.46.38,6.94.7,10.44,1,3.46-.28,6.89-.62,10.3-1Zm-10.69-1.3c-3.42.46-6.87.9-10.33,1.27-3.43-.38-6.85-.81-10.24-1.27,3.45-.46,6.86-1,10.27-1.53q5.12.83,10.31,1.53ZM166.36,296q-5.13-.84-10.2-1.81c-3.39.65-6.81,1.26-10.25,1.81,3.4.56,6.82,1.07,10.26,1.54,3.42-.47,6.81-1,10.18-1.54Zm-10.69-1.91q-5.06,1-10.18,1.84c-3.39-.57-6.75-1.19-10.09-1.84q5.1-1,10.12-2.09,5,1.11,10.15,2.09Zm-10.73-2.22q-5.06-1.13-10-2.39-5,1.25-10.09,2.39,5,1.13,10.08,2.12,5.06-1,10-2.12Zm-10.67-2.55q-5,1.27-10,2.42-5-1.14-10-2.42,5-1.27,10-2.67c3.3.94,6.65,1.82,10,2.67Zm-10.72-2.88q-5-1.43-9.88-3-4.91,1.56-9.91,3,4.9,1.43,9.89,2.72,5-1.29,9.9-2.72Zm-10.69-3.25q-4.87,1.58-9.82,3-5-1.45-9.84-3,5-1.59,9.85-3.3,4.86,1.72,9.82,3.3Zm-10.71-3.62q-4.92-1.75-9.76-3.62-4.81,1.87-9.72,3.62,4.81,1.74,9.72,3.36,4.93-1.61,9.76-3.35Zm-10.74-4q-4.77,1.9-9.65,3.68-4.87-1.78-9.64-3.69,4.88-1.92,9.65-4,4.77,2,9.64,4Zm-10.73-4.44q-4.84-2.1-9.55-4.34-4.73,2.23-9.57,4.33,4.72,2.09,9.57,4,4.83-1.95,9.55-4ZM70,266.19q-4.67,2.27-9.47,4.41c-3.2-1.43-6.37-2.89-9.48-4.4q4.81-2.29,9.48-4.72,4.67,2.42,9.46,4.72Zm-10.72-5.38q-4.76-2.5-9.37-5.12-4.62,2.63-9.38,5.13,4.62,2.47,9.37,4.8,4.76-2.33,9.38-4.8Zm-10.72-5.9q-4.57,2.68-9.29,5.23-4.71-2.55-9.27-5.23,4.72-2.71,9.28-5.57,4.56,2.85,9.28,5.57Zm-10.74-6.5q-4.67-3-9.17-6.07-4.5,3.1-9.18,6.06,4.5,2.92,9.16,5.69,4.67-2.78,9.18-5.69ZM27,241.24q-4.44,3.17-9.07,6.21-4.62-3-9.06-6.2Q13.54,238,18,234.62,22.41,238,27,241.24Zm160.9,59.34c-3.51-.19-7-.43-10.47-.7-3.51.27-7,.52-10.58.7,3.58.19,7.18.33,10.79.42,3.44-.09,6.85-.24,10.26-.42Zm-10.67-.72c-3.49.28-7,.53-10.51.71-3.48-.19-6.93-.44-10.37-.72,3.48-.27,6.94-.61,10.39-1q5.21.56,10.49,1Zm-10.77-1q-5.21-.56-10.35-1.25c-3.45.46-6.91.89-10.39,1.25,3.46.38,6.94.7,10.44,1,3.46-.28,6.89-.62,10.3-1Zm-10.69-1.3c-3.42.46-6.86.9-10.33,1.27-3.44-.38-6.85-.81-10.24-1.27,3.45-.46,6.86-1,10.27-1.53q5.12.83,10.31,1.53ZM145.08,296q-5.13-.84-10.2-1.81c-3.39.65-6.8,1.26-10.25,1.81,3.4.56,6.82,1.07,10.26,1.54,3.42-.47,6.81-1,10.18-1.54Zm-10.69-1.91q-5.06,1-10.18,1.84c-3.39-.57-6.75-1.19-10.09-1.84q5.1-1,10.12-2.09,5,1.11,10.15,2.09Zm-10.73-2.22q-5.06-1.13-10-2.39-5,1.25-10.09,2.39,5,1.13,10.08,2.12,5.06-1,10-2.12ZM113,289.28q-5,1.27-10,2.42-5-1.14-10-2.42,5-1.27,10-2.67c3.3.94,6.65,1.82,10,2.67Zm-10.72-2.88q-5-1.43-9.88-3-4.91,1.55-9.91,3,4.9,1.43,9.89,2.72,5-1.29,9.9-2.72Zm-10.69-3.25q-4.87,1.58-9.83,3-5-1.45-9.84-3,5-1.59,9.85-3.3,4.86,1.72,9.82,3.3Zm-10.72-3.62q-4.93-1.75-9.76-3.62-4.81,1.87-9.72,3.62,4.81,1.74,9.72,3.36,4.93-1.61,9.76-3.35Zm-10.74-4q-4.77,1.9-9.65,3.68-4.87-1.78-9.64-3.69,4.88-1.92,9.65-4,4.77,2.05,9.64,4ZM59.4,271.08q-4.84-2.1-9.55-4.34-4.73,2.23-9.57,4.33,4.72,2.09,9.57,4,4.83-1.95,9.55-4Zm-10.72-4.89q-4.67,2.27-9.47,4.41-4.8-2.14-9.48-4.4,4.81-2.29,9.49-4.72,4.67,2.42,9.46,4.71ZM38,260.81q-4.75-2.5-9.37-5.12-4.62,2.63-9.38,5.13,4.62,2.47,9.37,4.8,4.76-2.33,9.38-4.8Zm-10.73-5.91q-4.57,2.68-9.29,5.23-4.71-2.55-9.27-5.23,4.72-2.71,9.28-5.57,4.56,2.85,9.27,5.57Zm139.42,45.67c-3.51-.19-7-.43-10.47-.7-3.51.27-7,.52-10.58.7,3.58.19,7.18.33,10.79.42,3.44-.09,6.85-.24,10.26-.42ZM156,299.86c-3.49.28-7,.53-10.51.71-3.47-.19-6.93-.44-10.37-.72,3.48-.27,6.94-.61,10.39-1q5.21.56,10.49,1Zm-10.77-1q-5.21-.56-10.35-1.25c-3.45.46-6.91.89-10.39,1.25,3.46.38,6.94.7,10.44,1,3.46-.28,6.89-.62,10.3-1Zm-10.69-1.3c-3.42.46-6.86.9-10.33,1.27-3.44-.38-6.85-.81-10.24-1.27,3.44-.46,6.86-1,10.27-1.53q5.12.83,10.31,1.53ZM123.79,296q-5.13-.84-10.2-1.81c-3.39.64-6.8,1.26-10.24,1.81,3.4.56,6.82,1.07,10.26,1.54,3.42-.47,6.81-1,10.18-1.54Zm-10.69-1.91q-5.06,1-10.18,1.84c-3.39-.57-6.75-1.19-10.09-1.84q5.1-1,10.12-2.09,5,1.11,10.15,2.09Zm-10.73-2.22q-5.06-1.13-10-2.39-5,1.25-10.09,2.39,5,1.13,10.08,2.12,5.06-1,10-2.12Zm-10.67-2.55q-5,1.27-10,2.42-5-1.14-10-2.42,5-1.27,10-2.67c3.3.94,6.65,1.82,10,2.67ZM81,286.4q-5-1.43-9.88-3-4.91,1.56-9.91,3,4.9,1.43,9.89,2.72,5-1.29,9.9-2.72ZM70.3,283.15q-4.87,1.58-9.83,3-5-1.45-9.84-3,5-1.59,9.85-3.3,4.86,1.72,9.82,3.3Zm-10.72-3.62q-4.92-1.75-9.75-3.62-4.81,1.87-9.72,3.62,4.81,1.74,9.72,3.36,4.93-1.61,9.76-3.35Zm-10.74-4q-4.77,1.9-9.65,3.68-4.88-1.78-9.64-3.69,4.88-1.92,9.65-4,4.77,2,9.64,4Zm-10.73-4.44q-4.84-2.1-9.55-4.34Q23.85,269,19,271.07q4.72,2.09,9.57,4,4.84-1.95,9.55-4ZM27.4,266.19q-4.67,2.27-9.47,4.41-4.8-2.14-9.48-4.4,4.81-2.29,9.49-4.72,4.67,2.42,9.46,4.72Zm118,34.39c-3.51-.19-7-.43-10.47-.7-3.51.27-7,.52-10.58.7,3.58.19,7.18.33,10.79.42,3.44-.09,6.85-.24,10.26-.42Zm-10.66-.72c-3.49.28-7,.53-10.51.71-3.47-.19-6.93-.44-10.37-.72,3.48-.27,6.94-.61,10.39-1q5.21.56,10.49,1Zm-10.77-1q-5.21-.56-10.35-1.25c-3.45.46-6.91.89-10.39,1.25,3.46.38,6.94.7,10.44,1,3.46-.28,6.89-.62,10.31-1Zm-10.69-1.3c-3.42.46-6.87.9-10.33,1.27-3.44-.38-6.85-.81-10.24-1.27,3.45-.46,6.86-1,10.27-1.53q5.12.83,10.31,1.53ZM102.51,296q-5.13-.84-10.2-1.81c-3.39.65-6.81,1.26-10.25,1.81,3.4.56,6.82,1.07,10.26,1.54,3.42-.47,6.81-1,10.18-1.54Zm-10.69-1.91q-5.06,1-10.18,1.84c-3.39-.57-6.75-1.19-10.09-1.84q5.1-1,10.12-2.09,5,1.11,10.15,2.09ZM81.1,291.84q-5.06-1.13-10-2.39-5,1.25-10.09,2.39Q66,293,71.06,294q5.06-1,10-2.12Zm-10.67-2.55q-5,1.27-10,2.42-5-1.14-10-2.42,5-1.27,10-2.67c3.3.94,6.65,1.82,10,2.67ZM59.71,286.4q-5-1.43-9.88-3-4.91,1.55-9.91,3,4.9,1.43,9.89,2.72,5-1.29,9.9-2.72ZM49,283.15q-4.86,1.58-9.82,3-5-1.45-9.84-3,5-1.59,9.85-3.3,4.86,1.72,9.82,3.3ZM38.3,279.53q-4.92-1.75-9.75-3.62-4.81,1.87-9.72,3.62,4.81,1.74,9.72,3.36,4.93-1.61,9.76-3.35Zm-10.74-4q-4.77,1.9-9.65,3.68-4.87-1.78-9.64-3.69,4.88-1.92,9.65-4,4.77,2.05,9.64,4Zm96.52,25.06c-3.51-.19-7-.43-10.47-.7-3.51.27-7,.52-10.58.7,3.58.19,7.18.33,10.79.42,3.44-.09,6.85-.24,10.26-.42Zm-10.67-.72c-3.49.28-7,.53-10.51.71-3.47-.19-6.93-.44-10.37-.72,3.48-.27,6.94-.61,10.39-1q5.21.56,10.49,1Zm-10.77-1q-5.21-.56-10.35-1.25c-3.45.46-6.91.89-10.39,1.25,3.46.38,6.94.7,10.44,1,3.46-.28,6.89-.62,10.31-1ZM92,297.56c-3.43.46-6.87.9-10.33,1.27-3.44-.38-6.85-.81-10.24-1.27,3.45-.46,6.86-1,10.27-1.53q5.12.83,10.31,1.53ZM81.23,296q-5.13-.84-10.2-1.81c-3.39.65-6.81,1.26-10.25,1.81,3.4.56,6.82,1.07,10.26,1.54,3.42-.47,6.81-1,10.18-1.54Zm-10.69-1.91c-3.37.65-6.76,1.27-10.18,1.84-3.39-.57-6.75-1.19-10.09-1.84q5.1-1,10.12-2.09,5,1.11,10.15,2.09Zm-10.73-2.22q-5.06-1.13-10-2.39-5,1.25-10.09,2.39,5,1.13,10.08,2.12,5.06-1,10-2.12Zm-10.67-2.55q-5,1.27-10,2.42-5-1.14-10-2.42,5-1.27,10-2.67c3.3.94,6.65,1.82,10,2.67ZM38.43,286.4q-5-1.43-9.88-3-4.91,1.56-9.91,3,4.9,1.43,9.89,2.72,5-1.29,9.9-2.72Zm-10.69-3.25q-4.87,1.58-9.83,3-5-1.45-9.84-3,5-1.59,9.85-3.3,4.86,1.72,9.82,3.3Zm75.07,17.42c-3.51-.19-7-.43-10.47-.7-3.51.27-7,.52-10.58.7,3.58.19,7.18.33,10.79.42,3.44-.09,6.85-.24,10.26-.42Zm-10.66-.72c-3.49.28-7,.53-10.51.71-3.47-.19-6.93-.44-10.37-.72,3.48-.27,6.94-.61,10.39-1q5.21.56,10.49,1Zm-10.77-1Q76.16,298.3,71,297.6c-3.45.46-6.91.89-10.39,1.25,3.46.38,6.94.7,10.44,1,3.46-.28,6.89-.62,10.3-1Zm-10.69-1.3c-3.42.46-6.86.9-10.33,1.27-3.43-.38-6.85-.81-10.24-1.27,3.44-.46,6.86-1,10.27-1.53q5.12.83,10.31,1.53ZM59.95,296q-5.13-.84-10.2-1.81c-3.39.65-6.81,1.26-10.25,1.81,3.4.56,6.82,1.07,10.26,1.54,3.42-.47,6.81-1,10.18-1.54Zm-10.69-1.91q-5.06,1-10.18,1.84c-3.39-.57-6.75-1.19-10.09-1.84q5.1-1,10.12-2.09,5,1.11,10.15,2.09Zm-10.73-2.22q-5.06-1.13-10-2.39-5,1.25-10.09,2.39,5,1.13,10.08,2.12,5.06-1,10-2.12Zm-10.67-2.55q-5,1.27-10,2.42-5-1.14-10-2.42,5-1.27,10-2.67c3.31.94,6.65,1.82,10,2.67Zm53.66,11.29c-3.51-.19-7-.43-10.47-.7-3.51.27-7,.52-10.58.7,3.58.19,7.18.33,10.79.42,3.44-.09,6.85-.24,10.26-.42Zm-10.67-.72c-3.49.28-7,.53-10.51.71-3.47-.19-6.93-.44-10.37-.72,3.48-.27,6.94-.61,10.39-1q5.21.56,10.49,1Zm-10.77-1q-5.21-.56-10.35-1.25c-3.44.46-6.91.89-10.39,1.25,3.46.38,6.94.7,10.44,1,3.46-.28,6.89-.62,10.3-1Zm-10.69-1.3c-3.42.46-6.87.9-10.33,1.27-3.43-.38-6.85-.81-10.24-1.27,3.45-.46,6.86-1,10.27-1.53q5.12.83,10.31,1.53ZM38.66,296q-5.13-.84-10.2-1.81c-3.39.65-6.8,1.26-10.25,1.81,3.4.56,6.82,1.07,10.26,1.54,3.42-.47,6.81-1,10.18-1.54ZM28,294.05c-3.37.65-6.76,1.27-10.18,1.84-3.39-.57-6.75-1.19-10.09-1.84q5.1-1,10.12-2.09,5,1.11,10.15,2.09Zm32.26,6.52c-3.51-.19-7-.43-10.47-.7-3.51.27-7,.52-10.58.7,3.58.19,7.18.33,10.79.42,3.44-.09,6.85-.24,10.26-.42Zm-10.67-.72c-3.49.28-7,.53-10.51.71-3.48-.19-6.93-.44-10.37-.72,3.48-.27,6.94-.61,10.39-1q5.21.56,10.49,1Zm-10.77-1q-5.21-.56-10.35-1.25c-3.45.46-6.91.89-10.39,1.25,3.46.38,6.94.7,10.44,1,3.46-.28,6.89-.62,10.31-1Zm-10.69-1.3c-3.43.46-6.87.9-10.33,1.27-3.43-.38-6.85-.81-10.24-1.27,3.44-.46,6.86-1,10.26-1.53q5.12.83,10.31,1.53Zm10.84,3c-3.51-.19-7-.43-10.47-.7-3.51.27-7,.52-10.57.7,3.58.19,7.18.33,10.79.42,3.44-.09,6.85-.24,10.26-.42Zm-10.66-.72c-3.49.28-7,.53-10.51.71-3.47-.19-6.93-.44-10.37-.72,3.48-.27,6.94-.61,10.39-1Q23,299.44,28.29,299.86Z" fill="#812a81" fill-rule="evenodd"/>
  <path d="M503.59,240,609.36,30.35A66.78,66.78,0,0,1,640.07.21H101.68L452.44,252.49A34.65,34.65,0,0,0,503.59,240Z" fill="none"/>
</svg>
