<svg version="1.1"
  xmlns="http://www.w3.org/2000/svg" xmlns:xlink="http://www.w3.org/1999/xlink" xmlns:a="http://ns.adobe.com/AdobeSVGViewerExtensions/3.0/"
  x="0px" y="0px" width="828.932px" height="272.062px" viewBox="0 0 828.932 272.062"
  style="enable-background:new 0 0 828.932 272.062;" xml:space="preserve">
<style type="text/css">
 .st0{fill-rule:evenodd;clip-rule:evenodd;fill:#C3256D;}
</style>
<defs>
</defs>
<polygon class="st0" points="8.117,0 0.646,0 0.162,203.664 0,272.062 31.015,272.062 30.046,203.735 7.634,203.682 "/>
<polygon class="st0" points="41.367,0 33.896,0 33.412,203.664 33.25,272.062 64.265,272.062 63.296,203.735 40.884,203.682 "/>
<polygon class="st0" points="74.617,0 67.146,0 66.662,203.664 66.5,272.062 97.515,272.062 96.546,203.735 74.134,203.682 "/>
<polygon class="st0" points="107.867,0 100.396,0 99.912,203.664 99.75,272.062 130.765,272.062 129.796,203.735 107.384,203.682
 "/>
<polygon class="st0" points="141.117,0 133.646,0 133.162,203.664 133,272.062 164.015,272.062 163.046,203.735 140.634,203.682 "/>
<polygon class="st0" points="174.367,0 166.896,0 166.412,203.664 166.25,272.062 197.265,272.062 196.296,203.735 173.884,203.682
 "/>
<polygon class="st0" points="207.617,0 200.146,0 199.662,203.664 199.5,272.062 230.515,272.062 229.546,203.735 207.134,203.682
 "/>
<polygon class="st0" points="240.867,0 233.396,0 232.912,203.664 232.75,272.062 263.765,272.062 262.796,203.735 240.384,203.682
 "/>
<polygon class="st0" points="274.117,0 266.646,0 266.162,203.664 266,272.062 297.015,272.062 296.046,203.735 273.634,203.682 "/>
<polygon class="st0" points="307.367,0 299.896,0 299.412,203.664 299.25,272.062 330.265,272.062 329.296,203.735 306.884,203.682
 "/>
<polygon class="st0" points="340.617,0 333.146,0 332.662,203.664 332.5,272.062 363.515,272.062 362.546,203.735 340.134,203.682
 "/>
<polygon class="st0" points="373.867,0 366.396,0 365.912,203.664 365.75,272.062 396.765,272.062 395.796,203.735 373.384,203.682
 "/>
<polygon class="st0" points="407.117,0 399.646,0 399.162,203.664 399,272.062 430.015,272.062 429.046,203.735 406.634,203.682 "/>
<polygon class="st0" points="440.367,0 432.896,0 432.412,203.664 432.25,272.062 463.265,272.062 462.296,203.735 439.884,203.682
 "/>
<polygon class="st0" points="473.617,0 466.146,0 465.662,203.664 465.5,272.062 496.515,272.062 495.546,203.735 473.134,203.682
 "/>
<polygon class="st0" points="506.867,0 499.396,0 498.912,203.664 498.75,272.062 529.765,272.062 528.796,203.735 506.384,203.682
 "/>
<polygon class="st0" points="540.117,0 532.646,0 532.162,203.664 532,272.062 563.015,272.062 562.046,203.735 539.634,203.682 "/>
<polygon class="st0" points="573.367,0 565.896,0 565.412,203.664 565.25,272.062 596.265,272.062 595.296,203.735 572.884,203.682
 "/>
<polygon class="st0" points="606.617,0 599.146,0 598.662,203.664 598.5,272.062 629.515,272.062 628.546,203.735 606.134,203.682
 "/>
<polygon class="st0" points="639.867,0 632.396,0 631.912,203.664 631.75,272.062 662.765,272.062 661.796,203.735 639.384,203.682
 "/>
<polygon class="st0" points="673.117,0 665.646,0 665.162,203.664 665,272.062 696.015,272.062 695.046,203.735 672.634,203.682 "/>
<polygon class="st0" points="706.367,0 698.896,0 698.412,203.664 698.25,272.062 729.265,272.062 728.296,203.735 705.884,203.682
 "/>
<polygon class="st0" points="739.534,0 732.062,0 731.579,203.664 731.417,272.062 762.432,272.062 761.463,203.735 739.05,203.682
 "/>
<polygon class="st0" points="772.784,0 765.312,0 764.829,203.664 764.667,272.062 795.682,272.062 794.713,203.735 772.3,203.682
 "/>
<polygon class="st0" points="806.034,0 798.562,0 798.079,203.664 797.917,272.062 828.932,272.062 827.963,203.735 805.55,203.682
 "/>
</svg>