<svg version="1.1"
	 xmlns="http://www.w3.org/2000/svg" xmlns:xlink="http://www.w3.org/1999/xlink"
	 x="0px" y="0px" width="1820.7px" height="1967.1px" viewBox="0 0 1820.7 1967.1"
	 style="enable-background:new 0 0 1820.7 1967.1;" xml:space="preserve">
<path d="M1620.7,0H200H0v1967.1h200h1420.7h200V0H1620.7z M1505.3,1042.8l-593.5,824.3h-1.7v-450.3c0-58-32.7-111.1-84.6-137.2
	l-481.8-242.9c-39.2-19.8-55-67.5-35.2-106.8c1.9-3.7,4-7.3,6.5-10.7l589-817.5c1.1-1.5,3.2-1.9,4.7-0.8c0.9,0.6,1.4,1.7,1.4,2.8
	v441.7c0,58,32.7,111.1,84.5,137.2l481.9,242.9C1520.1,947.3,1533.9,1003.1,1505.3,1042.8z"/>
</svg>
