<svg width="24px" height="24px" xmlns="http://www.w3.org/2000/svg" xmlns:xlink="http://www.w3.org/1999/xlink" viewBox="0 0 20.16 25.31">
	<defs>
		<clipPath id="a5fdfa5f-22f6-4e7a-b9b2-b7c7b70596d7">
			<path d="M10.08,18.43Zm0-9a1.14,1.14,0,0,0,.57.95l3.23,1.66a.56.56,0,0,1,.19.81l-4,5.6v3.7l6.83-3.46a1.48,1.48,0,0,0,.85-1.38V11.22a1.58,1.58,0,0,0-.85-1.38L10.08,6.43ZM9.8,2.87,3.25,6.19A1.48,1.48,0,0,0,2.4,7.57v6.12a1.58,1.58,0,0,0,.85,1.38l6.83,3.46v-3a1.14,1.14,0,0,0-.57-.95L6.29,12.88a.56.56,0,0,1-.19-.81l4-5.64V2.87Z" fill="none"/>
		</clipPath>
		<clipPath id="f81b4b4b-e6a8-403c-9e13-9a9c5291552a">
			<path d="M10.08,19.9Zm0-11.15a1.27,1.27,0,0,0,.71,1.14l4,2a.67.67,0,0,1,.24,1l-5,7v4.6l8.54-4.32a2,2,0,0,0,1-1.71V10.93a1.89,1.89,0,0,0-1-1.71L10.08,4.91ZM9.7.5,1.54,4.63a2,2,0,0,0-1,1.71v7.54a1.89,1.89,0,0,0,1,1.71l8.54,4.32V16.1A1.27,1.27,0,0,0,9.37,15l-4-2a.67.67,0,0,1-.24-1l5-7V.5Z" fill="none"/>
		</clipPath>
	</defs>
	<path id="fff98171-f17e-4b34-aa04-793743c000c5" data-name="SVGID" d="M10.08,18.43Zm0-9a1.14,1.14,0,0,0,.57.95l3.23,1.66a.56.56,0,0,1,.19.81l-4,5.6v3.7l6.83-3.46a1.48,1.48,0,0,0,.85-1.38V11.22a1.58,1.58,0,0,0-.85-1.38L10.08,6.43ZM9.8,2.87,3.25,6.19A1.48,1.48,0,0,0,2.4,7.57v6.12a1.58,1.58,0,0,0,.85,1.38l6.83,3.46v-3a1.14,1.14,0,0,0-.57-.95L6.29,12.88a.56.56,0,0,1-.19-.81l4-5.64V2.87Z" fill="#bd272c"/>
	<g clip-path="url(#a5fdfa5f-22f6-4e7a-b9b2-b7c7b70596d7)">
		<rect x="2.4" y="2.87" width="15.37" height="19.21" fill="#bd272c"/>
	</g>
	<g clip-path="url(#f81b4b4b-e6a8-403c-9e13-9a9c5291552a)">
		<rect x="0.5" y="0.5" width="19.16" height="24" fill="none" stroke="#bd272c" stroke-miterlimit="10"/>
	</g>
	<path id="775575a3-a7b5-49d7-8480-6865a8b0430d" data-name="SVGID" d="M10.08,19.9Zm0-11.15a1.27,1.27,0,0,0,.71,1.14l4,2a.67.67,0,0,1,.24,1l-5,7v4.6l8.54-4.32a2,2,0,0,0,1-1.71V10.93a1.89,1.89,0,0,0-1-1.71L10.08,4.91ZM9.7.5,1.54,4.63a2,2,0,0,0-1,1.71v7.54a1.89,1.89,0,0,0,1,1.71l8.54,4.32V16.1A1.27,1.27,0,0,0,9.37,15l-4-2a.67.67,0,0,1-.24-1l5-7V.5Z" fill="none" stroke="#bd272c" stroke-miterlimit="10"/>

</svg>
