<?xml version="1.0" encoding="UTF-8"?><!DOCTYPE svg PUBLIC "-//W3C//DTD SVG 1.1//EN" "http://www.w3.org/Graphics/SVG/1.1/DTD/svg11.dtd"><svg xmlns="http://www.w3.org/2000/svg" xmlns:xlink="http://www.w3.org/1999/xlink" xmlns:a="http://ns.adobe.com/AdobeSVGViewerExtensions/3.0/"><defs>
        <clipPath id="ac03b6ba-b607-423f-a14d-c651b63fcfee">
            <path d="M11.8,23.9Zm0-13.7a1.42,1.42,0,0,0,.9,1.4l5,2.5a.77.77,0,0,1,.3,1.2l-6.2,8.6v5.7l10.5-5.3a2.33,2.33,0,0,0,1.3-2.1V12.8a2.33,2.33,0,0,0-1.3-2.1L11.8,5.5ZM11.4,0,1.3,5.1A2.33,2.33,0,0,0,0,7.2v9.4a2.33,2.33,0,0,0,1.3,2.1L11.8,24V19.3a1.42,1.42,0,0,0-.9-1.4l-5-2.5a.77.77,0,0,1-.3-1.2l6.2-8.6V0Z" fill="none"/>
        </clipPath>
    
        <clipPath id="9542b3ce-cda2-4628-b58e-0b7a5f70fdca">
            <path d="M16.19,32.76h0Zm0-18.84a2.19,2.19,0,0,0,1.2,2l6.85,3.46A1.13,1.13,0,0,1,24.65,21L16.19,32.76v7.78l14.43-7.28a3.2,3.2,0,0,0,1.76-2.86V17.61a3.2,3.2,0,0,0-1.76-2.86L16.19,7.47ZM15.58,0,1.76,7A3.2,3.2,0,0,0,0,9.83V22.62a3.2,3.2,0,0,0,1.76,2.86l14.43,7.28V26.32a2.19,2.19,0,0,0-1.2-2L8.13,20.91a1.13,1.13,0,0,1-.41-1.67L16.19,7.48V0Z" fill="currentColor"/>
        </clipPath>
    </defs><symbol id="doc-avi" viewBox="0 0 166.4 193.6">
<path fill="#DBDBDB" d="M37.4,193.6c-1.4-0.6-2.9-1-4.2-1.7c-3.7-2.1-5.9-5.5-6-9.7c-0.2-7.2,0-14.4,0-21.7c3,0,5.9,0,9,0
	c0,0.7,0,1.3,0,2c0,6.1,0,12.2,0,18.3c0,2.6,1.1,3.7,3.7,3.7c37.9,0,75.8,0,113.6,0c2.7,0,3.8-1.1,3.8-3.8c0-43.4,0-86.7,0-130.1
	c0-1.9-0.7-2.4-2.5-2.3c-7.8,0.1-15.5,0-23.3,0c-8.3,0-13.7-5.5-13.7-13.8c0-7.8,0-15.5,0-23.3c0-1.7-0.5-2.3-2.3-2.3
	c-25.2,0-50.4,0-75.6,0c-2.8,0-3.9,1.1-3.9,3.9c0,21.6,0,43.1,0,64.7c0,1.3,0,2.5,0,3.9c-3,0-5.9,0-9,0c0-2.9,0-5.8,0-8.7
	c0-20,0-40,0-59.9C27.2,5.1,32.3,0,40.1,0c26.3,0,52.7,0,79,0c1.3,0,2.2,0.4,3.1,1.3c14.2,14.3,28.5,28.5,42.8,42.8
	c0.9,0.9,1.3,1.8,1.3,3.1c0,43.8,0,87.6,0,131.4c0,9-1.9,11.9-10.2,15C116.6,193.6,77,193.6,37.4,193.6z"/>
<g>
	<path fill="#DBDBDB" d="M52.3,112.7L52.3,112.7c-0.1,0-0.7,2.6-1.1,4.2l-2.4,7.2h7l-2.4-7.2C52.9,115.3,52.3,112.7,52.3,112.7z"/>
	<path fill="#DBDBDB" d="M129.1,93.8c-19.8,0-39.6,0-59.4,0c-20,0-40.1,0-60.1,0c-5.8,0-9.6,3.8-9.6,9.6c0,11.7,0,23.3,0,35
		c0,6.2,3.7,9.9,9.9,9.9c39.8,0,79.7,0,119.5,0c5.9,0,9.7-3.8,9.7-9.7c0-11.6,0-23.2,0-34.8C139.1,97.5,135.5,93.8,129.1,93.8z
		 M59.2,134.8l-2.3-6.9h-9.4l-2.3,6.9h-5l9.4-26.8h5.1l9.4,26.8H59.2z M78,134.8h-5.1L63.2,108h5.2l5.9,17.5c0.5,1.5,1,3.9,1,3.9
		h0.1c0,0,0.5-2.4,1-3.9l6-17.5h5.2L78,134.8z M95.9,134.8h-4.9V108h4.9V134.8z"/>
</g>
</symbol><symbol id="doc-doc" viewBox="0 0 165.2 192.2">
		<path fill="#DBDBDB" d="M37.2,192.2c-1.4-0.6-2.9-0.9-4.1-1.7c-3.7-2.1-5.8-5.4-5.9-9.6c-0.2-7.1,0-14.3,0-21.5c2.9,0,5.8,0,9,0
			c0,0.7,0,1.3,0,2c0,6.1,0,12.1,0,18.2c0,2.6,1.1,3.7,3.6,3.7c37.6,0,75.2,0,112.8,0c2.7,0,3.7-1.1,3.7-3.8c0-43,0-86.1,0-129.1
			c0-1.9-0.7-2.3-2.4-2.3c-7.7,0.1-15.4,0-23.1,0c-8.2,0-13.6-5.4-13.6-13.7c0-7.7,0-15.4,0-23.1c0-1.7-0.5-2.3-2.3-2.3
			c-25,0-50.1,0-75.1,0C37,9,36,10,36,12.9c0,21.4,0,42.8,0,64.2c0,1.2,0,2.5,0,3.9c-3,0-5.9,0-9,0c0-2.9,0-5.8,0-8.6
			c0-19.8,0-39.7,0-59.5C27,5.1,32.1,0,39.9,0C66,0,92.2,0,118.3,0c1.3,0,2.2,0.4,3.1,1.3c14.1,14.2,28.3,28.3,42.5,42.5
			c0.9,0.9,1.3,1.8,1.3,3.1c0,43.5,0,87,0,130.5c0,8.9-1.9,11.8-10.1,14.9C115.8,192.2,76.5,192.2,37.2,192.2z"/>
		<path fill="#DBDBDB" d="M69.2,93.1c19.7,0,39.4,0,59.1,0c6.1,0,9.8,3.7,9.8,9.8c0,11.5,0,23,0,34.5c0,5.9-3.7,9.6-9.6,9.6
			c-39.6,0-79.2,0-118.8,0c-6,0-9.7-3.7-9.7-9.8c0-11.6,0-23.2,0-34.7c0-5.8,3.8-9.5,9.5-9.5C29.4,93.1,49.3,93.1,69.2,93.1z
			 M83.2,120.6c-0.3-8.6-4.7-13.7-12.7-14.6c-7-0.8-12.7,2.8-14.5,9.2c-0.4,1.5-0.6,3.1-0.7,4.6c-0.6,11,8.7,18,19.1,14.2
			c3-1.1,5.4-3,6.6-6C82,125.7,82.5,123.1,83.2,120.6z M36.2,106.6C36.2,106.5,36.2,106.5,36.2,106.6c-1.6-0.1-3.2-0.1-4.9-0.1
			c-0.2,0-0.4,0-0.6,0c-2,0.2-2.9,1-2.9,3c-0.1,7.3-0.1,14.6,0,21.9c0,2.1,1,3,3,3c3.3,0.1,6.6,0.1,9.9-0.1
			c5.2-0.3,8.9-3.4,10.2-8.4c1-3.7,1-7.4,0-11.1c-1.4-4.9-5-7.9-10.1-8.3C39.3,106.5,37.7,106.6,36.2,106.6z M92.1,120.2
			c0.4-1.5,0.6-3.6,1.3-5.5c1-2.7,3.2-4.1,6.1-4.2c2.8-0.1,4.8,1.1,6.2,3.5c0.4,0.6,0.7,1.2,1.1,1.8c0.7,1.1,1.9,1.6,2.9,0.9
			c0.8-0.5,1.6-1.8,1.5-2.6c-0.3-1.5-1-3-1.9-4.1c-2.8-3.2-6.5-4.3-10.7-3.9c-7.2,0.7-11.3,5.3-12.1,13c-1,10,5.5,16.7,15.3,15.8
			c4.7-0.4,8.9-4.1,9.6-8.4c0.2-1.5-0.3-2.7-1.7-3.1c-1.5-0.5-2.5,0.2-3.1,1.7c-0.1,0.3-0.2,0.6-0.3,0.9c-1.4,3.4-3.7,4.8-7.4,4.5
			c-3-0.2-5.3-2.2-6.1-5.5C92.4,123.5,92.3,122.1,92.1,120.2z"/>
		<path fill="#DBDBDB" d="M60.9,120.4c0.4-1.7,0.6-3.4,1.1-5c1.1-3.1,3.7-4.8,6.9-4.9c3.3,0,6,1.7,7.2,4.8c1.3,3.6,1.4,7.2-0.3,10.8
			c-1.4,3-3.8,4.4-7.1,4.3c-3.2-0.1-5.5-1.8-6.6-4.7C61.5,124,61.3,122.1,60.9,120.4z"/>
		<path fill="#DBDBDB" d="M33.6,129.9c0-6.3,0-12.5,0-19c2.5,0.2,4.9,0.2,7.3,0.5c2.3,0.3,3.7,1.9,4.3,4c1,3.4,1,6.9-0.2,10.3
			c-1,2.7-2.9,4.1-5.8,4.2C37.4,129.9,35.5,129.9,33.6,129.9z"/>
</symbol><symbol id="doc-eps" viewBox="0 0 166.4 193.6">
<path fill="#DBDBDB" d="M37.4,193.6c-1.4-0.6-2.9-1-4.2-1.7c-3.7-2.1-5.9-5.5-6-9.7c-0.2-7.2,0-14.4,0-21.7c3,0,5.9,0,9,0
	c0,0.7,0,1.3,0,2c0,6.1,0,12.2,0,18.3c0,2.6,1.1,3.7,3.7,3.7c37.9,0,75.8,0,113.6,0c2.7,0,3.8-1.1,3.8-3.8c0-43.4,0-86.7,0-130.1
	c0-1.9-0.7-2.4-2.5-2.3c-7.8,0.1-15.5,0-23.3,0c-8.3,0-13.7-5.5-13.7-13.8c0-7.8,0-15.5,0-23.3c0-1.7-0.5-2.3-2.3-2.3
	c-25.2,0-50.4,0-75.6,0c-2.8,0-3.9,1.1-3.9,3.9c0,21.6,0,43.1,0,64.7c0,1.3,0,2.5,0,3.9c-3,0-5.9,0-9,0c0-2.9,0-5.8,0-8.7
	c0-20,0-40,0-59.9C27.2,5.1,32.3,0,40.1,0c26.3,0,52.7,0,79,0c1.3,0,2.2,0.4,3.1,1.3c14.2,14.3,28.5,28.5,42.8,42.8
	c0.9,0.9,1.3,1.8,1.3,3.1c0,43.8,0,87.6,0,131.4c0,9-1.9,11.9-10.2,15C116.6,193.6,77,193.6,37.4,193.6z"/>
<g>
	<path fill="#DBDBDB" d="M70.9,112.2h-4.6v9.1h4.6c2.8,0,4.5-1.8,4.5-4.6C75.3,114,73.7,112.2,70.9,112.2z"/>
	<path fill="#DBDBDB" d="M129.1,93.8c-19.8,0-39.6,0-59.4,0c-20,0-40.1,0-60.1,0c-5.8,0-9.6,3.8-9.6,9.6c0,11.7,0,23.3,0,35
		c0,6.2,3.7,9.9,9.9,9.9c39.8,0,79.7,0,119.5,0c5.9,0,9.7-3.8,9.7-9.7c0-11.6,0-23.2,0-34.8C139.1,97.5,135.5,93.8,129.1,93.8z
		 M56.6,134.8H40V108H56v4.2H44.8v7h9v4.2h-9v7.2h11.8V134.8z M71.8,125.6h-5.5v9.3h-4.9V108h10.3c5,0,8.5,3.5,8.5,8.7
		S76.8,125.6,71.8,125.6z M91.9,135.3c-3.3,0-6.8-1.2-9.2-3.7l2.6-3.7c1.6,1.4,4.2,2.8,6.6,2.8c2.4,0,3.9-1.2,3.9-3.1
		c0-5.1-12.5-4-12.5-12.4c0-4.7,3.9-7.8,9.1-7.8c2.8,0,5.7,0.9,7.9,2.9l-2.2,4c-1.5-1.3-3.8-2.3-5.9-2.3c-2.5,0-4.1,1.2-4.1,3.1
		c0,5,12.5,3.7,12.5,12.2C100.8,131.7,97.6,135.3,91.9,135.3z"/>
</g>
</symbol><symbol id="doc-exe" viewBox="0 0 165.2 192.2">
		<path fill="#DBDBDB" d="M37.2,192.2c-1.4-0.6-2.9-0.9-4.1-1.7c-3.7-2.1-5.8-5.4-5.9-9.6c-0.2-7.1,0-14.3,0-21.5c2.9,0,5.8,0,9,0
			c0,0.7,0,1.3,0,2c0,6.1,0,12.1,0,18.2c0,2.6,1.1,3.7,3.6,3.7c37.6,0,75.2,0,112.8,0c2.7,0,3.7-1.1,3.7-3.8c0-43,0-86.1,0-129.1
			c0-1.9-0.7-2.3-2.4-2.3c-7.7,0.1-15.4,0-23.1,0c-8.2,0-13.6-5.4-13.6-13.7c0-7.7,0-15.4,0-23.1c0-1.7-0.5-2.3-2.3-2.3
			c-25,0-50.1,0-75.1,0C37,9,36,10,36,12.9c0,21.4,0,42.8,0,64.2c0,1.2,0,2.5,0,3.9c-3,0-5.9,0-9,0c0-2.9,0-5.8,0-8.6
			c0-19.8,0-39.7,0-59.5C27,5.1,32.1,0,39.9,0C66,0,92.2,0,118.3,0c1.3,0,2.2,0.4,3.1,1.3c14.1,14.2,28.3,28.3,42.5,42.5
			c0.9,0.9,1.3,1.8,1.3,3.1c0,43.5,0,87,0,130.5c0,8.9-1.9,11.8-10.1,14.9C115.7,192.2,76.5,192.2,37.2,192.2z"/>
		<path fill="#DBDBDB" d="M69,147.2c-19.7,0-39.4,0-59.1,0c-6.3,0-9.9-3.6-9.9-9.9c0-11.5,0-22.9,0-34.4c0-6,3.7-9.7,9.7-9.7
			c39.5,0,79.1,0,118.6,0c6.1,0,9.8,3.7,9.8,9.8c0,11.5,0,23,0,34.5c0,5.9-3.7,9.6-9.6,9.6C108.7,147.2,88.8,147.2,69,147.2z
			 M89.7,110.8c4.3,0,8.4,0,12.5,0c1.5,0,2.7-0.5,2.7-2.1c0-1.7-1.2-2.2-2.7-2.2c-5.1,0-10.1,0-15.2,0c-2.3,0-3.2,0.9-3.2,3.2
			c-0.1,7.1-0.1,14.3,0,21.4c0,2.4,1,3.3,3.4,3.3c5.1,0,10.3,0,15.4,0c1.8,0,2.9-0.9,2.8-2.3c-0.1-1.8-1.3-2.2-2.9-2.2
			c-3.7,0-7.4,0-11.1,0c-0.6,0-1.2,0-1.8,0c0-2.8,0-5.2,0-7.9c1.9,0,3.6,0,5.3,0c2.1,0,4.3,0,6.4,0c1.3,0,2.4-0.7,2.4-2.1
			c0.1-1.5-0.9-2.1-2.3-2.2c-0.9-0.1-1.8-0.1-2.6-0.1c-3,0-6.1,0-9.3,0C89.7,115.3,89.7,113.2,89.7,110.8z M40.1,110.8
			c4.3,0,8.4,0,12.6,0c1.5,0,2.7-0.4,2.7-2.1c0-1.7-1.1-2.2-2.6-2.2c-5.1,0-10.1,0-15.2,0c-2.3,0-3.2,0.9-3.3,3.2
			c-0.1,7.1-0.1,14.3,0,21.4c0,2.5,1.1,3.3,3.5,3.3c5,0,10,0,15,0c2,0,3.1-0.8,3.1-2.2c0-1.5-1-2.3-3-2.3c-3.7,0-7.4,0-11.1,0
			c-0.5,0-1.1-0.1-1.6-0.1c0-2.6,0-5.1,0-7.8c2.7,0,5.2,0,7.7,0c1.5,0,3,0,4.5-0.1c1.2-0.1,2-0.8,2-2.1c0-1.3-0.7-2-2-2.1
			c-0.9-0.1-1.7-0.1-2.6-0.1c-3.2,0-6.3,0-9.6,0C40.1,115.3,40.1,113.2,40.1,110.8z M69.1,116c-0.7-1.1-1.2-2-1.8-2.8
			c-1.3-2-2.5-4-3.8-6c-0.9-1.3-2.2-1.6-3.6-0.8c-1.4,0.8-1.3,2.2-0.7,3.4c0.4,0.8,0.9,1.7,1.4,2.4c1.4,2.2,2.7,4.3,4.2,6.4
			c0.6,0.9,0.6,1.5,0,2.3c-1.8,2.5-3.6,5.1-5.3,7.7c-0.5,0.8-1,1.6-1.3,2.5c-0.5,1.3-0.5,2.6,0.8,3.3c1.4,0.8,2.7,0.5,3.7-0.8
			c1.2-1.6,2.2-3.3,3.3-5c1-1.5,2-2.9,3-4.6c2.1,3.2,3.9,6.2,5.8,9.1c1.1,1.6,2.6,2.1,4,1.3c1.3-0.7,1.6-2.3,0.6-4
			c-1-1.7-2.1-3.4-3.2-5.1c-1.2-1.8-3.3-3.7-3.2-5.5c0-1.9,2.1-3.8,3.3-5.7c1-1.7,2.2-3.4,3-5.2c0.3-0.7-0.1-2.2-0.7-2.5
			c-0.7-0.4-2-0.3-2.9,0c-0.6,0.2-1,1-1.4,1.7C72.6,110.7,71,113.2,69.1,116z"/>
</symbol><symbol id="doc-jpg" viewBox="0 0 165.2 192.2">
		<path fill="#DBDBDB" d="M37.2,192.2c-1.4-0.6-2.9-0.9-4.1-1.7c-3.7-2.1-5.8-5.4-5.9-9.6c-0.2-7.1,0-14.3,0-21.5c2.9,0,5.8,0,9,0
			c0,0.7,0,1.3,0,2c0,6.1,0,12.1,0,18.2c0,2.6,1.1,3.7,3.6,3.7c37.6,0,75.2,0,112.8,0c2.7,0,3.7-1.1,3.7-3.8c0-43,0-86.1,0-129.1
			c0-1.9-0.7-2.3-2.4-2.3c-7.7,0.1-15.4,0-23.1,0c-8.2,0-13.6-5.4-13.6-13.7c0-7.7,0-15.4,0-23.1c0-1.7-0.5-2.3-2.3-2.3
			c-25,0-50.1,0-75.1,0C37,9,36,10,36,12.9c0,21.4,0,42.8,0,64.2c0,1.2,0,2.5,0,3.9c-3,0-5.9,0-9,0c0-2.9,0-5.8,0-8.6
			c0-19.8,0-39.7,0-59.5C27,5.1,32.1,0,39.9,0C66,0,92.2,0,118.3,0c1.3,0,2.2,0.4,3.1,1.3c14.1,14.2,28.3,28.3,42.5,42.5
			c0.9,0.9,1.3,1.8,1.3,3.1c0,43.5,0,87,0,130.5c0,8.9-1.9,11.8-10.1,14.9C115.8,192.2,76.5,192.2,37.2,192.2z"/>
		<path fill="#DBDBDB" d="M69.2,93.1c19.7,0,39.4,0,59.1,0c6.1,0,9.8,3.7,9.8,9.8c0,11.6,0,23.2,0,34.7c0,5.6-3.8,9.5-9.4,9.5
			c-39.7,0-79.5,0-119.2,0c-5.8,0-9.5-3.8-9.5-9.5c0-11.7,0-23.4,0-35.1c0-5.6,3.8-9.4,9.5-9.4C29.4,93.1,49.3,93.1,69.2,93.1z
			 M100.9,124c0.8,4.3,0.4,4.9-3.3,6c-0.1,0-0.2,0.1-0.4,0.1c-5.9,1.6-10.4-1-11.4-6.7c-0.3-1.9-0.4-3.9-0.1-5.8
			c0.8-4.9,4-7.4,8.7-7.2c2.9,0.1,4.6,1.8,6.1,4.1c0.8,1.3,2,1.8,3.5,1.1c1.4-0.6,1.8-2.1,1.2-3.7c-0.9-2.4-2.7-3.9-5-4.8
			c-9.8-4.3-19.7,1.6-20.6,12.2c-0.6,7.1,3,13,9.2,14.9c5.6,1.7,10.9,0.8,15.8-2.4c0.8-0.5,1.5-1.9,1.6-2.9c0.3-2,0.1-4,0.1-6
			c-0.1-2.2-0.9-3.1-3.1-3.1c-2.4-0.1-4.8,0-7.1,0c-1.5,0-2.5,0.6-2.5,2.2c0,1.5,1.1,2,2.4,2C97.6,124,99.3,124,100.9,124z
			 M60.5,123.6c0.7,0,1.1-0.1,1.5-0.1c2.6-0.1,5.2,0,7.6-0.5c4.5-0.8,6.8-4.2,6.5-8.9c-0.3-4.5-3.1-7.4-7.7-7.6
			c-3.4-0.2-6.8-0.2-10.1-0.1c-2.6,0-3.5,1-3.5,3.7c0,6.9,0,13.9,0,20.8c0,2.6,0.9,3.8,2.8,3.9c1.9,0,2.9-1.3,2.9-4
			C60.5,128.6,60.5,126.2,60.5,123.6z M48.5,117.6c0.1,0,0.2,0,0.2,0c0-1.1,0-2.1,0-3.2c0-2,0-4-0.2-6c-0.1-1.6-1.2-2.5-2.8-2.4
			c-1.6,0-2.5,1-2.7,2.6c-0.1,0.7-0.1,1.4-0.1,2.1c0,4.4,0,8.9,0,13.3c0,1.2-0.1,2.5-0.4,3.7c-0.4,1.6-1.4,2.6-3.2,2.6
			c-1.8,0.1-3-0.7-3.5-2.5c-0.3-0.8-0.4-1.7-0.7-2.5c-0.4-1.4-1.3-2.3-2.9-2.1c-1.6,0.3-2.3,1.4-2.3,2.9c0,4.8,3.2,8.4,7.8,8.7
			c6.2,0.4,10.1-2.2,10.5-7.5C48.8,124.1,48.5,120.8,48.5,117.6z"/>
		<path fill="#DBDBDB" d="M60.6,110.6c2.3,0.1,4.5,0.1,6.7,0.5c2.2,0.3,3.1,1.7,3.1,4c0,2.1-1.1,3.5-3.1,3.8c-2.1,0.3-4.3,0.3-6.6,0.5
			C60.6,116.4,60.6,113.7,60.6,110.6z"/>
</symbol><symbol id="doc-mp3" viewBox="0 0 166.4 193.6">
<path fill="#DBDBDB" d="M37.4,193.6c-1.4-0.6-2.9-1-4.2-1.7c-3.7-2.1-5.9-5.5-6-9.7c-0.2-7.2,0-14.4,0-21.7c3,0,5.9,0,9,0
	c0,0.7,0,1.3,0,2c0,6.1,0,12.2,0,18.3c0,2.6,1.1,3.7,3.7,3.7c37.9,0,75.8,0,113.6,0c2.7,0,3.8-1.1,3.8-3.8c0-43.4,0-86.7,0-130.1
	c0-1.9-0.7-2.4-2.5-2.3c-7.8,0.1-15.5,0-23.3,0c-8.3,0-13.7-5.5-13.7-13.8c0-7.8,0-15.5,0-23.3c0-1.7-0.5-2.3-2.3-2.3
	c-25.2,0-50.4,0-75.6,0c-2.8,0-3.9,1.1-3.9,3.9c0,21.6,0,43.1,0,64.7c0,1.3,0,2.5,0,3.9c-3,0-5.9,0-9,0c0-2.9,0-5.8,0-8.7
	c0-20,0-40,0-59.9C27.2,5.1,32.3,0,40.1,0c26.3,0,52.7,0,79,0c1.3,0,2.2,0.4,3.1,1.3c14.2,14.3,28.5,28.5,42.8,42.8
	c0.9,0.9,1.3,1.8,1.3,3.1c0,43.8,0,87.6,0,131.4c0,9-1.9,11.9-10.2,15C116.6,193.6,77,193.6,37.4,193.6z"/>
<g>
	<path fill="#DBDBDB" d="M76.1,112.2h-4.6v9.1h4.6c2.8,0,4.5-1.8,4.5-4.6C80.6,114,78.9,112.2,76.1,112.2z"/>
	<path fill="#DBDBDB" d="M129.1,93.8c-19.8,0-39.6,0-59.4,0c-20,0-40.1,0-60.1,0c-5.8,0-9.6,3.8-9.6,9.6c0,11.7,0,23.3,0,35
		c0,6.2,3.7,9.9,9.9,9.9c39.8,0,79.7,0,119.5,0c5.9,0,9.7-3.8,9.7-9.7c0-11.6,0-23.2,0-34.8C139.1,97.5,135.5,93.8,129.1,93.8z
		 M56.3,134.8l-1.1-15c-0.2-1.8,0-4.2,0-4.2h-0.1c0,0-0.9,2.6-1.5,4.2l-4.3,10.4H45l-4.3-10.4c-0.6-1.5-1.5-4.2-1.5-4.2h-0.1
		c0,0,0.1,2.4,0,4.2l-1.1,15h-4.9l2.2-26.8h5.2l5.3,13.3c0.6,1.6,1.3,3.9,1.3,3.9h0.1c0,0,0.7-2.3,1.3-3.9l5.3-13.3H59l2.2,26.8
		H56.3z M77,125.6h-5.5v9.3h-4.9V108H77c5,0,8.5,3.5,8.5,8.7S82,125.6,77,125.6z M96.9,135.3c-3.2,0-6.5-1.2-8.9-3.6l2.5-3.7
		c1.4,1.5,3.7,2.7,6.1,2.7c2.8,0,4.8-1.7,4.8-4c0-2.8-2.6-4.2-5.7-4.2h-1.9l-1.1-2.5l4.9-5.8c1-1.2,1.9-2,1.9-2v-0.1
		c0,0-0.8,0.1-2.4,0.1h-8V108h16.4v3.1l-6.5,7.6c3.7,0.5,7.3,3.2,7.3,7.8C106.3,131.1,102.9,135.3,96.9,135.3z"/>
</g>
</symbol><symbol id="doc-mp4" viewBox="0 0 166.4 193.6">
<path fill="#DBDBDB" d="M37.4,193.6c-1.4-0.6-2.9-1-4.2-1.7c-3.7-2.1-5.9-5.5-6-9.7c-0.2-7.2,0-14.4,0-21.7c3,0,5.9,0,9,0
	c0,0.7,0,1.3,0,2c0,6.1,0,12.2,0,18.3c0,2.6,1.1,3.7,3.7,3.7c37.9,0,75.8,0,113.6,0c2.7,0,3.8-1.1,3.8-3.8c0-43.4,0-86.7,0-130.1
	c0-1.9-0.7-2.4-2.5-2.3c-7.8,0.1-15.5,0-23.3,0c-8.3,0-13.7-5.5-13.7-13.8c0-7.8,0-15.5,0-23.3c0-1.7-0.5-2.3-2.3-2.3
	c-25.2,0-50.4,0-75.6,0c-2.8,0-3.9,1.1-3.9,3.9c0,21.6,0,43.1,0,64.7c0,1.3,0,2.5,0,3.9c-3,0-5.9,0-9,0c0-2.9,0-5.8,0-8.7
	c0-20,0-40,0-59.9C27.2,5.1,32.3,0,40.1,0c26.3,0,52.7,0,79,0c1.3,0,2.2,0.4,3.1,1.3c14.2,14.3,28.5,28.5,42.8,42.8
	c0.9,0.9,1.3,1.8,1.3,3.1c0,43.8,0,87.6,0,131.4c0,9-1.9,11.9-10.2,15C116.6,193.6,77,193.6,37.4,193.6z"/>
<g>
	<path fill="#DBDBDB" d="M98,115.2l-6.2,8.6v0.1h7.4v-8.3c0-1.3,0.2-2.8,0.2-2.8h-0.1C99.3,112.8,98.7,114.2,98,115.2z"/>
	<path fill="#DBDBDB" d="M75.5,112.2h-4.6v9.1h4.6c2.8,0,4.5-1.8,4.5-4.6C79.9,114,78.2,112.2,75.5,112.2z"/>
	<path fill="#DBDBDB" d="M129.1,93.8c-19.8,0-39.6,0-59.4,0c-20,0-40.1,0-60.1,0c-5.8,0-9.6,3.8-9.6,9.6c0,11.7,0,23.3,0,35
		c0,6.2,3.7,9.9,9.9,9.9c39.8,0,79.7,0,119.5,0c5.9,0,9.7-3.8,9.7-9.7c0-11.6,0-23.2,0-34.8C139.1,97.5,135.5,93.8,129.1,93.8z
		 M55.6,134.8l-1.1-15c-0.2-1.8,0-4.2,0-4.2h-0.1c0,0-0.9,2.6-1.5,4.2l-4.3,10.4h-4.2L40,119.9c-0.6-1.5-1.5-4.2-1.5-4.2h-0.1
		c0,0,0.1,2.4,0,4.2l-1.1,15h-4.9l2.2-26.8h5.2l5.3,13.3c0.6,1.6,1.3,3.9,1.3,3.9h0.1c0,0,0.7-2.3,1.3-3.9l5.3-13.3h5.2l2.2,26.8
		H55.6z M76.3,125.6h-5.5v9.3h-4.9V108h10.3c5,0,8.5,3.5,8.5,8.7S81.3,125.6,76.3,125.6z M107.5,127.9H104v6.9h-4.8v-6.9H86.7v-3
		L98.3,108h5.7v15.9h3.5V127.9z"/>
</g>
</symbol><symbol id="doc-pdf" viewBox="0 0 165.2 192.2">
		<path fill="#DBDBDB" d="M37.2,192.2c-1.4-0.6-2.9-0.9-4.1-1.7c-3.7-2.1-5.8-5.4-5.9-9.6c-0.2-7.1,0-14.3,0-21.5c2.9,0,5.8,0,9,0
			c0,0.7,0,1.3,0,2c0,6.1,0,12.1,0,18.2c0,2.6,1.1,3.7,3.6,3.7c37.6,0,75.2,0,112.8,0c2.7,0,3.7-1.1,3.7-3.8c0-43,0-86.1,0-129.1
			c0-1.9-0.7-2.3-2.4-2.3c-7.7,0.1-15.4,0-23.1,0c-8.2,0-13.6-5.4-13.6-13.7c0-7.7,0-15.4,0-23.1c0-1.7-0.5-2.3-2.3-2.3
			c-25,0-50.1,0-75.1,0C37,9,36,10,36,12.9c0,21.4,0,42.8,0,64.2c0,1.2,0,2.5,0,3.9c-3,0-5.9,0-9,0c0-2.9,0-5.8,0-8.6
			c0-19.8,0-39.7,0-59.5C27,5.1,32.1,0,39.9,0C66,0,92.2,0,118.3,0c1.3,0,2.2,0.4,3.1,1.3c14.1,14.2,28.3,28.3,42.5,42.5
			c0.9,0.9,1.3,1.8,1.3,3.1c0,43.5,0,87,0,130.5c0,8.9-1.9,11.8-10.1,14.9C115.8,192.2,76.5,192.2,37.2,192.2z"/>
		<path fill="#DBDBDB" d="M68.9,147.2c-19.7,0-39.4,0-59.1,0c-6.1,0-9.8-3.7-9.8-9.8c0-11.5,0-23,0-34.5c0-5.9,3.7-9.6,9.6-9.6
			c39.6,0,79.2,0,118.8,0c6,0,9.7,3.7,9.7,9.7c0,11.6,0,23.2,0,34.7c0,5.8-3.8,9.5-9.5,9.5C108.7,147.2,88.8,147.2,68.9,147.2z
			 M58.9,120.3L58.9,120.3c0,3.6,0,7.3,0,10.9c0,2.2,0.9,3.2,3,3.2c3.3,0.1,6.6,0.1,9.9,0c5.1-0.3,8.8-3.3,10.2-8.2
			c1-3.5,1.1-7,0.2-10.6c-1.4-5.8-4.9-8.8-10.8-9.1c-3.1-0.2-6.1-0.1-9.2-0.1c-2.4,0-3.3,1-3.4,3.5
			C58.9,113.4,58.9,116.9,58.9,120.3z M38.6,123.8c3.2-0.2,6.2-0.2,9.1-0.6c4.6-0.8,6.8-4.2,6.5-9.2c-0.3-4.3-3.1-7.1-7.6-7.3
			c-3.2-0.2-6.5-0.1-9.7-0.1c-3.2,0-4,0.8-4,4c0,6.7,0,13.5,0,20.2c0,0.7-0.1,1.7,0.3,2.2c0.6,0.8,1.5,1.6,2.4,1.9
			c1.3,0.4,2.3-0.5,2.7-1.7c0.2-0.8,0.3-1.7,0.3-2.6C38.6,128.2,38.6,126,38.6,123.8z M93.4,122.3c1.8,0,3.2,0,4.7,0
			c1.7,0,3.4,0,5.1-0.1c1.2-0.1,2-0.7,2-2c0-1.4-0.8-2-2.1-2.2c-0.6-0.1-1.1,0-1.7,0c-2.6,0-5.2,0-7.9,0c0-2.5,0-4.7,0-7.1
			c3.7,0,7.1,0,10.6,0c1.5,0,2.8-0.3,2.9-2.1c0.1-1.5-0.9-2.2-3-2.3c-0.2,0-0.4,0-0.6,0c-3.9,0-7.9,0-11.8,0c-3.4,0-4.1,0.8-4.1,4.2
			c0,6.4,0,12.7,0,19.1c0,0.9,0,1.8,0.1,2.6c0.2,1.5,1.1,2.4,2.6,2.4c1.5,0.1,2.5-0.7,2.8-2.2c0.2-0.7,0.2-1.5,0.2-2.2
			C93.4,127.8,93.4,125.2,93.4,122.3z"/>
		<path fill="#DBDBDB" d="M64.7,129.9c0-6.3,0-12.5,0-19c2.5,0.1,4.8,0.1,7.1,0.4c2.3,0.3,3.8,1.9,4.5,4c1,3.4,1,6.9-0.2,10.3
			c-0.9,2.7-2.9,4.1-5.8,4.2C68.5,129.9,66.6,129.9,64.7,129.9z"/>
		<path fill="#DBDBDB" d="M38.7,119.4c0-3.1,0-5.7,0-8.7c2.3,0.1,4.5,0.1,6.7,0.5c2.1,0.3,3,1.7,3,3.9c0,2-1,3.6-3,3.9
			C43.2,119.2,41,119.2,38.7,119.4z"/>
</symbol><symbol id="doc-png" viewBox="0 0 165.2 192.2">
		<path fill="#DBDBDB" d="M37.2,192.2c-1.4-0.6-2.9-0.9-4.1-1.7c-3.7-2.1-5.8-5.4-5.9-9.6c-0.2-7.1,0-14.3,0-21.5c2.9,0,5.8,0,9,0
			c0,0.7,0,1.3,0,2c0,6.1,0,12.1,0,18.2c0,2.6,1.1,3.7,3.6,3.7c37.6,0,75.2,0,112.8,0c2.7,0,3.7-1.1,3.7-3.8c0-43,0-86.1,0-129.1
			c0-1.9-0.7-2.3-2.4-2.3c-7.7,0.1-15.4,0-23.1,0c-8.2,0-13.6-5.4-13.6-13.7c0-7.7,0-15.4,0-23.1c0-1.7-0.5-2.3-2.3-2.3
			c-25,0-50.1,0-75.1,0C37,9,36,10,36,12.9c0,21.4,0,42.8,0,64.2c0,1.2,0,2.5,0,3.9c-3,0-5.9,0-9,0c0-2.9,0-5.8,0-8.6
			c0-19.8,0-39.7,0-59.5C27,5.1,32.1,0,39.9,0C66,0,92.2,0,118.3,0c1.3,0,2.2,0.4,3.1,1.3c14.1,14.2,28.3,28.3,42.5,42.5
			c0.9,0.9,1.3,1.8,1.3,3.1c0,43.5,0,87,0,130.5c0,8.9-1.9,11.8-10.1,14.9C115.8,192.2,76.5,192.2,37.2,192.2z"/>
		<path fill="#DBDBDB" d="M69.3,93.1c19.6,0,39.3,0,58.9,0c6.3,0,9.9,3.6,9.9,9.9c0,11.5,0,23,0,34.5c0,5.9-3.8,9.6-9.6,9.6
			c-39.5,0-79.1,0-118.6,0c-6.2,0-9.8-3.6-9.8-9.8c0-11.6,0-23.2,0-34.7c0-5.8,3.8-9.5,9.6-9.5C29.5,93.1,49.4,93.1,69.3,93.1z
			 M73.1,125c-0.1,0-0.3,0.1-0.4,0.1c-0.3-0.5-0.7-1-1-1.5c-3.4-5.2-6.9-10.4-10.3-15.6c-1.6-2.4-4.1-2.8-5.6-0.8
			c-0.6,0.8-0.8,2-0.9,3c-0.1,7.1,0,14.1,0,21.2c0,0.7,0,1.6,0.4,2c0.7,0.7,1.7,1.5,2.5,1.4c0.8-0.1,1.7-1,2.3-1.8
			c0.4-0.6,0.2-1.6,0.2-2.4c0-4.3,0-8.5,0-12.8c0-0.6,0.1-1.2,0.1-2.2c0.6,0.9,1,1.4,1.3,1.9c3.3,5,6.6,10,9.9,15
			c1.4,2.1,3.1,2.9,4.9,2.2c2-0.8,1.9-2.6,1.9-4.3c0-6.9,0-13.8,0-20.6c0-0.7,0.1-1.6-0.3-2c-0.7-0.8-1.7-1.8-2.5-1.7
			c-0.8,0-1.8,1.1-2.3,1.9c-0.4,0.6-0.2,1.6-0.2,2.4C73.1,115.3,73.1,120.1,73.1,125z M104.6,124c0.4,5.3,0.8,4.6-3.7,6.1
			c-0.1,0-0.1,0-0.2,0.1c-5.7,1.4-10.1-0.9-11.1-6.2c-0.5-2.3-0.4-4.8,0-7c0.6-3.4,2.7-5.8,6.2-6.4c3.5-0.6,6.3,0.5,8.1,3.6
			c0.2,0.4,0.5,0.9,0.8,1c1,0.2,2.3,0.7,3,0.3c0.7-0.4,1.4-1.9,1.3-2.7c-0.3-1.3-1.2-2.6-2.1-3.6c-1.9-2-4.5-2.7-7.3-3.1
			c-7.7-0.9-14.1,3-15.7,9.9c-0.5,2-0.7,4.1-0.5,6.1c0.4,5.6,2.9,10,8.5,11.9c5.7,2,11.3,1.1,16.3-2.1c0.9-0.6,1.6-1.9,1.7-3
			c0.3-2,0.1-4,0.1-6c0-2-0.9-2.9-2.8-3c-2.5-0.1-5-0.1-7.5,0c-1.4,0-2.3,0.6-2.4,2.1c-0.1,1.5,1,2.1,2.3,2.1
			C101.2,124,102.8,124,104.6,124z M34.5,123.6c1.5,0,2.7,0.1,4,0c1.8-0.1,3.6-0.1,5.4-0.5c4.3-0.9,6.6-4.3,6.3-8.9
			c-0.4-4.5-3-7.3-7.5-7.6c-3.4-0.2-6.9-0.2-10.3-0.1c-2.6,0-3.5,1-3.5,3.5c0,4.8,0,9.6,0,14.4c0,2.5,0,5,0,7.5
			c0,1.6,0.8,2.8,2.5,2.9c1.6,0.1,2.8-0.8,3.1-2.6c0.1-0.6,0.1-1.2,0.1-1.9C34.5,128.2,34.5,126,34.5,123.6z"/>
		<path fill="#DBDBDB" d="M34.6,119.4c0-3.1,0-5.8,0-8.8c2.3,0.1,4.6,0.1,6.7,0.5c2.1,0.3,2.9,1.6,3,3.7c0,2.1-0.8,3.6-2.9,4
			C39.3,119.2,37,119.2,34.6,119.4z"/>
</symbol><symbol id="doc-psd" viewBox="0 0 165.2 192.2">
		<path fill="#DBDBDB" d="M37.2,192.2c-1.4-0.6-2.9-0.9-4.1-1.7c-3.7-2.1-5.8-5.4-5.9-9.6c-0.2-7.1,0-14.3,0-21.5c2.9,0,5.8,0,9,0
			c0,0.7,0,1.3,0,2c0,6.1,0,12.1,0,18.2c0,2.6,1.1,3.7,3.6,3.7c37.6,0,75.2,0,112.8,0c2.7,0,3.7-1.1,3.7-3.8c0-43,0-86.1,0-129.1
			c0-1.9-0.7-2.3-2.4-2.3c-7.7,0.1-15.4,0-23.1,0c-8.2,0-13.6-5.4-13.6-13.7c0-7.7,0-15.4,0-23.1c0-1.7-0.5-2.3-2.3-2.3
			c-25,0-50.1,0-75.1,0C37,9,36,10,36,12.9c0,21.4,0,42.8,0,64.2c0,1.2,0,2.5,0,3.9c-3,0-5.9,0-9,0c0-2.9,0-5.8,0-8.6
			c0-19.8,0-39.7,0-59.5C27,5.1,32.1,0,39.9,0C66,0,92.2,0,118.3,0c1.3,0,2.2,0.4,3.1,1.3c14.1,14.2,28.3,28.3,42.5,42.5
			c0.9,0.9,1.3,1.8,1.3,3.1c0,43.5,0,87,0,130.5c0,8.9-1.9,11.8-10.1,14.9C115.8,192.2,76.5,192.2,37.2,192.2z"/>
		<path fill="#DBDBDB" d="M69.1,93.1c19.7,0,39.4,0,59.1,0c6.3,0,9.9,3.6,9.9,9.9c0,11.5,0,23,0,34.5c0,5.9-3.8,9.6-9.6,9.6
			c-39.5,0-79.1,0-118.6,0c-6.2,0-9.8-3.6-9.8-9.8c0-11.6,0-23.2,0-34.7c0-5.8,3.8-9.5,9.6-9.5C29.4,93.1,49.2,93.1,69.1,93.1z
			 M83.7,120.4C83.7,120.4,83.7,120.4,83.7,120.4c0,3.6,0,7.1,0,10.7c0,2.4,1,3.3,3.4,3.3c3.1,0,6.1,0.1,9.2,0
			c5.4-0.2,9.3-3.3,10.7-8.6c0.9-3.4,1-6.8,0.1-10.2c-1.4-5.7-4.9-8.8-10.8-9.1c-3.1-0.2-6.1-0.1-9.2-0.1c-2.5,0-3.4,1-3.4,3.6
			C83.7,113.6,83.7,117,83.7,120.4z M67.7,134.9c2.7,0,5.4-0.4,7.7-2c2.8-1.9,3.8-4.7,3.5-8c-0.3-2.9-2-4.8-4.6-5.9
			c-1.3-0.6-2.6-1-3.9-1.4c-1.8-0.6-3.7-1-5.6-1.6c-1.3-0.4-2.4-1.3-2.3-2.9c0.1-1.6,1.2-2.4,2.6-2.8c2.5-0.7,5.8-0.7,7.6,3.3
			c0.8,1.7,2.2,2.3,3.5,1.6c1.5-0.8,2-2.3,1.2-3.7c-0.9-1.5-2-3.2-3.4-4c-4.3-2.4-9-2.3-13.3,0.1c-4.9,2.7-4.8,9.6,0.1,12.3
			c1.7,0.9,3.7,1.4,5.6,2.1c1.7,0.6,3.4,0.8,5,1.6c2.4,1.2,2.5,4.1,0.5,5.7c-3,2.5-7.9,1.5-9.6-2c-0.4-0.7-0.5-1.7-1.1-2.1
			c-0.8-0.6-1.9-1.1-2.7-0.9c-0.7,0.2-1.6,1.4-1.6,2.1c0,1.2,0.4,2.5,1,3.5C59.9,133.9,63.6,134.9,67.7,134.9z M37.3,123.6
			c1.4,0,2.5,0,3.7,0c1.8-0.1,3.6-0.1,5.4-0.4c4.6-0.9,6.9-4.1,6.6-9.2c-0.3-4.3-3.2-7.1-7.7-7.4c-3.2-0.2-6.4-0.1-9.6-0.1
			c-3.2,0-4.1,0.9-4.1,4.1c0,6.7,0,13.4,0,20.1c0,0.7,0.1,1.5,0.2,2.2c0.4,1.4,1.4,2,2.8,2c1.5-0.1,2.3-0.9,2.6-2.3
			c0.1-0.7,0.1-1.5,0.1-2.2C37.3,128.2,37.3,126,37.3,123.6z"/>
		<path fill="#DBDBDB" d="M89.6,110.9c2.5,0.1,4.8,0.2,7.2,0.5c2.5,0.3,4,2.1,4.6,4.4c0.9,3.1,0.8,6.3-0.1,9.4c-0.9,3.1-3,4.6-6.2,4.7
			c-1.7,0-3.5,0-5.4,0C89.6,123.7,89.6,117.5,89.6,110.9z"/>
		<path fill="#DBDBDB" d="M37.3,110.6c2.5,0.2,4.8,0.2,7,0.5c2,0.3,2.7,1.8,2.9,3.6c0.2,1.9-0.7,3.5-2.5,3.9c-2.1,0.4-4.3,0.5-6.5,0.6
			c-0.3,0-0.8-0.6-0.8-0.9C37.3,115.9,37.3,113.4,37.3,110.6z"/>
</symbol><symbol id="doc-zip" viewBox="0 0 165.2 192.2">
		<path fill="#DBDBDB" d="M37.2,192.2c-1.4-0.6-2.9-0.9-4.1-1.7c-3.7-2.1-5.8-5.4-5.9-9.6c-0.2-7.1,0-14.3,0-21.5c2.9,0,5.8,0,9,0
			c0,0.7,0,1.3,0,2c0,6.1,0,12.1,0,18.2c0,2.6,1.1,3.7,3.6,3.7c37.6,0,75.2,0,112.8,0c2.7,0,3.7-1.1,3.7-3.8c0-43,0-86.1,0-129.1
			c0-1.9-0.7-2.3-2.4-2.3c-7.7,0.1-15.4,0-23.1,0c-8.2,0-13.6-5.4-13.6-13.7c0-7.7,0-15.4,0-23.1c0-1.7-0.5-2.3-2.3-2.3
			c-25,0-50.1,0-75.1,0C37,9,36,10,36,12.9c0,21.4,0,42.8,0,64.2c0,1.2,0,2.5,0,3.9c-3,0-5.9,0-9,0c0-2.9,0-5.8,0-8.6
			c0-19.8,0-39.7,0-59.5C27,5.1,32.1,0,39.9,0C66,0,92.2,0,118.3,0c1.3,0,2.2,0.4,3.1,1.3c14.1,14.2,28.3,28.3,42.5,42.5
			c0.9,0.9,1.3,1.8,1.3,3.1c0,43.5,0,87,0,130.5c0,8.9-1.9,11.8-10.1,14.9C115.8,192.2,76.5,192.2,37.2,192.2z"/>
		<path fill="#DBDBDB" d="M69.2,93.1c19.7,0,39.4,0,59.1,0c6.2,0,9.8,3.7,9.8,9.8c0,11.6,0,23.2,0,34.7c0,5.7-3.8,9.5-9.6,9.5
			c-39.7,0-79.3,0-119,0c-5.8,0-9.5-3.7-9.5-9.5c0-11.7,0-23.4,0-35.1c0-5.6,3.8-9.4,9.5-9.4C29.4,93.1,49.3,93.1,69.2,93.1z
			 M44.8,130.2c0.7-0.8,1-1.4,1.5-1.9c2.9-3.5,5.9-7,8.8-10.5c1.6-2,3.5-3.8,4.8-6c0.6-1.1,0.7-2.8,0.3-4c-0.2-0.7-1.9-1.3-3-1.3
			c-5.1-0.1-10.3-0.1-15.4-0.1c-1.4,0-2.7,0.4-2.8,2.1c-0.1,1.4,0.9,2.2,2.8,2.2c3.4,0,6.9,0,10.3,0c0.4,0,0.9,0.1,1.5,0.2
			c-0.6,0.7-0.9,1.2-1.3,1.7c-4.6,5.5-9.1,10.9-13.7,16.4c-0.9,1.1-1.7,2.3-0.8,3.5c0.6,0.9,1.8,1.8,2.8,1.8
			c6.4,0.2,12.9,0.1,19.3,0.1c1.3,0,2.1-0.8,2.1-2.1c0-1.4-0.9-2-2.2-2c-0.5,0-1,0-1.5,0C54,130.2,49.6,130.2,44.8,130.2z
			 M83.5,123.8c3.3-0.2,6.3-0.2,9.3-0.7c4.5-0.8,6.7-4.2,6.4-9.1c-0.3-4.2-3.1-7.1-7.6-7.3c-3.3-0.2-6.6-0.2-9.9-0.1
			c-3,0-3.9,1-3.9,4c0,6.8,0,13.5,0,20.3c0,0.8,0.1,1.6,0.3,2.4c0.4,1.3,1.5,2.1,2.7,1.7c0.9-0.3,1.9-1.1,2.4-1.9
			c0.4-0.6,0.2-1.6,0.2-2.4C83.5,128.3,83.5,126,83.5,123.8z M71.5,120.3C71.5,120.3,71.5,120.3,71.5,120.3c0-3.5,0-7,0-10.5
			c0-2.6-1-3.9-2.8-3.9c-1.8,0-2.9,1.3-2.9,3.8c0,0.1,0,0.2,0,0.4c0,6.9,0,13.9,0,20.8c0,0.6,0.1,1.1,0.2,1.7
			c0.3,1.5,1.2,2.3,2.8,2.3c1.5,0,2.4-0.9,2.7-2.4c0.1-0.7,0.1-1.4,0.1-2.1C71.5,127.1,71.5,123.7,71.5,120.3z"/>
		<path fill="#DBDBDB" d="M83.7,110.6c2.3,0.2,4.5,0.1,6.7,0.5c2.1,0.3,3.1,1.8,3.1,3.9c0,2-1.1,3.4-3.1,3.9c-0.8,0.2-1.6,0.3-2.4,0.3
			c-1.4,0.1-2.7,0-4.3,0C83.7,116.4,83.7,113.7,83.7,110.6z"/>
</symbol><symbol id="icon-arrow-drop-bottom" viewBox="0 0 15.6 9.2">
    <title>icon-arrow-drop-bottom</title>
    <polyline points="14.2 1.4 7.8 7.8 1.4 1.4" fill="none" stroke="currentColor" stroke-linecap="square" stroke-miterlimit="10" stroke-width="2" opacity="0.5" style="isolation: isolate"/>
</symbol><symbol id="icon-arrow-prev" viewBox="0 0 26.9 12.3">
    <line x1="25.94" y1="6.15" x2="2.94" y2="6.15" fill="none" stroke="currentColor" stroke-linecap="square" stroke-miterlimit="10" stroke-width="2"/>
    <polyline points="6.14 10.9 1.44 6.2 6.14 1.4" fill="none" stroke="currentColor" stroke-linecap="square" stroke-miterlimit="10" stroke-width="2"/>
</symbol><symbol id="icon-arrow-top" viewBox="0 0 13.22 27.45">
  <line x1="6.61" y1="27.45" x2="6.61" y2="1.41" fill="none" stroke="currentColor" stroke-miterlimit="10" stroke-width="2"/>
  <polyline points="0.71 7.32 6.61 1.41 12.51 7.32" fill="none" stroke="currentColor" stroke-miterlimit="10" stroke-width="2"/>
</symbol><symbol id="icon-arrow" viewBox="0 0 26.9 12.3">
    <title>icon-arrow</title>
    <line x1="1" y1="6.1" x2="24" y2="6.1" fill="none" stroke="currentColor" stroke-linecap="square" stroke-miterlimit="10" stroke-width="2"/>
    <polyline points="20.8 1.4 25.5 6.1 20.8 10.9" fill="none" stroke="currentColor" stroke-linecap="square" stroke-miterlimit="10" stroke-width="2"/>
</symbol><symbol id="icon-buy" viewBox="0 0 16 16">
    <rect fill="none" stroke="currentColor" stroke-miterlimit="10" x="0.5" y="0.5" width="15" height="15"/>
    <path fill="none" stroke="currentColor" stroke-miterlimit="10" d="M12.3,0.5C12.3,4.6,10.4,8,8,8S3.7,4.6,3.7,0.5"/>
</symbol><symbol id="icon-close" viewBox="0 0 15.6 15.6">
    <title>icon-close</title>
    <g>
        <line x1="1.4" y1="14.2" x2="14.2" y2="1.4" fill="none" stroke="#fff" stroke-linecap="square" stroke-miterlimit="10" stroke-width="2"/>
        <line x1="14.2" y1="14.2" x2="1.4" y2="1.4" fill="none" stroke="#fff" stroke-linecap="square" stroke-miterlimit="10" stroke-width="2"/>
    </g>
</symbol><symbol id="icon-info" viewBox="0 0 27.3 27.3">
<path fill="currentColor" d="M27.3,13.7c0,7.5-6.1,13.6-13.6,13.7C6.1,27.3,0,21.3,0,13.7C0,6.2,6,0,13.6,0C21.2,0,27.3,6,27.3,13.7z
	 M2.5,13.7c0,6.2,5,11.2,11.2,11.2c6.2,0,11.2-5,11.2-11.2c0-6.2-5-11.1-11.2-11.1C7.5,2.5,2.5,7.5,2.5,13.7z"/>
<path fill="currentColor" d="M15.7,20c-0.7,0.3-1.4,0.7-2.1,0.8c-1.4,0.1-2.3-0.7-2.3-2.1c0-1,0.3-2,0.5-3c0.2-0.8,0.3-1.5,0.5-2.3
	c0-0.3,0-0.5,0-0.8c0-0.4-0.3-0.6-0.7-0.6c-0.2,0-0.4,0.1-0.6,0c-0.1,0-0.2-0.1-0.3-0.2c0-0.2-0.1-0.5,0-0.5
	c0.8-0.4,1.5-0.8,2.4-0.8c1.1,0,1.8,0.8,1.9,1.8c0,0.9-0.2,1.8-0.4,2.7c-0.2,1-0.4,1.9-0.6,2.9c0,0.1,0,0.3,0,0.4c0,0.7,0.3,1,1,0.9
	c0.2,0,0.4-0.1,0.5,0C15.6,19.5,15.6,19.8,15.7,20z"/>
<path fill="currentColor" d="M12.2,7.8c0-1,0.8-1.9,1.8-1.9c1,0,1.8,0.8,1.8,1.9c0,1-0.8,1.9-1.8,1.9C13,9.6,12.2,8.8,12.2,7.8z"/>
</symbol><symbol id="icon-logo-small" viewBox="0 0 10.39 15.16">
  <path d="M10.26,8.09l-5.07,7v0h0v0h0V11.28a1.31,1.31,0,0,0-.72-1.17L.37,8A.68.68,0,0,1,.13,7L5.19,0V3.85A1.31,1.31,0,0,0,5.91,5L10,7.09A.68.68,0,0,1,10.26,8.09Z"/>
</symbol><symbol id="icon-logo" viewBox="0 0 23.7 29.6">
    
    <title>icon-logo</title>
    <path id="clippath4" data-name="SVGID" d="M11.8,23.9Zm0-13.7a1.42,1.42,0,0,0,.9,1.4l5,2.5a.77.77,0,0,1,.3,1.2l-6.2,8.6v5.7l10.5-5.3a2.33,2.33,0,0,0,1.3-2.1V12.8a2.33,2.33,0,0,0-1.3-2.1L11.8,5.5ZM11.4,0,1.3,5.1A2.33,2.33,0,0,0,0,7.2v9.4a2.33,2.33,0,0,0,1.3,2.1L11.8,24V19.3a1.42,1.42,0,0,0-.9-1.4l-5-2.5a.77.77,0,0,1-.3-1.2l6.2-8.6V0Z" fill="currentColor"/>
    <g clip-path="url(#ac03b6ba-b607-423f-a14d-c651b63fcfee)">
        <rect width="23.7" height="29.6" fill="currentColor"/>
    </g>
</symbol><symbol id="icon-logos" viewBox="0 0 109.4 68.1">
    <path fill="currentColor" d="M46.1,36.4L23.3,68l0,0.1h0V68v0v-4V50.7c0-2.2-1.2-4.3-3.2-5.3L1.7,36.1c-1.7-0.8-2.2-3-1.1-4.5L23.3,0
        v12.8v4.5c0,2.2,1.3,4.3,3.2,5.3L45,31.9C46.7,32.7,47.2,34.8,46.1,36.4z"/>
    <path fill="currentColor" d="M108.9,36.4L86.1,68l0,0.1h0V68v0v-4V50.7c0-2.2-1.2-4.3-3.2-5.3l-18.4-9.3c-1.7-0.8-2.2-3-1.1-4.5L86.1,0
        v12.8v4.5c0,2.2,1.3,4.3,3.2,5.3l18.4,9.3C109.4,32.7,110,34.8,108.9,36.4z"/>
</symbol><symbol id="icon-play" viewBox="0 0 129.07 129.07">
    <title>icon-play</title>
    <path d="M64.37,4c.61,0,1.24,0,1.86,0a60.53,60.53,0,0,1-1.51,121c-.58,0-1.16,0-1.75,0A60.54,60.54,0,0,1,64.37,4m0-4A64.51,64.51,0,0,0,0,62.86C-1,98.33,27.2,128,62.86,129.05c.62,0,1.24,0,1.86,0a64.45,64.45,0,0,0,64.32-63,63.74,63.74,0,0,0-17.48-45.77A64.38,64.38,0,0,0,66.35,0l-2,0Z"/>
    <path d="M43.62,64.52v-22a16.39,16.39,0,0,1,.08-2c.4-3.11,2.71-4.47,5.55-3.11,2.19,1,4.27,2.35,6.38,3.57q16.82,9.81,33.62,19.64a9.91,9.91,0,0,1,2.15,1.65,3.36,3.36,0,0,1,0,4.89,9.54,9.54,0,0,1-2,1.57L50.79,91.07l-.11.06c-4,2.24-6.8.68-6.82-3.89,0-7.58,0-15.15,0-22.72Z" style="isolation: isolate"/>
</symbol><symbol id="icon-search" viewBox="0 0 17.7 18.47">
  <title>icon-search</title>
  <g>
    <circle cx="7.85" cy="7.85" r="6.85" fill="none" stroke="currentColor" stroke-miterlimit="10" stroke-width="2"/>
    <line x1="12.3" y1="13.07" x2="17" y2="17.76" fill="none" stroke="currentColor" stroke-miterlimit="10" stroke-width="2"/>
  </g>
</symbol><symbol id="icon-send" viewBox="0 0 30 30">
  <title>icon-send</title>
  <path fill="currentColor" d="M29.53.18A1,1,0,0,1,30,1.26L25.7,27a1.06,1.06,0,0,1-.54.75,1,1,0,0,1-.52.13,1.13,1.13,0,0,1-.4-.08l-7.58-3.1-4.05,4.94a1,1,0,0,1-.82.39.91.91,0,0,1-.37-.07,1.07,1.07,0,0,1-.7-1V23.09L25.18,5.36,7.28,20.84.67,18.13a1.06,1.06,0,0,1-.13-1.91L28.39.15A1,1,0,0,1,28.93,0,1,1,0,0,1,29.53.18Z"/>
</symbol><symbol id="logo" viewBox="0 0 244.02 40.54">
    
    <title>logo</title>
    <g>
        <path d="M60,19.49a10.12,10.12,0,0,0-3.25-.82l-4.67-.54a7.5,7.5,0,0,1-1.56-.31,1.72,1.72,0,0,1-1-.74,1.77,1.77,0,0,1-.11-1.25,1.89,1.89,0,0,1,1.06-1.15A7.05,7.05,0,0,1,53,14.16a13.73,13.73,0,0,1,5,.56A11.21,11.21,0,0,1,60.57,16q.74-1.12,1.46-2.24a11.79,11.79,0,0,0-4.3-1.91,17.07,17.07,0,0,0-3.36-.37h-.71a12.41,12.41,0,0,0-3.82.64,5.52,5.52,0,0,0-2.8,2,4.48,4.48,0,0,0-.56,3.44,3.62,3.62,0,0,0,1.08,1.92,5.34,5.34,0,0,0,2.11,1.13,13.25,13.25,0,0,0,2.47.45l4.62.51a6.32,6.32,0,0,1,1.76.36,1.79,1.79,0,0,1,1,.87,2,2,0,0,1-.22,2,3.46,3.46,0,0,1-1.76,1,12.74,12.74,0,0,1-4.6.25,12.06,12.06,0,0,1-5.65-2.12c-.48.79-1,1.57-1.44,2.37a12.73,12.73,0,0,0,4.33,2,16.46,16.46,0,0,0,3.8.47h.6A12.6,12.6,0,0,0,60,27.65a4.59,4.59,0,0,0,2.4-2.76A4.84,4.84,0,0,0,62,21.23a4.5,4.5,0,0,0-2-1.75" fill="currentColor"/>
        <path d="M173.28,21.35a4.34,4.34,0,0,0-1.88-1.76,9.77,9.77,0,0,0-3.45-.91l-4.67-.54a5.86,5.86,0,0,1-1.94-.47,1.39,1.39,0,0,1-.74-.86,1.78,1.78,0,0,1,.12-1.25,2.12,2.12,0,0,1,1.11-.93,7.79,7.79,0,0,1,2.56-.47,14.49,14.49,0,0,1,4.11.36A10.91,10.91,0,0,1,171.76,16l1.46-2.24a11.89,11.89,0,0,0-3.34-1.65,15.56,15.56,0,0,0-4.32-.62h-.71a11.81,11.81,0,0,0-4.26.8,5.19,5.19,0,0,0-2.41,1.9,4.55,4.55,0,0,0-.44,3.66,3.67,3.67,0,0,0,1.69,2.14,8.77,8.77,0,0,0,3.46,1l5.26.58A4.83,4.83,0,0,1,170,22a1.62,1.62,0,0,1,.75.86,2,2,0,0,1-.2,1.77,3,3,0,0,1-1.44,1,9.35,9.35,0,0,1-3,.47,13.68,13.68,0,0,1-4.39-.6,12.72,12.72,0,0,1-3.24-1.61c-.48.79-1,1.57-1.44,2.37A13.14,13.14,0,0,0,160.37,28a15.29,15.29,0,0,0,4.78.76h.6a13.4,13.4,0,0,0,5.07-1,5.07,5.07,0,0,0,2.46-2.14,4.66,4.66,0,0,0,.52-2.35,4.41,4.41,0,0,0-.51-2" fill="currentColor"/>
        <path d="M106.37,11.86l0,0c-1,0-2,0-3,0,0,.33,0,.66,0,1q0,7.78,0,15.56h15q0-1.38,0-2.75H106.37q0-6.88,0-13.75" fill="currentColor"/>
        <path d="M150.42,19.36c1.72-2.51,3.46-5,5.17-7.53h-3.46c-.16.11-.23.31-.35.46-1.35,2-2.71,4-4.05,5.94H142c0-2.14,0-4.27,0-6.41-1,0-2,0-3,0q0,8.27,0,16.55h3V21h5.87l4.61,7.39H156l-5.65-8.83c-.06-.06,0-.12.05-.18" fill="currentColor"/>
        <path d="M81.51,14.58V11.83H64.4c0,.92,0,1.84,0,2.75,2.34,0,4.68,0,7,0q0,6.89,0,13.78h3.05c0-4.6,0-9.2,0-13.8,2.35,0,4.69,0,7,0" fill="currentColor"/>
        <path d="M123.79,25.6c0-1.44,0-3.52,0-3.52l10.6-3.27H123.79c0-1.33,0-2.91,0-4.23h11.76c0-.92,0-1.84,0-2.75H120.74c0,5.52,0,11,0,16.55H136c0-.93,0-1.85,0-2.78q-6.1,0-12.21,0" fill="currentColor"/>
        <path d="M88,11.82q-3.63,8.27-7.24,16.55H84l1.21-2.81,9.8-3H86.46c.86-2.06,2.49-6,3.34-8,.63,0,1.26,0,1.9,0,1.16,2.84,5.45,12.95,5.83,13.82,1.07,0,2.14,0,3.21,0q-3.52-8.28-7-16.55-2.87,0-5.73,0" fill="currentColor"/>
        <g>
            <path d="M16.19,32.76h0Zm0-18.84a2.19,2.19,0,0,0,1.2,2l6.85,3.46A1.13,1.13,0,0,1,24.65,21L16.19,32.76v7.78l14.43-7.28a3.2,3.2,0,0,0,1.76-2.86V17.61a3.2,3.2,0,0,0-1.76-2.86L16.19,7.47ZM15.58,0,1.76,7A3.2,3.2,0,0,0,0,9.83V22.62a3.2,3.2,0,0,0,1.76,2.86l14.43,7.28V26.32a2.19,2.19,0,0,0-1.2-2L8.13,20.91a1.13,1.13,0,0,1-.41-1.67L16.19,7.48V0Z"/>
            <g clip-path="url(#9542b3ce-cda2-4628-b58e-0b7a5f70fdca)">
                <rect width="32.37" height="40.54" fill="currentColor"/>
            </g>
        </g>
        <g class="pro">
            <path d="M201.21,16.53c0,1.73-1.09,2.57-3.34,2.57H190V13.89H198c2.06,0,3.24,1,3.24,2.64M198,11.82h-10.4V28.37H190V21.21h8.27c3.25,0,5.43-2,5.43-4.86s-2.14-4.53-5.73-4.53" fill="currentColor"/>
            <path d="M220.3,16.53c0,1.73-1.09,2.57-3.34,2.57h-7.84V13.89h7.94c2.06,0,3.24,1,3.24,2.64m2.53-.06c0-3-2.09-4.65-5.73-4.65H206.7V28.37h2.43V21.21h6.82l4.5,7.16h2.69l-4.52-7.22a4.75,4.75,0,0,0,4.21-4.68" fill="currentColor"/>
            <path d="M241.49,20.14c0,3.8-2.9,6.55-6.91,6.55s-6.91-2.75-6.91-6.55,2.9-6.58,6.91-6.58,6.91,2.77,6.91,6.58m-6.91-8.68c-5.45,0-9.4,3.65-9.4,8.68s4,8.65,9.4,8.65S244,25.15,244,20.14s-4-8.68-9.43-8.68" fill="currentColor"/>
        </g>
    </g>
</symbol><symbol id="soc-facebook" viewBox="0 0 10.6 20.8">
    <g>
        <path fill="currentColor" d="M2.3,10.4c-0.8,0-1.5,0-2.3,0c0-1.2,0-2.3,0-3.5c0.1,0,0.1,0,0.2,0c0.6,0,1.2,0,1.8,0c0.3,0,0.3,0,0.3-0.3
c0-0.9,0-1.8,0-2.7c0-0.9,0.2-1.8,0.9-2.5c0.6-0.7,1.5-1.1,2.4-1.2C6,0.1,6.4,0,6.9,0C8,0,9.2,0,10.3,0c0.1,0,0.2,0,0.2,0.2
c0,1.1,0,2.2,0,3.3c0,0,0,0.1,0,0.1c-0.1,0-0.1,0-0.2,0c-0.7,0-1.5,0-2.2,0C7.7,3.6,7.4,3.7,7.2,4C7.1,4.2,7,4.4,7,4.6
C7,5.3,7,6,7,6.7c0,0.2,0.1,0.2,0.3,0.2c1,0,2.1,0,3.1,0c0.1,0,0.1,0,0.2,0c-0.1,0.7-0.2,1.4-0.3,2.1c0,0.4-0.1,0.8-0.1,1.2
c0,0.1-0.1,0.2-0.2,0.2c-0.9,0-1.8,0-2.7,0c-0.1,0-0.1,0-0.2,0c0,3.5,0,6.9,0,10.4c-0.1,0-0.2,0-0.3,0c-1.4,0-2.7,0-4.1,0
c-0.3,0-0.3,0-0.3-0.3c0-3.3,0-6.5,0-9.8C2.3,10.6,2.3,10.5,2.3,10.4z"/>
    </g>
</symbol><symbol id="soc-google" viewBox="0 0 22 23.3">
    <g>
        <path fill="currentColor" d="M11,2.2c0.2,0.6,0.5,1.3,0.7,1.9c0.5,2.2,0,4-1.6,5.6c-0.3,0.3-0.5,0.5-0.8,0.8c-0.3,0.4-0.3,0.7,0,1.1
c0.4,0.6,0.9,1.1,1.4,1.6c1,0.9,1.7,2,1.9,3.4c0.3,1.8,0,3.5-1.3,4.9c-1,1-2.2,1.6-3.6,1.8c-1.8,0.3-3.5,0-5.1-0.7
c-1-0.5-1.8-1.2-2.3-2.3c-0.5-1.1-0.4-2.2,0.1-3.3c0.8-1.9,2.3-3,4.3-3.5c0.4-0.1,0.9-0.1,1.3-0.2c0.1,0,0.1,0,0.2,0
c-0.3-0.7-0.3-1.3-0.2-2c-0.3-0.1-0.6-0.1-0.9-0.2c-1.6-0.4-2.7-1.4-3.4-2.9c-1.5-3.3,0.5-7.2,4-7.9C6.1,0,6.5,0,6.8,0
c1.9,0,3.8,0,5.6,0c0.3,0,0.5,0.1,0.6,0.3c0.1,0.2,0,0.5-0.2,0.7c-0.4,0.3-0.7,0.7-1.1,1c-0.2,0.1-0.4,0.1-0.6,0.2
C11.1,2.2,11,2.2,11,2.2z M6.5,21.2c0.4,0,0.8-0.1,1.1-0.1c1.8-0.3,2.6-1.4,2.5-3.2c0-0.5-0.2-1-0.7-1.4c-0.5-0.4-1-0.8-1.4-1.2
c-0.1-0.1-0.2-0.1-0.3-0.1c-1.3-0.3-2.5-0.1-3.6,0.7c-1.4,1-1.6,2.9-0.5,4.2C4.5,20.8,5.5,21.1,6.5,21.2z M8.8,6.5
c0-1.1-0.3-2-0.8-3C7.7,3,7.4,2.6,6.8,2.3C6.4,2,6,2,5.6,2.1C5,2.3,4.7,2.8,4.5,3.3c-0.4,1.1-0.3,2.1,0,3.2C4.8,7.5,5.2,8.3,6,8.9
c0.9,0.7,1.9,0.5,2.4-0.5C8.7,7.8,8.8,7.2,8.8,6.5z"/>
        <path fill="currentColor" d="M16.3,7.4c0-0.6,0-1.1,0-1.7C16.4,5.2,16.5,5,17,5c0.2,0,0.5,0,0.7,0c0.3,0,0.4,0.1,0.5,0.4c0,0.1,0,0.3,0,0.4
c0,1.1,0,2.2,0,3.3c0,0.4,0,0.4,0.4,0.4c0.9,0,1.8,0,2.7,0c0.6,0,0.7,0.1,0.7,0.7c0,0.3,0,0.6,0,1c0,0.4-0.2,0.5-0.5,0.5
c-0.5,0-0.9,0-1.4,0c-0.5,0-1,0-1.5,0c-0.3,0-0.3,0-0.3,0.3c0,1.1,0,2.2,0,3.2c0,0.1,0,0.1,0,0.2c0,0.5-0.2,0.7-0.7,0.7
c-0.2,0-0.5,0-0.7,0c-0.2,0-0.4-0.2-0.4-0.4c0-0.1,0-0.2,0-0.3c0-1.2,0-2.3,0-3.5c0-0.3,0-0.3-0.3-0.3c-0.9,0-1.8,0-2.7,0
c-0.1,0-0.2,0-0.4,0c-0.2,0-0.3-0.2-0.3-0.4c0-0.5,0-0.9,0-1.4c0-0.2,0.1-0.4,0.4-0.4c0.1,0,0.2,0,0.3,0c0.9,0,1.8,0,2.7,0
c0.3,0,0.4,0,0.4-0.4C16.4,8.5,16.4,8,16.3,7.4C16.4,7.4,16.3,7.4,16.3,7.4z"/>
    </g>
</symbol><symbol id="soc-instagram" viewBox="0 0 22.9 22.9">
    <g>
        <path fill="currentColor" d="M22.9,11.4c0,1.6,0,3.1,0,4.7c0.1,3.1-1.9,5.4-4.3,6.3c-0.8,0.3-1.7,0.5-2.5,0.5c-3,0-6,0-9,0
    c-1.1,0-2.1-0.1-3.1-0.6c-2-0.9-3.3-2.4-3.8-4.6C0,17.3,0,16.9,0,16.5c0-3.3,0-6.6,0-9.9c0-3.3,2.2-5.9,5.4-6.5
    C5.9,0.1,6.4,0,6.8,0c3,0,6.1,0,9.1,0c1.3,0,2.6,0.3,3.7,1c1.6,1,2.7,2.3,3.1,4.2c0.1,0.4,0.1,0.8,0.1,1.2
    C22.9,8.1,22.9,9.8,22.9,11.4C22.9,11.4,22.9,11.4,22.9,11.4z M1.7,11.4C1.7,11.4,1.7,11.4,1.7,11.4c0,1.7,0,3.4,0,5
    c0,0.3,0,0.6,0.1,0.8c0.4,1.6,1.4,2.7,2.8,3.4c0.7,0.3,1.5,0.5,2.3,0.5c3,0,6,0,8.9,0c0.3,0,0.5,0,0.8,0c2.6-0.2,4.5-2.3,4.5-4.9
    c0-3.2,0-6.4,0-9.6c0-1.6-0.7-2.9-1.9-3.9c-0.9-0.7-2-1-3.2-1c-3.1,0-6.1,0-9.2,0C6.2,1.7,5.6,1.8,5,2C3,2.8,1.7,4.5,1.7,6.5
    C1.7,8.2,1.7,9.8,1.7,11.4z"/>
        <path fill="currentColor" d="M11.5,5.7c3,0,5.4,2.4,5.4,5.3c0,2.9-2.4,5.3-5.4,5.3c-3,0-5.4-2.4-5.4-5.3C6.1,8.1,8.5,5.7,11.5,5.7z
    M11.5,7.4c-2,0-3.7,1.6-3.7,3.6c0,2,1.6,3.6,3.7,3.6c2,0,3.7-1.6,3.7-3.6C15.1,9,13.5,7.4,11.5,7.4z"/>
        <path fill="currentColor" d="M17.5,4.1c0.6,0,1.1,0.5,1.1,1.2c0,0.6-0.5,1.2-1.1,1.2c-0.6,0-1.1-0.5-1.1-1.2C16.3,4.6,16.8,4.1,17.5,4.1z"/>
    </g>
</symbol><symbol id="soc-twitter" viewBox="0 0 23.2 19.1">
    <g>
        <path fill="currentColor" d="M0,16.9c2.6,0.2,4.9-0.4,7-2c-2.2-0.2-3.7-1.3-4.5-3.3c0.7,0,1.4,0.1,2.1-0.1C2.2,10.7,1,9.2,0.8,6.7
C1.5,7,2.1,7.3,2.9,7.3c-1.3-1-2-2.3-2.1-3.9c0-0.9,0.2-1.7,0.6-2.5c2.6,3,5.9,4.7,9.9,5c0-0.2,0-0.4-0.1-0.6
c-0.3-2.4,1.4-4.7,3.8-5.2c1.6-0.3,3,0,4.2,1.1c0.2,0.2,0.5,0.3,0.8,0.2c0.8-0.2,1.6-0.5,2.3-0.9c0.1,0,0.1-0.1,0.2-0.1
c-0.3,1.1-1,1.9-1.8,2.5c0,0,0,0,0,0.1c0.8-0.2,1.6-0.4,2.4-0.6c-0.1,0.2-0.2,0.3-0.3,0.4c-0.5,0.7-1.1,1.3-1.7,1.8
c-0.2,0.2-0.3,0.3-0.3,0.6c0,5-2.5,9.6-6.6,12.1c-1.7,1-3.5,1.6-5.5,1.8c-3.1,0.3-6-0.3-8.7-1.9C0.1,17,0,17,0,16.9
C0,17,0,16.9,0,16.9z"/>
    </g>
</symbol><symbol id="soc-viber" viewBox="0 0 22.9 23">
    <g>
        <path fill="currentColor" d="M0,23c0.2-0.7,0.4-1.4,0.7-2c0.4-1.1,0.8-2.3,1.2-3.4c0.1-0.4,0.1-0.7-0.1-1.1c-0.5-1-0.9-2-1.1-3.1
C-0.1,9.4,1,5.9,4,3c1.7-1.6,3.7-2.6,6-2.9c6.5-0.9,11.5,3.7,12.6,8.8c1.2,5.7-2.1,11.7-8.4,13.3c-2.7,0.7-5.3,0.3-7.7-0.9
c-0.2-0.1-0.4-0.1-0.6-0.1C4,21.8,2.1,22.4,0.2,23C0.2,23,0.1,23,0,23z M2.9,20.2c0.9-0.3,1.7-0.6,2.6-0.8c1.2-0.4,0.8-0.4,1.9,0.2
c1.8,0.9,3.7,1.3,5.7,0.9c5.5-0.9,8.7-6.2,7.7-11c-0.8-3.6-2.9-6-6.4-7.1C11,1.2,7.9,2,5.2,4.4c-3.3,3-3.8,8.1-1.6,11.6
C4,16.5,4,17,3.8,17.5C3.5,18.4,3.2,19.2,2.9,20.2z"/>
        <path fill="currentColor" d="M6,8.7c0-1.2,0.4-2,1.1-2.7C7.4,5.8,7.7,5.7,8,5.7c0.2,0,0.4,0,0.6,0C8.8,5.8,8.9,6,9,6.1
c0.2,0.6,0.4,1.1,0.6,1.7c0,0.1,0.1,0.3,0.1,0.4C10,8.6,9.9,9,9.6,9.4C9.4,9.6,9.3,9.8,9.1,9.9c-0.2,0.2-0.2,0.3-0.1,0.6
c0.9,1.6,2.2,2.8,3.9,3.6c0.2,0.1,0.4,0.1,0.5-0.1c0.3-0.4,0.6-0.7,0.9-1.1c0.2-0.3,0.3-0.3,0.6-0.1c0.7,0.4,1.5,0.8,2.2,1.2
c0.2,0.1,0.3,0.3,0.3,0.5c-0.1,1.3-0.8,2.1-2.2,2.4c-0.5,0.1-1.1,0.1-1.6-0.1c-0.7-0.3-1.4-0.6-2.1-0.9c-1.3-0.6-2.2-1.5-3.1-2.5
c-0.7-0.8-1.4-1.8-1.9-2.8C6.2,9.9,6,9.3,6,8.7z"/>
    </g>
</symbol><symbol id="soc-vk" viewBox="0 0 20.3 11.5">
<path fill="currentColor" d="M19.5,0.5h-3.3c-0.3,0-0.5,0.2-0.7,0.4c0,0-1.3,2.4-1.7,3.2c-1.1,2.2-1.9,1.5-1.9,0.5V1.1c0-0.6-0.5-1.1-1.1-1.1H8.4
	C7.7,0,7,0.3,6.6,0.8c0,0,1.3-0.2,1.3,1.5c0,0.4,0,1.6,0,2.6c0,0.4-0.3,0.7-0.7,0.7C7,5.7,6.8,5.6,6.6,5.5C5.6,4,4.8,2.5,4.1,0.9
	C4,0.7,3.8,0.5,3.5,0.5c-0.7,0-2.1,0-3,0C0.2,0.5,0,0.7,0,1c0,0.1,0,0.1,0,0.2c0.9,2.5,4.8,10.3,9.3,10.3h1.9c0.4,0,0.7-0.3,0.7-0.7
	V9.6c0-0.4,0.3-0.7,0.7-0.7c0.2,0,0.4,0.1,0.5,0.2l2.2,2.1c0.2,0.2,0.5,0.3,0.7,0.3h3c1.4,0,1.4-1,0.6-1.8c-0.5-0.5-2.5-2.6-2.5-2.6
	c-0.3-0.4-0.4-0.9-0.1-1.3C17.8,5,18.8,3.6,19.3,3C19.9,2.2,21,0.5,19.5,0.5z"/>
</symbol><symbol id="soc-www" viewBox="0 0 30 30">
    <path fill="currentColor" d="M25,25H5V5.07L10,5V0H0V30H30V17.5H25ZM15,0l5,5-7.5,7.5,5,5L25,10l5,5V0Z"/>
</symbol><symbol id="soc-youtube" viewBox="0 0 22 15.4">
		<path fill="currentColor" d="M21.8,3.3c0,0-0.2-1.5-0.9-2.2c-0.8-0.9-1.8-0.9-2.2-0.9C15.6,0,11,0,11,0S6.4,0,3.3,0.2C2.9,0.3,1.9,0.3,1.1,1.2
			C0.4,1.8,0.2,3.3,0.2,3.3S0,4.8,0,6.6v2.2c0,1.8,0.2,3.3,0.2,3.3s0.2,1.5,0.9,2.2c0.8,0.9,1.9,0.8,2.4,0.9
			c1.8,0.2,7.5,0.1,7.5,0.1s4.6,0.1,7.7-0.2c0.4-0.1,1.4-0.1,2.2-0.9c0.7-0.7,0.9-2.2,0.9-2.2S22,10.6,22,8.8V6.6
			C22,4.8,21.8,3.3,21.8,3.3z M8.1,10.6V4.8l5.9,2.9L8.1,10.6z"/>
</symbol><symbol id="star" viewBox="0 0 22.15 21.01">
	<polygon points="11.09 16.88 4.99 20.1 6.14 13.2 1.09 8.38 8.1 7.34 11.09 1.14 14.19 7.34 21.09 8.38 16.14 13.2 17.29 20.1 11.09 16.88" stroke="currentColor" stroke-miterlimit="10"/>
</symbol></svg>