<svg version="1.1"
	 xmlns="http://www.w3.org/2000/svg" xmlns:xlink="http://www.w3.org/1999/xlink"
	 x="0px" y="0px" width="165.2px" height="192.2px" viewBox="0 0 165.2 192.2" style="enable-background:new 0 0 165.2 192.2;"
	 xml:space="preserve">
		<path fill="#DBDBDB" d="M37.2,192.2c-1.4-0.6-2.9-0.9-4.1-1.7c-3.7-2.1-5.8-5.4-5.9-9.6c-0.2-7.1,0-14.3,0-21.5c2.9,0,5.8,0,9,0
			c0,0.7,0,1.3,0,2c0,6.1,0,12.1,0,18.2c0,2.6,1.1,3.7,3.6,3.7c37.6,0,75.2,0,112.8,0c2.7,0,3.7-1.1,3.7-3.8c0-43,0-86.1,0-129.1
			c0-1.9-0.7-2.3-2.4-2.3c-7.7,0.1-15.4,0-23.1,0c-8.2,0-13.6-5.4-13.6-13.7c0-7.7,0-15.4,0-23.1c0-1.7-0.5-2.3-2.3-2.3
			c-25,0-50.1,0-75.1,0C37,9,36,10,36,12.9c0,21.4,0,42.8,0,64.2c0,1.2,0,2.5,0,3.9c-3,0-5.9,0-9,0c0-2.9,0-5.8,0-8.6
			c0-19.8,0-39.7,0-59.5C27,5.1,32.1,0,39.9,0C66,0,92.2,0,118.3,0c1.3,0,2.2,0.4,3.1,1.3c14.1,14.2,28.3,28.3,42.5,42.5
			c0.9,0.9,1.3,1.8,1.3,3.1c0,43.5,0,87,0,130.5c0,8.9-1.9,11.8-10.1,14.9C115.8,192.2,76.5,192.2,37.2,192.2z"/>
		<path fill="#DBDBDB" d="M69.2,93.1c19.7,0,39.4,0,59.1,0c6.2,0,9.8,3.7,9.8,9.8c0,11.6,0,23.2,0,34.7c0,5.7-3.8,9.5-9.6,9.5
			c-39.7,0-79.3,0-119,0c-5.8,0-9.5-3.7-9.5-9.5c0-11.7,0-23.4,0-35.1c0-5.6,3.8-9.4,9.5-9.4C29.4,93.1,49.3,93.1,69.2,93.1z
			 M44.8,130.2c0.7-0.8,1-1.4,1.5-1.9c2.9-3.5,5.9-7,8.8-10.5c1.6-2,3.5-3.8,4.8-6c0.6-1.1,0.7-2.8,0.3-4c-0.2-0.7-1.9-1.3-3-1.3
			c-5.1-0.1-10.3-0.1-15.4-0.1c-1.4,0-2.7,0.4-2.8,2.1c-0.1,1.4,0.9,2.2,2.8,2.2c3.4,0,6.9,0,10.3,0c0.4,0,0.9,0.1,1.5,0.2
			c-0.6,0.7-0.9,1.2-1.3,1.7c-4.6,5.5-9.1,10.9-13.7,16.4c-0.9,1.1-1.7,2.3-0.8,3.5c0.6,0.9,1.8,1.8,2.8,1.8
			c6.4,0.2,12.9,0.1,19.3,0.1c1.3,0,2.1-0.8,2.1-2.1c0-1.4-0.9-2-2.2-2c-0.5,0-1,0-1.5,0C54,130.2,49.6,130.2,44.8,130.2z
			 M83.5,123.8c3.3-0.2,6.3-0.2,9.3-0.7c4.5-0.8,6.7-4.2,6.4-9.1c-0.3-4.2-3.1-7.1-7.6-7.3c-3.3-0.2-6.6-0.2-9.9-0.1
			c-3,0-3.9,1-3.9,4c0,6.8,0,13.5,0,20.3c0,0.8,0.1,1.6,0.3,2.4c0.4,1.3,1.5,2.1,2.7,1.7c0.9-0.3,1.9-1.1,2.4-1.9
			c0.4-0.6,0.2-1.6,0.2-2.4C83.5,128.3,83.5,126,83.5,123.8z M71.5,120.3C71.5,120.3,71.5,120.3,71.5,120.3c0-3.5,0-7,0-10.5
			c0-2.6-1-3.9-2.8-3.9c-1.8,0-2.9,1.3-2.9,3.8c0,0.1,0,0.2,0,0.4c0,6.9,0,13.9,0,20.8c0,0.6,0.1,1.1,0.2,1.7
			c0.3,1.5,1.2,2.3,2.8,2.3c1.5,0,2.4-0.9,2.7-2.4c0.1-0.7,0.1-1.4,0.1-2.1C71.5,127.1,71.5,123.7,71.5,120.3z"/>
		<path fill="#DBDBDB" d="M83.7,110.6c2.3,0.2,4.5,0.1,6.7,0.5c2.1,0.3,3.1,1.8,3.1,3.9c0,2-1.1,3.4-3.1,3.9c-0.8,0.2-1.6,0.3-2.4,0.3
			c-1.4,0.1-2.7,0-4.3,0C83.7,116.4,83.7,113.7,83.7,110.6z"/>
</svg>
