<svg version="1.1"
	 xmlns="http://www.w3.org/2000/svg" xmlns:xlink="http://www.w3.org/1999/xlink"
	 x="0px" y="0px" width="165.2px" height="192.2px" viewBox="0 0 165.2 192.2" style="enable-background:new 0 0 165.2 192.2;"
	 xml:space="preserve">
		<path fill="#DBDBDB" d="M37.2,192.2c-1.4-0.6-2.9-0.9-4.1-1.7c-3.7-2.1-5.8-5.4-5.9-9.6c-0.2-7.1,0-14.3,0-21.5c2.9,0,5.8,0,9,0
			c0,0.7,0,1.3,0,2c0,6.1,0,12.1,0,18.2c0,2.6,1.1,3.7,3.6,3.7c37.6,0,75.2,0,112.8,0c2.7,0,3.7-1.1,3.7-3.8c0-43,0-86.1,0-129.1
			c0-1.9-0.7-2.3-2.4-2.3c-7.7,0.1-15.4,0-23.1,0c-8.2,0-13.6-5.4-13.6-13.7c0-7.7,0-15.4,0-23.1c0-1.7-0.5-2.3-2.3-2.3
			c-25,0-50.1,0-75.1,0C37,9,36,10,36,12.9c0,21.4,0,42.8,0,64.2c0,1.2,0,2.5,0,3.9c-3,0-5.9,0-9,0c0-2.9,0-5.8,0-8.6
			c0-19.8,0-39.7,0-59.5C27,5.1,32.1,0,39.9,0C66,0,92.2,0,118.3,0c1.3,0,2.2,0.4,3.1,1.3c14.1,14.2,28.3,28.3,42.5,42.5
			c0.9,0.9,1.3,1.8,1.3,3.1c0,43.5,0,87,0,130.5c0,8.9-1.9,11.8-10.1,14.9C115.8,192.2,76.5,192.2,37.2,192.2z"/>
		<path fill="#DBDBDB" d="M69.3,93.1c19.6,0,39.3,0,58.9,0c6.3,0,9.9,3.6,9.9,9.9c0,11.5,0,23,0,34.5c0,5.9-3.8,9.6-9.6,9.6
			c-39.5,0-79.1,0-118.6,0c-6.2,0-9.8-3.6-9.8-9.8c0-11.6,0-23.2,0-34.7c0-5.8,3.8-9.5,9.6-9.5C29.5,93.1,49.4,93.1,69.3,93.1z
			 M73.1,125c-0.1,0-0.3,0.1-0.4,0.1c-0.3-0.5-0.7-1-1-1.5c-3.4-5.2-6.9-10.4-10.3-15.6c-1.6-2.4-4.1-2.8-5.6-0.8
			c-0.6,0.8-0.8,2-0.9,3c-0.1,7.1,0,14.1,0,21.2c0,0.7,0,1.6,0.4,2c0.7,0.7,1.7,1.5,2.5,1.4c0.8-0.1,1.7-1,2.3-1.8
			c0.4-0.6,0.2-1.6,0.2-2.4c0-4.3,0-8.5,0-12.8c0-0.6,0.1-1.2,0.1-2.2c0.6,0.9,1,1.4,1.3,1.9c3.3,5,6.6,10,9.9,15
			c1.4,2.1,3.1,2.9,4.9,2.2c2-0.8,1.9-2.6,1.9-4.3c0-6.9,0-13.8,0-20.6c0-0.7,0.1-1.6-0.3-2c-0.7-0.8-1.7-1.8-2.5-1.7
			c-0.8,0-1.8,1.1-2.3,1.9c-0.4,0.6-0.2,1.6-0.2,2.4C73.1,115.3,73.1,120.1,73.1,125z M104.6,124c0.4,5.3,0.8,4.6-3.7,6.1
			c-0.1,0-0.1,0-0.2,0.1c-5.7,1.4-10.1-0.9-11.1-6.2c-0.5-2.3-0.4-4.8,0-7c0.6-3.4,2.7-5.8,6.2-6.4c3.5-0.6,6.3,0.5,8.1,3.6
			c0.2,0.4,0.5,0.9,0.8,1c1,0.2,2.3,0.7,3,0.3c0.7-0.4,1.4-1.9,1.3-2.7c-0.3-1.3-1.2-2.6-2.1-3.6c-1.9-2-4.5-2.7-7.3-3.1
			c-7.7-0.9-14.1,3-15.7,9.9c-0.5,2-0.7,4.1-0.5,6.1c0.4,5.6,2.9,10,8.5,11.9c5.7,2,11.3,1.1,16.3-2.1c0.9-0.6,1.6-1.9,1.7-3
			c0.3-2,0.1-4,0.1-6c0-2-0.9-2.9-2.8-3c-2.5-0.1-5-0.1-7.5,0c-1.4,0-2.3,0.6-2.4,2.1c-0.1,1.5,1,2.1,2.3,2.1
			C101.2,124,102.8,124,104.6,124z M34.5,123.6c1.5,0,2.7,0.1,4,0c1.8-0.1,3.6-0.1,5.4-0.5c4.3-0.9,6.6-4.3,6.3-8.9
			c-0.4-4.5-3-7.3-7.5-7.6c-3.4-0.2-6.9-0.2-10.3-0.1c-2.6,0-3.5,1-3.5,3.5c0,4.8,0,9.6,0,14.4c0,2.5,0,5,0,7.5
			c0,1.6,0.8,2.8,2.5,2.9c1.6,0.1,2.8-0.8,3.1-2.6c0.1-0.6,0.1-1.2,0.1-1.9C34.5,128.2,34.5,126,34.5,123.6z"/>
		<path fill="#DBDBDB" d="M34.6,119.4c0-3.1,0-5.8,0-8.8c2.3,0.1,4.6,0.1,6.7,0.5c2.1,0.3,2.9,1.6,3,3.7c0,2.1-0.8,3.6-2.9,4
			C39.3,119.2,37,119.2,34.6,119.4z"/>
</svg>
