<svg version="1.1"
	 xmlns="http://www.w3.org/2000/svg" xmlns:xlink="http://www.w3.org/1999/xlink"
	 x="0px" y="0px" width="165.2px" height="192.2px" viewBox="0 0 165.2 192.2" style="enable-background:new 0 0 165.2 192.2;"
	 xml:space="preserve">
		<path fill="#DBDBDB" d="M37.2,192.2c-1.4-0.6-2.9-0.9-4.1-1.7c-3.7-2.1-5.8-5.4-5.9-9.6c-0.2-7.1,0-14.3,0-21.5c2.9,0,5.8,0,9,0
			c0,0.7,0,1.3,0,2c0,6.1,0,12.1,0,18.2c0,2.6,1.1,3.7,3.6,3.7c37.6,0,75.2,0,112.8,0c2.7,0,3.7-1.1,3.7-3.8c0-43,0-86.1,0-129.1
			c0-1.9-0.7-2.3-2.4-2.3c-7.7,0.1-15.4,0-23.1,0c-8.2,0-13.6-5.4-13.6-13.7c0-7.7,0-15.4,0-23.1c0-1.7-0.5-2.3-2.3-2.3
			c-25,0-50.1,0-75.1,0C37,9,36,10,36,12.9c0,21.4,0,42.8,0,64.2c0,1.2,0,2.5,0,3.9c-3,0-5.9,0-9,0c0-2.9,0-5.8,0-8.6
			c0-19.8,0-39.7,0-59.5C27,5.1,32.1,0,39.9,0C66,0,92.2,0,118.3,0c1.3,0,2.2,0.4,3.1,1.3c14.1,14.2,28.3,28.3,42.5,42.5
			c0.9,0.9,1.3,1.8,1.3,3.1c0,43.5,0,87,0,130.5c0,8.9-1.9,11.8-10.1,14.9C115.8,192.2,76.5,192.2,37.2,192.2z"/>
		<path fill="#DBDBDB" d="M69.1,93.1c19.7,0,39.4,0,59.1,0c6.3,0,9.9,3.6,9.9,9.9c0,11.5,0,23,0,34.5c0,5.9-3.8,9.6-9.6,9.6
			c-39.5,0-79.1,0-118.6,0c-6.2,0-9.8-3.6-9.8-9.8c0-11.6,0-23.2,0-34.7c0-5.8,3.8-9.5,9.6-9.5C29.4,93.1,49.2,93.1,69.1,93.1z
			 M83.7,120.4C83.7,120.4,83.7,120.4,83.7,120.4c0,3.6,0,7.1,0,10.7c0,2.4,1,3.3,3.4,3.3c3.1,0,6.1,0.1,9.2,0
			c5.4-0.2,9.3-3.3,10.7-8.6c0.9-3.4,1-6.8,0.1-10.2c-1.4-5.7-4.9-8.8-10.8-9.1c-3.1-0.2-6.1-0.1-9.2-0.1c-2.5,0-3.4,1-3.4,3.6
			C83.7,113.6,83.7,117,83.7,120.4z M67.7,134.9c2.7,0,5.4-0.4,7.7-2c2.8-1.9,3.8-4.7,3.5-8c-0.3-2.9-2-4.8-4.6-5.9
			c-1.3-0.6-2.6-1-3.9-1.4c-1.8-0.6-3.7-1-5.6-1.6c-1.3-0.4-2.4-1.3-2.3-2.9c0.1-1.6,1.2-2.4,2.6-2.8c2.5-0.7,5.8-0.7,7.6,3.3
			c0.8,1.7,2.2,2.3,3.5,1.6c1.5-0.8,2-2.3,1.2-3.7c-0.9-1.5-2-3.2-3.4-4c-4.3-2.4-9-2.3-13.3,0.1c-4.9,2.7-4.8,9.6,0.1,12.3
			c1.7,0.9,3.7,1.4,5.6,2.1c1.7,0.6,3.4,0.8,5,1.6c2.4,1.2,2.5,4.1,0.5,5.7c-3,2.5-7.9,1.5-9.6-2c-0.4-0.7-0.5-1.7-1.1-2.1
			c-0.8-0.6-1.9-1.1-2.7-0.9c-0.7,0.2-1.6,1.4-1.6,2.1c0,1.2,0.4,2.5,1,3.5C59.9,133.9,63.6,134.9,67.7,134.9z M37.3,123.6
			c1.4,0,2.5,0,3.7,0c1.8-0.1,3.6-0.1,5.4-0.4c4.6-0.9,6.9-4.1,6.6-9.2c-0.3-4.3-3.2-7.1-7.7-7.4c-3.2-0.2-6.4-0.1-9.6-0.1
			c-3.2,0-4.1,0.9-4.1,4.1c0,6.7,0,13.4,0,20.1c0,0.7,0.1,1.5,0.2,2.2c0.4,1.4,1.4,2,2.8,2c1.5-0.1,2.3-0.9,2.6-2.3
			c0.1-0.7,0.1-1.5,0.1-2.2C37.3,128.2,37.3,126,37.3,123.6z"/>
		<path fill="#DBDBDB" d="M89.6,110.9c2.5,0.1,4.8,0.2,7.2,0.5c2.5,0.3,4,2.1,4.6,4.4c0.9,3.1,0.8,6.3-0.1,9.4c-0.9,3.1-3,4.6-6.2,4.7
			c-1.7,0-3.5,0-5.4,0C89.6,123.7,89.6,117.5,89.6,110.9z"/>
		<path fill="#DBDBDB" d="M37.3,110.6c2.5,0.2,4.8,0.2,7,0.5c2,0.3,2.7,1.8,2.9,3.6c0.2,1.9-0.7,3.5-2.5,3.9c-2.1,0.4-4.3,0.5-6.5,0.6
			c-0.3,0-0.8-0.6-0.8-0.9C37.3,115.9,37.3,113.4,37.3,110.6z"/>
</svg>
