<svg version="1.1"
	 xmlns="http://www.w3.org/2000/svg" xmlns:xlink="http://www.w3.org/1999/xlink"
	 x="0px" y="0px" width="165.2px" height="192.2px" viewBox="0 0 165.2 192.2" style="enable-background:new 0 0 165.2 192.2;"
	 xml:space="preserve">
		<path fill="#DBDBDB" d="M37.2,192.2c-1.4-0.6-2.9-0.9-4.1-1.7c-3.7-2.1-5.8-5.4-5.9-9.6c-0.2-7.1,0-14.3,0-21.5c2.9,0,5.8,0,9,0
			c0,0.7,0,1.3,0,2c0,6.1,0,12.1,0,18.2c0,2.6,1.1,3.7,3.6,3.7c37.6,0,75.2,0,112.8,0c2.7,0,3.7-1.1,3.7-3.8c0-43,0-86.1,0-129.1
			c0-1.9-0.7-2.3-2.4-2.3c-7.7,0.1-15.4,0-23.1,0c-8.2,0-13.6-5.4-13.6-13.7c0-7.7,0-15.4,0-23.1c0-1.7-0.5-2.3-2.3-2.3
			c-25,0-50.1,0-75.1,0C37,9,36,10,36,12.9c0,21.4,0,42.8,0,64.2c0,1.2,0,2.5,0,3.9c-3,0-5.9,0-9,0c0-2.9,0-5.8,0-8.6
			c0-19.8,0-39.7,0-59.5C27,5.1,32.1,0,39.9,0C66,0,92.2,0,118.3,0c1.3,0,2.2,0.4,3.1,1.3c14.1,14.2,28.3,28.3,42.5,42.5
			c0.9,0.9,1.3,1.8,1.3,3.1c0,43.5,0,87,0,130.5c0,8.9-1.9,11.8-10.1,14.9C115.8,192.2,76.5,192.2,37.2,192.2z"/>
		<path fill="#DBDBDB" d="M69.2,93.1c19.7,0,39.4,0,59.1,0c6.1,0,9.8,3.7,9.8,9.8c0,11.5,0,23,0,34.5c0,5.9-3.7,9.6-9.6,9.6
			c-39.6,0-79.2,0-118.8,0c-6,0-9.7-3.7-9.7-9.8c0-11.6,0-23.2,0-34.7c0-5.8,3.8-9.5,9.5-9.5C29.4,93.1,49.3,93.1,69.2,93.1z
			 M83.2,120.6c-0.3-8.6-4.7-13.7-12.7-14.6c-7-0.8-12.7,2.8-14.5,9.2c-0.4,1.5-0.6,3.1-0.7,4.6c-0.6,11,8.7,18,19.1,14.2
			c3-1.1,5.4-3,6.6-6C82,125.7,82.5,123.1,83.2,120.6z M36.2,106.6C36.2,106.5,36.2,106.5,36.2,106.6c-1.6-0.1-3.2-0.1-4.9-0.1
			c-0.2,0-0.4,0-0.6,0c-2,0.2-2.9,1-2.9,3c-0.1,7.3-0.1,14.6,0,21.9c0,2.1,1,3,3,3c3.3,0.1,6.6,0.1,9.9-0.1
			c5.2-0.3,8.9-3.4,10.2-8.4c1-3.7,1-7.4,0-11.1c-1.4-4.9-5-7.9-10.1-8.3C39.3,106.5,37.7,106.6,36.2,106.6z M92.1,120.2
			c0.4-1.5,0.6-3.6,1.3-5.5c1-2.7,3.2-4.1,6.1-4.2c2.8-0.1,4.8,1.1,6.2,3.5c0.4,0.6,0.7,1.2,1.1,1.8c0.7,1.1,1.9,1.6,2.9,0.9
			c0.8-0.5,1.6-1.8,1.5-2.6c-0.3-1.5-1-3-1.9-4.1c-2.8-3.2-6.5-4.3-10.7-3.9c-7.2,0.7-11.3,5.3-12.1,13c-1,10,5.5,16.7,15.3,15.8
			c4.7-0.4,8.9-4.1,9.6-8.4c0.2-1.5-0.3-2.7-1.7-3.1c-1.5-0.5-2.5,0.2-3.1,1.7c-0.1,0.3-0.2,0.6-0.3,0.9c-1.4,3.4-3.7,4.8-7.4,4.5
			c-3-0.2-5.3-2.2-6.1-5.5C92.4,123.5,92.3,122.1,92.1,120.2z"/>
		<path fill="#DBDBDB" d="M60.9,120.4c0.4-1.7,0.6-3.4,1.1-5c1.1-3.1,3.7-4.8,6.9-4.9c3.3,0,6,1.7,7.2,4.8c1.3,3.6,1.4,7.2-0.3,10.8
			c-1.4,3-3.8,4.4-7.1,4.3c-3.2-0.1-5.5-1.8-6.6-4.7C61.5,124,61.3,122.1,60.9,120.4z"/>
		<path fill="#DBDBDB" d="M33.6,129.9c0-6.3,0-12.5,0-19c2.5,0.2,4.9,0.2,7.3,0.5c2.3,0.3,3.7,1.9,4.3,4c1,3.4,1,6.9-0.2,10.3
			c-1,2.7-2.9,4.1-5.8,4.2C37.4,129.9,35.5,129.9,33.6,129.9z"/>
</svg>
