<svg version="1.1"
	 xmlns="http://www.w3.org/2000/svg" xmlns:xlink="http://www.w3.org/1999/xlink"
	 x="0px" y="0px" width="165.2px" height="192.2px" viewBox="0 0 165.2 192.2" style="enable-background:new 0 0 165.2 192.2;"
	 xml:space="preserve">
		<path fill="#DBDBDB" d="M37.2,192.2c-1.4-0.6-2.9-0.9-4.1-1.7c-3.7-2.1-5.8-5.4-5.9-9.6c-0.2-7.1,0-14.3,0-21.5c2.9,0,5.8,0,9,0
			c0,0.7,0,1.3,0,2c0,6.1,0,12.1,0,18.2c0,2.6,1.1,3.7,3.6,3.7c37.6,0,75.2,0,112.8,0c2.7,0,3.7-1.1,3.7-3.8c0-43,0-86.1,0-129.1
			c0-1.9-0.7-2.3-2.4-2.3c-7.7,0.1-15.4,0-23.1,0c-8.2,0-13.6-5.4-13.6-13.7c0-7.7,0-15.4,0-23.1c0-1.7-0.5-2.3-2.3-2.3
			c-25,0-50.1,0-75.1,0C37,9,36,10,36,12.9c0,21.4,0,42.8,0,64.2c0,1.2,0,2.5,0,3.9c-3,0-5.9,0-9,0c0-2.9,0-5.8,0-8.6
			c0-19.8,0-39.7,0-59.5C27,5.1,32.1,0,39.9,0C66,0,92.2,0,118.3,0c1.3,0,2.2,0.4,3.1,1.3c14.1,14.2,28.3,28.3,42.5,42.5
			c0.9,0.9,1.3,1.8,1.3,3.1c0,43.5,0,87,0,130.5c0,8.9-1.9,11.8-10.1,14.9C115.8,192.2,76.5,192.2,37.2,192.2z"/>
		<path fill="#DBDBDB" d="M68.9,147.2c-19.7,0-39.4,0-59.1,0c-6.1,0-9.8-3.7-9.8-9.8c0-11.5,0-23,0-34.5c0-5.9,3.7-9.6,9.6-9.6
			c39.6,0,79.2,0,118.8,0c6,0,9.7,3.7,9.7,9.7c0,11.6,0,23.2,0,34.7c0,5.8-3.8,9.5-9.5,9.5C108.7,147.2,88.8,147.2,68.9,147.2z
			 M58.9,120.3L58.9,120.3c0,3.6,0,7.3,0,10.9c0,2.2,0.9,3.2,3,3.2c3.3,0.1,6.6,0.1,9.9,0c5.1-0.3,8.8-3.3,10.2-8.2
			c1-3.5,1.1-7,0.2-10.6c-1.4-5.8-4.9-8.8-10.8-9.1c-3.1-0.2-6.1-0.1-9.2-0.1c-2.4,0-3.3,1-3.4,3.5
			C58.9,113.4,58.9,116.9,58.9,120.3z M38.6,123.8c3.2-0.2,6.2-0.2,9.1-0.6c4.6-0.8,6.8-4.2,6.5-9.2c-0.3-4.3-3.1-7.1-7.6-7.3
			c-3.2-0.2-6.5-0.1-9.7-0.1c-3.2,0-4,0.8-4,4c0,6.7,0,13.5,0,20.2c0,0.7-0.1,1.7,0.3,2.2c0.6,0.8,1.5,1.6,2.4,1.9
			c1.3,0.4,2.3-0.5,2.7-1.7c0.2-0.8,0.3-1.7,0.3-2.6C38.6,128.2,38.6,126,38.6,123.8z M93.4,122.3c1.8,0,3.2,0,4.7,0
			c1.7,0,3.4,0,5.1-0.1c1.2-0.1,2-0.7,2-2c0-1.4-0.8-2-2.1-2.2c-0.6-0.1-1.1,0-1.7,0c-2.6,0-5.2,0-7.9,0c0-2.5,0-4.7,0-7.1
			c3.7,0,7.1,0,10.6,0c1.5,0,2.8-0.3,2.9-2.1c0.1-1.5-0.9-2.2-3-2.3c-0.2,0-0.4,0-0.6,0c-3.9,0-7.9,0-11.8,0c-3.4,0-4.1,0.8-4.1,4.2
			c0,6.4,0,12.7,0,19.1c0,0.9,0,1.8,0.1,2.6c0.2,1.5,1.1,2.4,2.6,2.4c1.5,0.1,2.5-0.7,2.8-2.2c0.2-0.7,0.2-1.5,0.2-2.2
			C93.4,127.8,93.4,125.2,93.4,122.3z"/>
		<path fill="#DBDBDB" d="M64.7,129.9c0-6.3,0-12.5,0-19c2.5,0.1,4.8,0.1,7.1,0.4c2.3,0.3,3.8,1.9,4.5,4c1,3.4,1,6.9-0.2,10.3
			c-0.9,2.7-2.9,4.1-5.8,4.2C68.5,129.9,66.6,129.9,64.7,129.9z"/>
		<path fill="#DBDBDB" d="M38.7,119.4c0-3.1,0-5.7,0-8.7c2.3,0.1,4.5,0.1,6.7,0.5c2.1,0.3,3,1.7,3,3.9c0,2-1,3.6-3,3.9
			C43.2,119.2,41,119.2,38.7,119.4z"/>
</svg>
