<svg version="1.1"
	 xmlns="http://www.w3.org/2000/svg" xmlns:xlink="http://www.w3.org/1999/xlink"
	 x="0px" y="0px" width="165.2px" height="192.2px" viewBox="0 0 165.2 192.2" style="enable-background:new 0 0 165.2 192.2;"
	 xml:space="preserve">
		<path fill="#DBDBDB" d="M37.2,192.2c-1.4-0.6-2.9-0.9-4.1-1.7c-3.7-2.1-5.8-5.4-5.9-9.6c-0.2-7.1,0-14.3,0-21.5c2.9,0,5.8,0,9,0
			c0,0.7,0,1.3,0,2c0,6.1,0,12.1,0,18.2c0,2.6,1.1,3.7,3.6,3.7c37.6,0,75.2,0,112.8,0c2.7,0,3.7-1.1,3.7-3.8c0-43,0-86.1,0-129.1
			c0-1.9-0.7-2.3-2.4-2.3c-7.7,0.1-15.4,0-23.1,0c-8.2,0-13.6-5.4-13.6-13.7c0-7.7,0-15.4,0-23.1c0-1.7-0.5-2.3-2.3-2.3
			c-25,0-50.1,0-75.1,0C37,9,36,10,36,12.9c0,21.4,0,42.8,0,64.2c0,1.2,0,2.5,0,3.9c-3,0-5.9,0-9,0c0-2.9,0-5.8,0-8.6
			c0-19.8,0-39.7,0-59.5C27,5.1,32.1,0,39.9,0C66,0,92.2,0,118.3,0c1.3,0,2.2,0.4,3.1,1.3c14.1,14.2,28.3,28.3,42.5,42.5
			c0.9,0.9,1.3,1.8,1.3,3.1c0,43.5,0,87,0,130.5c0,8.9-1.9,11.8-10.1,14.9C115.7,192.2,76.5,192.2,37.2,192.2z"/>
		<path fill="#DBDBDB" d="M69,147.2c-19.7,0-39.4,0-59.1,0c-6.3,0-9.9-3.6-9.9-9.9c0-11.5,0-22.9,0-34.4c0-6,3.7-9.7,9.7-9.7
			c39.5,0,79.1,0,118.6,0c6.1,0,9.8,3.7,9.8,9.8c0,11.5,0,23,0,34.5c0,5.9-3.7,9.6-9.6,9.6C108.7,147.2,88.8,147.2,69,147.2z
			 M89.7,110.8c4.3,0,8.4,0,12.5,0c1.5,0,2.7-0.5,2.7-2.1c0-1.7-1.2-2.2-2.7-2.2c-5.1,0-10.1,0-15.2,0c-2.3,0-3.2,0.9-3.2,3.2
			c-0.1,7.1-0.1,14.3,0,21.4c0,2.4,1,3.3,3.4,3.3c5.1,0,10.3,0,15.4,0c1.8,0,2.9-0.9,2.8-2.3c-0.1-1.8-1.3-2.2-2.9-2.2
			c-3.7,0-7.4,0-11.1,0c-0.6,0-1.2,0-1.8,0c0-2.8,0-5.2,0-7.9c1.9,0,3.6,0,5.3,0c2.1,0,4.3,0,6.4,0c1.3,0,2.4-0.7,2.4-2.1
			c0.1-1.5-0.9-2.1-2.3-2.2c-0.9-0.1-1.8-0.1-2.6-0.1c-3,0-6.1,0-9.3,0C89.7,115.3,89.7,113.2,89.7,110.8z M40.1,110.8
			c4.3,0,8.4,0,12.6,0c1.5,0,2.7-0.4,2.7-2.1c0-1.7-1.1-2.2-2.6-2.2c-5.1,0-10.1,0-15.2,0c-2.3,0-3.2,0.9-3.3,3.2
			c-0.1,7.1-0.1,14.3,0,21.4c0,2.5,1.1,3.3,3.5,3.3c5,0,10,0,15,0c2,0,3.1-0.8,3.1-2.2c0-1.5-1-2.3-3-2.3c-3.7,0-7.4,0-11.1,0
			c-0.5,0-1.1-0.1-1.6-0.1c0-2.6,0-5.1,0-7.8c2.7,0,5.2,0,7.7,0c1.5,0,3,0,4.5-0.1c1.2-0.1,2-0.8,2-2.1c0-1.3-0.7-2-2-2.1
			c-0.9-0.1-1.7-0.1-2.6-0.1c-3.2,0-6.3,0-9.6,0C40.1,115.3,40.1,113.2,40.1,110.8z M69.1,116c-0.7-1.1-1.2-2-1.8-2.8
			c-1.3-2-2.5-4-3.8-6c-0.9-1.3-2.2-1.6-3.6-0.8c-1.4,0.8-1.3,2.2-0.7,3.4c0.4,0.8,0.9,1.7,1.4,2.4c1.4,2.2,2.7,4.3,4.2,6.4
			c0.6,0.9,0.6,1.5,0,2.3c-1.8,2.5-3.6,5.1-5.3,7.7c-0.5,0.8-1,1.6-1.3,2.5c-0.5,1.3-0.5,2.6,0.8,3.3c1.4,0.8,2.7,0.5,3.7-0.8
			c1.2-1.6,2.2-3.3,3.3-5c1-1.5,2-2.9,3-4.6c2.1,3.2,3.9,6.2,5.8,9.1c1.1,1.6,2.6,2.1,4,1.3c1.3-0.7,1.6-2.3,0.6-4
			c-1-1.7-2.1-3.4-3.2-5.1c-1.2-1.8-3.3-3.7-3.2-5.5c0-1.9,2.1-3.8,3.3-5.7c1-1.7,2.2-3.4,3-5.2c0.3-0.7-0.1-2.2-0.7-2.5
			c-0.7-0.4-2-0.3-2.9,0c-0.6,0.2-1,1-1.4,1.7C72.6,110.7,71,113.2,69.1,116z"/>
</svg>
