<!-- Generator: Adobe Illustrator 22.0.1, SVG Export Plug-In  -->
<svg version="1.1"
	 xmlns="http://www.w3.org/2000/svg" xmlns:xlink="http://www.w3.org/1999/xlink" xmlns:a="http://ns.adobe.com/AdobeSVGViewerExtensions/3.0/"
	 x="0px" y="0px" width="166.4px" height="193.6px" viewBox="0 0 166.4 193.6" style="enable-background:new 0 0 166.4 193.6;"
	 xml:space="preserve">
<path fill="#DBDBDB" d="M37.4,193.6c-1.4-0.6-2.9-1-4.2-1.7c-3.7-2.1-5.9-5.5-6-9.7c-0.2-7.2,0-14.4,0-21.7c3,0,5.9,0,9,0
	c0,0.7,0,1.3,0,2c0,6.1,0,12.2,0,18.3c0,2.6,1.1,3.7,3.7,3.7c37.9,0,75.8,0,113.6,0c2.7,0,3.8-1.1,3.8-3.8c0-43.4,0-86.7,0-130.1
	c0-1.9-0.7-2.4-2.5-2.3c-7.8,0.1-15.5,0-23.3,0c-8.3,0-13.7-5.5-13.7-13.8c0-7.8,0-15.5,0-23.3c0-1.7-0.5-2.3-2.3-2.3
	c-25.2,0-50.4,0-75.6,0c-2.8,0-3.9,1.1-3.9,3.9c0,21.6,0,43.1,0,64.7c0,1.3,0,2.5,0,3.9c-3,0-5.9,0-9,0c0-2.9,0-5.8,0-8.7
	c0-20,0-40,0-59.9C27.2,5.1,32.3,0,40.1,0c26.3,0,52.7,0,79,0c1.3,0,2.2,0.4,3.1,1.3c14.2,14.3,28.5,28.5,42.8,42.8
	c0.9,0.9,1.3,1.8,1.3,3.1c0,43.8,0,87.6,0,131.4c0,9-1.9,11.9-10.2,15C116.6,193.6,77,193.6,37.4,193.6z"/>
<g>
	<path fill="#DBDBDB" d="M52.3,112.7L52.3,112.7c-0.1,0-0.7,2.6-1.1,4.2l-2.4,7.2h7l-2.4-7.2C52.9,115.3,52.3,112.7,52.3,112.7z"/>
	<path fill="#DBDBDB" d="M129.1,93.8c-19.8,0-39.6,0-59.4,0c-20,0-40.1,0-60.1,0c-5.8,0-9.6,3.8-9.6,9.6c0,11.7,0,23.3,0,35
		c0,6.2,3.7,9.9,9.9,9.9c39.8,0,79.7,0,119.5,0c5.9,0,9.7-3.8,9.7-9.7c0-11.6,0-23.2,0-34.8C139.1,97.5,135.5,93.8,129.1,93.8z
		 M59.2,134.8l-2.3-6.9h-9.4l-2.3,6.9h-5l9.4-26.8h5.1l9.4,26.8H59.2z M78,134.8h-5.1L63.2,108h5.2l5.9,17.5c0.5,1.5,1,3.9,1,3.9
		h0.1c0,0,0.5-2.4,1-3.9l6-17.5h5.2L78,134.8z M95.9,134.8h-4.9V108h4.9V134.8z"/>
</g>
</svg>
