<svg xmlns="http://www.w3.org/2000/svg" xmlns:xlink="http://www.w3.org/1999/xlink" viewBox="0 0 23.7 29.6">
    <defs>
        <clipPath id="ac03b6ba-b607-423f-a14d-c651b63fcfee">
            <path
                d="M11.8,23.9Zm0-13.7a1.42,1.42,0,0,0,.9,1.4l5,2.5a.77.77,0,0,1,.3,1.2l-6.2,8.6v5.7l10.5-5.3a2.33,2.33,0,0,0,1.3-2.1V12.8a2.33,2.33,0,0,0-1.3-2.1L11.8,5.5ZM11.4,0,1.3,5.1A2.33,2.33,0,0,0,0,7.2v9.4a2.33,2.33,0,0,0,1.3,2.1L11.8,24V19.3a1.42,1.42,0,0,0-.9-1.4l-5-2.5a.77.77,0,0,1-.3-1.2l6.2-8.6V0Z"
                fill="none"/>
        </clipPath>
    </defs>
    <title>icon-logo</title>
    <path id="clippath4" data-name="SVGID"
          d="M11.8,23.9Zm0-13.7a1.42,1.42,0,0,0,.9,1.4l5,2.5a.77.77,0,0,1,.3,1.2l-6.2,8.6v5.7l10.5-5.3a2.33,2.33,0,0,0,1.3-2.1V12.8a2.33,2.33,0,0,0-1.3-2.1L11.8,5.5ZM11.4,0,1.3,5.1A2.33,2.33,0,0,0,0,7.2v9.4a2.33,2.33,0,0,0,1.3,2.1L11.8,24V19.3a1.42,1.42,0,0,0-.9-1.4l-5-2.5a.77.77,0,0,1-.3-1.2l6.2-8.6V0Z"
          fill="currentColor"/>
    <g clip-path="url(#ac03b6ba-b607-423f-a14d-c651b63fcfee)">
        <rect width="23.7" height="29.6" fill="currentColor"/>
    </g>
</svg>