<svg xmlns="http://www.w3.org/2000/svg" viewBox="0 0 129.07 129.07">
    <title>icon-play</title>
    <path d="M64.37,4c.61,0,1.24,0,1.86,0a60.53,60.53,0,0,1-1.51,121c-.58,0-1.16,0-1.75,0A60.54,60.54,0,0,1,64.37,4m0-4A64.51,64.51,0,0,0,0,62.86C-1,98.33,27.2,128,62.86,129.05c.62,0,1.24,0,1.86,0a64.45,64.45,0,0,0,64.32-63,63.74,63.74,0,0,0-17.48-45.77A64.38,64.38,0,0,0,66.35,0l-2,0Z"/>
    <path d="M43.62,64.52v-22a16.39,16.39,0,0,1,.08-2c.4-3.11,2.71-4.47,5.55-3.11,2.19,1,4.27,2.35,6.38,3.57q16.82,9.81,33.62,19.64a9.91,9.91,0,0,1,2.15,1.65,3.36,3.36,0,0,1,0,4.89,9.54,9.54,0,0,1-2,1.57L50.79,91.07l-.11.06c-4,2.24-6.8.68-6.82-3.89,0-7.58,0-15.15,0-22.72Z" style="isolation: isolate"/>
</svg>
