<svg version="1.1"
	 xmlns="http://www.w3.org/2000/svg" xmlns:xlink="http://www.w3.org/1999/xlink"
	 x="0px" y="0px" width="109.4px" height="68.1px" viewBox="0 0 109.4 68.1" style="enable-background:new 0 0 109.4 68.1;"
	 xml:space="preserve">
    <path fill="currentColor" d="M46.1,36.4L23.3,68l0,0.1h0V68v0v-4V50.7c0-2.2-1.2-4.3-3.2-5.3L1.7,36.1c-1.7-0.8-2.2-3-1.1-4.5L23.3,0
        v12.8v4.5c0,2.2,1.3,4.3,3.2,5.3L45,31.9C46.7,32.7,47.2,34.8,46.1,36.4z"/>
    <path fill="currentColor" d="M108.9,36.4L86.1,68l0,0.1h0V68v0v-4V50.7c0-2.2-1.2-4.3-3.2-5.3l-18.4-9.3c-1.7-0.8-2.2-3-1.1-4.5L86.1,0
        v12.8v4.5c0,2.2,1.3,4.3,3.2,5.3l18.4,9.3C109.4,32.7,110,34.8,108.9,36.4z"/>
</svg>
