<!-- Generator: Adobe Illustrator 22.0.1, SVG Export Plug-In  -->
<svg version="1.1"
	 xmlns="http://www.w3.org/2000/svg" xmlns:xlink="http://www.w3.org/1999/xlink" xmlns:a="http://ns.adobe.com/AdobeSVGViewerExtensions/3.0/"
	 x="0px" y="0px" width="27.3px" height="27.3px" viewBox="0 0 27.3 27.3" style="enable-background:new 0 0 27.3 27.3;"
	 xml:space="preserve">
<path fill="currentColor" d="M27.3,13.7c0,7.5-6.1,13.6-13.6,13.7C6.1,27.3,0,21.3,0,13.7C0,6.2,6,0,13.6,0C21.2,0,27.3,6,27.3,13.7z
	 M2.5,13.7c0,6.2,5,11.2,11.2,11.2c6.2,0,11.2-5,11.2-11.2c0-6.2-5-11.1-11.2-11.1C7.5,2.5,2.5,7.5,2.5,13.7z"/>
<path fill="currentColor" d="M15.7,20c-0.7,0.3-1.4,0.7-2.1,0.8c-1.4,0.1-2.3-0.7-2.3-2.1c0-1,0.3-2,0.5-3c0.2-0.8,0.3-1.5,0.5-2.3
	c0-0.3,0-0.5,0-0.8c0-0.4-0.3-0.6-0.7-0.6c-0.2,0-0.4,0.1-0.6,0c-0.1,0-0.2-0.1-0.3-0.2c0-0.2-0.1-0.5,0-0.5
	c0.8-0.4,1.5-0.8,2.4-0.8c1.1,0,1.8,0.8,1.9,1.8c0,0.9-0.2,1.8-0.4,2.7c-0.2,1-0.4,1.9-0.6,2.9c0,0.1,0,0.3,0,0.4c0,0.7,0.3,1,1,0.9
	c0.2,0,0.4-0.1,0.5,0C15.6,19.5,15.6,19.8,15.7,20z"/>
<path fill="currentColor" d="M12.2,7.8c0-1,0.8-1.9,1.8-1.9c1,0,1.8,0.8,1.8,1.9c0,1-0.8,1.9-1.8,1.9C13,9.6,12.2,8.8,12.2,7.8z"/>
</svg>
