<svg version="1.1"
	 xmlns="http://www.w3.org/2000/svg" xmlns:xlink="http://www.w3.org/1999/xlink"
	 x="0px" y="0px" width="22px" height="15.4px" viewBox="0 0 22 15.4" style="enable-background:new 0 0 22 15.4;"
	 xml:space="preserve">
		<path fill="currentColor" d="M21.8,3.3c0,0-0.2-1.5-0.9-2.2c-0.8-0.9-1.8-0.9-2.2-0.9C15.6,0,11,0,11,0S6.4,0,3.3,0.2C2.9,0.3,1.9,0.3,1.1,1.2
			C0.4,1.8,0.2,3.3,0.2,3.3S0,4.8,0,6.6v2.2c0,1.8,0.2,3.3,0.2,3.3s0.2,1.5,0.9,2.2c0.8,0.9,1.9,0.8,2.4,0.9
			c1.8,0.2,7.5,0.1,7.5,0.1s4.6,0.1,7.7-0.2c0.4-0.1,1.4-0.1,2.2-0.9c0.7-0.7,0.9-2.2,0.9-2.2S22,10.6,22,8.8V6.6
			C22,4.8,21.8,3.3,21.8,3.3z M8.1,10.6V4.8l5.9,2.9L8.1,10.6z"/>
</svg>
