<svg version="1.1"
     xmlns="http://www.w3.org/2000/svg" xmlns:xlink="http://www.w3.org/1999/xlink"
     x="0px" y="0px" width="22.9px" height="23px" viewBox="0 0 22.9 23"
     style="overflow:scroll;enable-background:new 0 0 22.9 23;"
     xml:space="preserve">
    <g>
        <path fill="currentColor" d="M0,23c0.2-0.7,0.4-1.4,0.7-2c0.4-1.1,0.8-2.3,1.2-3.4c0.1-0.4,0.1-0.7-0.1-1.1c-0.5-1-0.9-2-1.1-3.1
C-0.1,9.4,1,5.9,4,3c1.7-1.6,3.7-2.6,6-2.9c6.5-0.9,11.5,3.7,12.6,8.8c1.2,5.7-2.1,11.7-8.4,13.3c-2.7,0.7-5.3,0.3-7.7-0.9
c-0.2-0.1-0.4-0.1-0.6-0.1C4,21.8,2.1,22.4,0.2,23C0.2,23,0.1,23,0,23z M2.9,20.2c0.9-0.3,1.7-0.6,2.6-0.8c1.2-0.4,0.8-0.4,1.9,0.2
c1.8,0.9,3.7,1.3,5.7,0.9c5.5-0.9,8.7-6.2,7.7-11c-0.8-3.6-2.9-6-6.4-7.1C11,1.2,7.9,2,5.2,4.4c-3.3,3-3.8,8.1-1.6,11.6
C4,16.5,4,17,3.8,17.5C3.5,18.4,3.2,19.2,2.9,20.2z" />
        <path fill="currentColor" d="M6,8.7c0-1.2,0.4-2,1.1-2.7C7.4,5.8,7.7,5.7,8,5.7c0.2,0,0.4,0,0.6,0C8.8,5.8,8.9,6,9,6.1
c0.2,0.6,0.4,1.1,0.6,1.7c0,0.1,0.1,0.3,0.1,0.4C10,8.6,9.9,9,9.6,9.4C9.4,9.6,9.3,9.8,9.1,9.9c-0.2,0.2-0.2,0.3-0.1,0.6
c0.9,1.6,2.2,2.8,3.9,3.6c0.2,0.1,0.4,0.1,0.5-0.1c0.3-0.4,0.6-0.7,0.9-1.1c0.2-0.3,0.3-0.3,0.6-0.1c0.7,0.4,1.5,0.8,2.2,1.2
c0.2,0.1,0.3,0.3,0.3,0.5c-0.1,1.3-0.8,2.1-2.2,2.4c-0.5,0.1-1.1,0.1-1.6-0.1c-0.7-0.3-1.4-0.6-2.1-0.9c-1.3-0.6-2.2-1.5-3.1-2.5
c-0.7-0.8-1.4-1.8-1.9-2.8C6.2,9.9,6,9.3,6,8.7z" />
    </g>
</svg>