<svg version="1.1"
     xmlns="http://www.w3.org/2000/svg" xmlns:xlink="http://www.w3.org/1999/xlink"
     x="0px" y="0px" width="10.6px" height="20.8px" viewBox="0 0 10.6 20.8"
     style="overflow:scroll;enable-background:new 0 0 10.6 20.8;"
     xml:space="preserve">
    <g>
        <path fill="currentColor" d="M2.3,10.4c-0.8,0-1.5,0-2.3,0c0-1.2,0-2.3,0-3.5c0.1,0,0.1,0,0.2,0c0.6,0,1.2,0,1.8,0c0.3,0,0.3,0,0.3-0.3
c0-0.9,0-1.8,0-2.7c0-0.9,0.2-1.8,0.9-2.5c0.6-0.7,1.5-1.1,2.4-1.2C6,0.1,6.4,0,6.9,0C8,0,9.2,0,10.3,0c0.1,0,0.2,0,0.2,0.2
c0,1.1,0,2.2,0,3.3c0,0,0,0.1,0,0.1c-0.1,0-0.1,0-0.2,0c-0.7,0-1.5,0-2.2,0C7.7,3.6,7.4,3.7,7.2,4C7.1,4.2,7,4.4,7,4.6
C7,5.3,7,6,7,6.7c0,0.2,0.1,0.2,0.3,0.2c1,0,2.1,0,3.1,0c0.1,0,0.1,0,0.2,0c-0.1,0.7-0.2,1.4-0.3,2.1c0,0.4-0.1,0.8-0.1,1.2
c0,0.1-0.1,0.2-0.2,0.2c-0.9,0-1.8,0-2.7,0c-0.1,0-0.1,0-0.2,0c0,3.5,0,6.9,0,10.4c-0.1,0-0.2,0-0.3,0c-1.4,0-2.7,0-4.1,0
c-0.3,0-0.3,0-0.3-0.3c0-3.3,0-6.5,0-9.8C2.3,10.6,2.3,10.5,2.3,10.4z" />
    </g>
</svg>