<svg version="1.1"
     xmlns="http://www.w3.org/2000/svg" xmlns:xlink="http://www.w3.org/1999/xlink"
     x="0px" y="0px" width="23.2px" height="19.1px" viewBox="0 0 23.2 19.1"
     style="overflow:scroll;enable-background:new 0 0 23.2 19.1;"
     xml:space="preserve">
    <g>
        <path fill="currentColor" d="M0,16.9c2.6,0.2,4.9-0.4,7-2c-2.2-0.2-3.7-1.3-4.5-3.3c0.7,0,1.4,0.1,2.1-0.1C2.2,10.7,1,9.2,0.8,6.7
C1.5,7,2.1,7.3,2.9,7.3c-1.3-1-2-2.3-2.1-3.9c0-0.9,0.2-1.7,0.6-2.5c2.6,3,5.9,4.7,9.9,5c0-0.2,0-0.4-0.1-0.6
c-0.3-2.4,1.4-4.7,3.8-5.2c1.6-0.3,3,0,4.2,1.1c0.2,0.2,0.5,0.3,0.8,0.2c0.8-0.2,1.6-0.5,2.3-0.9c0.1,0,0.1-0.1,0.2-0.1
c-0.3,1.1-1,1.9-1.8,2.5c0,0,0,0,0,0.1c0.8-0.2,1.6-0.4,2.4-0.6c-0.1,0.2-0.2,0.3-0.3,0.4c-0.5,0.7-1.1,1.3-1.7,1.8
c-0.2,0.2-0.3,0.3-0.3,0.6c0,5-2.5,9.6-6.6,12.1c-1.7,1-3.5,1.6-5.5,1.8c-3.1,0.3-6-0.3-8.7-1.9C0.1,17,0,17,0,16.9
C0,17,0,16.9,0,16.9z" />
    </g>
</svg>