<svg version="1.1"
     xmlns="http://www.w3.org/2000/svg" xmlns:xlink="http://www.w3.org/1999/xlink"
     x="0px" y="0px" width="22.9px" height="22.9px" viewBox="0 0 22.9 22.9"
     style="overflow:scroll;enable-background:new 0 0 22.9 22.9;"
     xml:space="preserve">
    <g>
        <path fill="currentColor" d="M22.9,11.4c0,1.6,0,3.1,0,4.7c0.1,3.1-1.9,5.4-4.3,6.3c-0.8,0.3-1.7,0.5-2.5,0.5c-3,0-6,0-9,0
    c-1.1,0-2.1-0.1-3.1-0.6c-2-0.9-3.3-2.4-3.8-4.6C0,17.3,0,16.9,0,16.5c0-3.3,0-6.6,0-9.9c0-3.3,2.2-5.9,5.4-6.5
    C5.9,0.1,6.4,0,6.8,0c3,0,6.1,0,9.1,0c1.3,0,2.6,0.3,3.7,1c1.6,1,2.7,2.3,3.1,4.2c0.1,0.4,0.1,0.8,0.1,1.2
    C22.9,8.1,22.9,9.8,22.9,11.4C22.9,11.4,22.9,11.4,22.9,11.4z M1.7,11.4C1.7,11.4,1.7,11.4,1.7,11.4c0,1.7,0,3.4,0,5
    c0,0.3,0,0.6,0.1,0.8c0.4,1.6,1.4,2.7,2.8,3.4c0.7,0.3,1.5,0.5,2.3,0.5c3,0,6,0,8.9,0c0.3,0,0.5,0,0.8,0c2.6-0.2,4.5-2.3,4.5-4.9
    c0-3.2,0-6.4,0-9.6c0-1.6-0.7-2.9-1.9-3.9c-0.9-0.7-2-1-3.2-1c-3.1,0-6.1,0-9.2,0C6.2,1.7,5.6,1.8,5,2C3,2.8,1.7,4.5,1.7,6.5
    C1.7,8.2,1.7,9.8,1.7,11.4z" />
        <path fill="currentColor" d="M11.5,5.7c3,0,5.4,2.4,5.4,5.3c0,2.9-2.4,5.3-5.4,5.3c-3,0-5.4-2.4-5.4-5.3C6.1,8.1,8.5,5.7,11.5,5.7z
    M11.5,7.4c-2,0-3.7,1.6-3.7,3.6c0,2,1.6,3.6,3.7,3.6c2,0,3.7-1.6,3.7-3.6C15.1,9,13.5,7.4,11.5,7.4z" />
        <path fill="currentColor"
              d="M17.5,4.1c0.6,0,1.1,0.5,1.1,1.2c0,0.6-0.5,1.2-1.1,1.2c-0.6,0-1.1-0.5-1.1-1.2C16.3,4.6,16.8,4.1,17.5,4.1z"
        />
    </g>
</svg>