<svg version="1.1"
     xmlns="http://www.w3.org/2000/svg" xmlns:xlink="http://www.w3.org/1999/xlink"
     x="0px" y="0px" width="22px" height="23.3px" viewBox="0 0 22 23.3"
     style="overflow:scroll;enable-background:new 0 0 22 23.3;"
     xml:space="preserve">
    <g>
        <path fill="currentColor" d="M11,2.2c0.2,0.6,0.5,1.3,0.7,1.9c0.5,2.2,0,4-1.6,5.6c-0.3,0.3-0.5,0.5-0.8,0.8c-0.3,0.4-0.3,0.7,0,1.1
c0.4,0.6,0.9,1.1,1.4,1.6c1,0.9,1.7,2,1.9,3.4c0.3,1.8,0,3.5-1.3,4.9c-1,1-2.2,1.6-3.6,1.8c-1.8,0.3-3.5,0-5.1-0.7
c-1-0.5-1.8-1.2-2.3-2.3c-0.5-1.1-0.4-2.2,0.1-3.3c0.8-1.9,2.3-3,4.3-3.5c0.4-0.1,0.9-0.1,1.3-0.2c0.1,0,0.1,0,0.2,0
c-0.3-0.7-0.3-1.3-0.2-2c-0.3-0.1-0.6-0.1-0.9-0.2c-1.6-0.4-2.7-1.4-3.4-2.9c-1.5-3.3,0.5-7.2,4-7.9C6.1,0,6.5,0,6.8,0
c1.9,0,3.8,0,5.6,0c0.3,0,0.5,0.1,0.6,0.3c0.1,0.2,0,0.5-0.2,0.7c-0.4,0.3-0.7,0.7-1.1,1c-0.2,0.1-0.4,0.1-0.6,0.2
C11.1,2.2,11,2.2,11,2.2z M6.5,21.2c0.4,0,0.8-0.1,1.1-0.1c1.8-0.3,2.6-1.4,2.5-3.2c0-0.5-0.2-1-0.7-1.4c-0.5-0.4-1-0.8-1.4-1.2
c-0.1-0.1-0.2-0.1-0.3-0.1c-1.3-0.3-2.5-0.1-3.6,0.7c-1.4,1-1.6,2.9-0.5,4.2C4.5,20.8,5.5,21.1,6.5,21.2z M8.8,6.5
c0-1.1-0.3-2-0.8-3C7.7,3,7.4,2.6,6.8,2.3C6.4,2,6,2,5.6,2.1C5,2.3,4.7,2.8,4.5,3.3c-0.4,1.1-0.3,2.1,0,3.2C4.8,7.5,5.2,8.3,6,8.9
c0.9,0.7,1.9,0.5,2.4-0.5C8.7,7.8,8.8,7.2,8.8,6.5z" />
        <path fill="currentColor" d="M16.3,7.4c0-0.6,0-1.1,0-1.7C16.4,5.2,16.5,5,17,5c0.2,0,0.5,0,0.7,0c0.3,0,0.4,0.1,0.5,0.4c0,0.1,0,0.3,0,0.4
c0,1.1,0,2.2,0,3.3c0,0.4,0,0.4,0.4,0.4c0.9,0,1.8,0,2.7,0c0.6,0,0.7,0.1,0.7,0.7c0,0.3,0,0.6,0,1c0,0.4-0.2,0.5-0.5,0.5
c-0.5,0-0.9,0-1.4,0c-0.5,0-1,0-1.5,0c-0.3,0-0.3,0-0.3,0.3c0,1.1,0,2.2,0,3.2c0,0.1,0,0.1,0,0.2c0,0.5-0.2,0.7-0.7,0.7
c-0.2,0-0.5,0-0.7,0c-0.2,0-0.4-0.2-0.4-0.4c0-0.1,0-0.2,0-0.3c0-1.2,0-2.3,0-3.5c0-0.3,0-0.3-0.3-0.3c-0.9,0-1.8,0-2.7,0
c-0.1,0-0.2,0-0.4,0c-0.2,0-0.3-0.2-0.3-0.4c0-0.5,0-0.9,0-1.4c0-0.2,0.1-0.4,0.4-0.4c0.1,0,0.2,0,0.3,0c0.9,0,1.8,0,2.7,0
c0.3,0,0.4,0,0.4-0.4C16.4,8.5,16.4,8,16.3,7.4C16.4,7.4,16.3,7.4,16.3,7.4z" />
    </g>
</svg>